<svg width="40" height="40" viewBox="0 0 40 40" fill="none" xmlns="http://www.w3.org/2000/svg">
    <g clip-path="url(#clip0_42_3292)">
        <path
            d="M29.9555 27.6765C28.3879 27.0969 26.7742 26.6556 25.1275 26.3526L20.9451 33.1104C20.5039 33.802 19.4961 33.8613 19.0548 33.1104L14.8657 26.3526C13.2257 26.649 11.6054 27.0903 10.0378 27.6765C9.32643 27.9334 8.73366 28.3748 8.25287 28.9148H11.9084C12.5209 28.9148 13.0215 29.4088 13.0215 30.0279C13.0215 30.6471 12.5276 31.141 11.9084 31.141H7.22535C7.19244 31.3386 7.1792 31.5428 7.1792 31.7404V33.3607H9.66887C10.2814 33.3607 10.782 33.8548 10.782 34.4738C10.782 35.0864 10.288 35.5869 9.66887 35.5869H7.1793V37.7737H32.8272V31.7536C32.8272 29.9424 31.668 28.3088 29.9555 27.6765Z"
            fill="white" />
        <path
            d="M22.0516 35.5409L26.201 28.849C27.2088 29.0927 28.2099 29.4022 29.1848 29.7514C30.0476 30.0741 30.6075 30.8447 30.6075 31.7339V35.5344H22.0516V35.5409ZM9.39893 35.5409V31.7405C9.39893 30.8578 9.95879 30.0806 10.815 29.7645C11.7899 29.4022 12.791 29.1058 13.7987 28.849L17.9482 35.5409H9.39893Z"
            fill="#C8EEE6" />
        <path
            d="M30.7261 25.5887C28.7963 24.8708 26.7808 24.3504 24.7522 24.0277C24.3043 23.9553 23.8696 24.1595 23.6325 24.5415L20.0033 30.4167L16.3675 24.5481C16.1305 24.1726 15.6957 23.9685 15.2478 24.0344C13.2192 24.3505 11.2103 24.8775 9.27388 25.5954C6.692 26.5504 4.95312 29.0203 4.95312 31.7472V38.887C4.95312 39.4995 5.44707 40.0001 6.06622 40.0001H33.9338C34.5463 40.0001 35.0469 39.5061 35.0469 38.887V31.7538C35.0469 29.0202 33.3146 26.5503 30.7261 25.5887ZM32.8272 37.7672H7.17932V35.5804H9.66899C10.2815 35.5804 10.7821 35.0865 10.7821 34.4673C10.7821 33.8548 10.2881 33.3542 9.66899 33.3542H7.17932V31.7339C7.17932 31.5298 7.19246 31.3322 7.22547 31.1345H11.9085C12.5211 31.1345 13.0216 30.6406 13.0216 30.0214C13.0216 29.4089 12.5277 28.9084 11.9085 28.9084H8.25289C8.72716 28.3683 9.33307 27.9335 10.0378 27.67C11.6054 27.0904 13.2257 26.6492 14.8658 26.3461L19.0548 33.1039C19.496 33.8548 20.5038 33.7955 20.9451 33.1039L25.1276 26.3461C26.7677 26.6425 28.388 27.0838 29.9556 27.67C31.6747 28.309 32.8273 29.9358 32.8273 31.7406V37.7672H32.8272Z"
            fill="#0D0D5D" />
        <path
            d="M26.0364 15.0041C26.0364 14.3454 25.931 13.7066 25.7269 13.1006H14.2729C14.0687 13.7065 13.9634 14.3454 13.9634 15.0041C13.9634 18.3369 16.6705 21.044 20.0032 21.044C23.3228 21.0439 26.0364 18.3369 26.0364 15.0041Z"
            fill="white" />
        <path
            d="M11.6519 2.2131C11.6519 2.2131 13.5158 10.8744 13.5225 10.8744C13.5225 10.8744 26.4914 10.8744 26.498 10.8744H26.7351L28.5859 2.2131C28.5858 2.2131 11.6519 2.2131 11.6519 2.2131Z"
            fill="#C8EEE6" />
        <path
            d="M30.7261 25.5887C28.7963 24.8708 26.7808 24.3504 24.7522 24.0277C24.3043 23.9553 23.8696 24.1595 23.6325 24.5415L20.0033 30.4167L16.3675 24.5481C16.1305 24.1726 15.6957 23.9685 15.2478 24.0344C13.2192 24.3505 11.2103 24.8775 9.27388 25.5954C6.692 26.5504 4.95312 29.0203 4.95312 31.7472V38.887C4.95312 39.4995 5.44707 40.0001 6.06622 40.0001H33.9338C34.5463 40.0001 35.0469 39.5061 35.0469 38.887V31.7538C35.0469 29.0202 33.3146 26.5503 30.7261 25.5887ZM32.8272 37.7672H7.17932V35.5804H9.66899C10.2815 35.5804 10.7821 35.0865 10.7821 34.4673C10.7821 33.8548 10.2881 33.3542 9.66899 33.3542H7.17932C7.17932 33.3542 7.19246 31.3322 7.22547 31.1345H11.9085C12.5211 31.1345 13.0216 30.6406 13.0216 30.0214C13.0216 29.4089 12.5277 28.9084 11.9085 28.9084H8.25289C8.72716 28.3683 9.33307 27.9335 10.0378 27.67C11.6054 27.0904 13.2257 26.6492 14.8658 26.3461L19.0548 33.1039C19.496 33.8548 20.5038 33.7955 20.9451 33.1039L25.1276 26.3461C26.7677 26.6425 28.388 27.0838 29.9556 27.67C31.6747 28.309 32.8273 29.9358 32.8273 31.7406V37.7672H32.8272Z"
            fill="#0D0D5D" />
        <path
            d="M11.5265 12.2246C11.5923 12.521 11.7768 12.7778 12.0204 12.936C11.8492 13.6078 11.7438 14.2994 11.7438 15.0173C11.7438 19.5686 15.452 23.2768 20.0034 23.2768C24.5547 23.2768 28.2629 19.5686 28.2629 15.0173C28.2629 14.3388 28.1773 13.6868 28.0192 13.0413C28.3683 12.9162 28.6384 12.6132 28.7174 12.2311L31.0491 1.34356C31.2005 0.691598 30.6736 0 29.9556 0H10.2817C9.60332 0 9.04346 0.638923 9.19486 1.34366L11.5265 12.2246ZM20.0034 21.0439C16.6706 21.0439 13.9635 18.3368 13.9635 15.004C13.9635 14.3454 14.0689 13.7065 14.273 13.1005H25.7336C25.9378 13.7064 26.0431 14.3454 26.0431 15.004C26.0366 18.3369 23.323 21.0439 20.0034 21.0439ZM28.5659 2.21967L26.7217 10.8809H26.4846C26.478 10.8809 13.5091 10.8809 13.5091 10.8809C13.5025 10.8809 11.6385 2.21967 11.6385 2.21967H28.5659Z"
            fill="#0D0D5D" />
        <path
            d="M18.3831 7.66015H19.0154V8.29245C19.0154 8.90499 19.5094 9.40555 20.1285 9.40555C20.7477 9.40555 21.2416 8.91161 21.2416 8.29245V7.66015H21.8739C22.4865 7.66015 22.987 7.16621 22.987 6.54705C22.987 5.92789 22.4931 5.43395 21.8739 5.43395H21.2416V4.80165C21.2416 4.18912 20.7477 3.68855 20.1285 3.68855C19.516 3.68855 19.0154 4.18249 19.0154 4.80165V5.43395H18.3831C17.7706 5.43395 17.27 5.92789 17.27 6.54705C17.27 7.16611 17.7706 7.66015 18.3831 7.66015Z"
            fill="#0D0D5D" />
    </g>
    <defs>
        <clipPath id="clip0_42_3292">
            <rect width="40" height="40" fill="white" />
        </clipPath>
    </defs>
</svg>