<svg width="40" height="40" viewBox="0 0 40 40" fill="none" xmlns="http://www.w3.org/2000/svg">
<path d="M20 18.3333C23.6819 18.3333 26.6667 15.3486 26.6667 11.6667C26.6667 7.98477 23.6819 5 20 5C16.3181 5 13.3334 7.98477 13.3334 11.6667C13.3334 15.3486 16.3181 18.3333 20 18.3333Z" fill="#C8EEE6"/>
<path d="M32.0833 35C32.0833 35.6903 32.643 36.25 33.3333 36.25C34.0237 36.25 34.5833 35.6903 34.5833 35H32.0833ZM5.41669 35C5.41669 35.6903 5.97634 36.25 6.66669 36.25C7.35704 36.25 7.91669 35.6903 7.91669 35H5.41669ZM36.25 21.6667C36.25 20.9763 35.6903 20.4167 35 20.4167C34.3097 20.4167 33.75 20.9763 33.75 21.6667H36.25ZM33.75 21.6833C33.75 22.3737 34.3097 22.9333 35 22.9333C35.6903 22.9333 36.25 22.3737 36.25 21.6833H33.75ZM33.75 18.3333C33.75 19.0237 34.3097 19.5833 35 19.5833C35.6903 19.5833 36.25 19.0237 36.25 18.3333H33.75ZM30.4545 12.2923C30.286 12.9618 30.6922 13.6411 31.3615 13.8096C32.031 13.9781 32.7104 13.572 32.8789 12.9025L30.4545 12.2923ZM13.3334 26.25H26.6667V23.75H13.3334V26.25ZM32.0833 31.6667V35H34.5833V31.6667H32.0833ZM7.91669 35V31.6667H5.41669V35H7.91669ZM26.6667 26.25C29.6582 26.25 32.0833 28.6752 32.0833 31.6667H34.5833C34.5833 27.2943 31.039 23.75 26.6667 23.75V26.25ZM13.3334 23.75C8.9611 23.75 5.41669 27.2943 5.41669 31.6667H7.91669C7.91669 28.6752 10.3418 26.25 13.3334 26.25V23.75ZM25.4167 11.6667C25.4167 14.6582 22.9915 17.0833 20 17.0833V19.5833C24.3724 19.5833 27.9167 16.0389 27.9167 11.6667H25.4167ZM20 17.0833C17.0085 17.0833 14.5834 14.6582 14.5834 11.6667H12.0834C12.0834 16.0389 15.6278 19.5833 20 19.5833V17.0833ZM14.5834 11.6667C14.5834 8.67512 17.0085 6.25 20 6.25V3.75C15.6278 3.75 12.0834 7.29442 12.0834 11.6667H14.5834ZM20 6.25C22.9915 6.25 25.4167 8.67512 25.4167 11.6667H27.9167C27.9167 7.29442 24.3724 3.75 20 3.75V6.25ZM33.75 21.6667V21.6833H36.25V21.6667H33.75ZM37.0833 13.4632C37.0833 14.001 36.8185 14.28 35.9293 14.9295C35.1887 15.4705 33.75 16.4181 33.75 18.3333H36.25C36.25 17.8677 36.478 17.6247 37.404 16.9482C38.1815 16.3802 39.5833 15.4146 39.5833 13.4632H37.0833ZM35 11.25C36.1283 11.25 37.0833 12.1881 37.0833 13.4632H39.5833C39.5833 10.913 37.6125 8.75 35 8.75V11.25ZM32.8789 12.9025C33.1168 11.9569 34.0025 11.25 35 11.25V8.75C32.8415 8.75 30.9683 10.2505 30.4545 12.2923L32.8789 12.9025Z" fill="#0D0D5D"/>
</svg>
