<svg width="35" height="34" viewBox="0 0 35 34" fill="none" xmlns="http://www.w3.org/2000/svg">
<path d="M27.0827 32C27.0827 32.6903 27.6423 33.25 28.3327 33.25C29.023 33.25 29.5827 32.6903 29.5827 32H27.0827ZM0.416016 32C0.416016 32.6903 0.975666 33.25 1.66602 33.25C2.35637 33.25 2.91602 32.6903 2.91602 32H0.416016ZM31.2493 18.6667C31.2493 17.9763 30.6897 17.4167 29.9993 17.4167C29.309 17.4167 28.7493 17.9763 28.7493 18.6667H31.2493ZM28.7493 18.6833C28.7493 19.3737 29.309 19.9333 29.9993 19.9333C30.6897 19.9333 31.2493 19.3737 31.2493 18.6833H28.7493ZM28.7493 15.3333C28.7493 16.0237 29.309 16.5833 29.9993 16.5833C30.6897 16.5833 31.2493 16.0237 31.2493 15.3333H28.7493ZM25.4538 9.2923C25.2853 9.96178 25.6915 10.6411 26.3608 10.8096C27.0303 10.9781 27.7097 10.572 27.8782 9.9025L25.4538 9.2923ZM8.33268 23.25H21.666V20.75H8.33268V23.25ZM27.0827 28.6667V32H29.5827V28.6667H27.0827ZM2.91602 32V28.6667H0.416016V32H2.91602ZM21.666 23.25C24.6575 23.25 27.0827 25.6752 27.0827 28.6667H29.5827C29.5827 24.2943 26.0383 20.75 21.666 20.75V23.25ZM8.33268 20.75C3.96043 20.75 0.416016 24.2943 0.416016 28.6667H2.91602C2.91602 25.6752 5.34113 23.25 8.33268 23.25V20.75ZM20.416 8.66667C20.416 11.6582 17.9908 14.0833 14.9993 14.0833V16.5833C19.3717 16.5833 22.916 13.0389 22.916 8.66667H20.416ZM14.9993 14.0833C12.0078 14.0833 9.58268 11.6582 9.58268 8.66667H7.08268C7.08268 13.0389 10.6271 16.5833 14.9993 16.5833V14.0833ZM9.58268 8.66667C9.58268 5.67512 12.0078 3.25 14.9993 3.25V0.75C10.6271 0.75 7.08268 4.29442 7.08268 8.66667H9.58268ZM14.9993 3.25C17.9908 3.25 20.416 5.67512 20.416 8.66667H22.916C22.916 4.29442 19.3717 0.75 14.9993 0.75V3.25ZM28.7493 18.6667V18.6833H31.2493V18.6667H28.7493ZM32.0827 10.4632C32.0827 11.001 31.8178 11.28 30.9287 11.9295C30.188 12.4705 28.7493 13.4181 28.7493 15.3333H31.2493C31.2493 14.8677 31.4773 14.6247 32.4033 13.9482C33.1808 13.3802 34.5827 12.4146 34.5827 10.4632H32.0827ZM29.9993 8.25C31.1277 8.25 32.0827 9.18807 32.0827 10.4632H34.5827C34.5827 7.91298 32.6118 5.75 29.9993 5.75V8.25ZM27.8782 9.9025C28.1162 8.95685 29.0018 8.25 29.9993 8.25V5.75C27.8408 5.75 25.9677 7.25055 25.4538 9.2923L27.8782 9.9025Z" fill="#0D0D5D"/>
</svg>
