<svg width="37" height="37" viewBox="0 0 37 37" fill="none" xmlns="http://www.w3.org/2000/svg">
    <rect width="37" height="37" rx="8" fill="#C8EEE6" />
    <path
        d="M26.6018 15.1581C26.0017 13.7486 25.0647 12.5079 23.8731 11.5451C22.6816 10.5823 21.2719 9.92664 19.7678 9.63579L21.1265 7.4619L19.7485 6.60065L17.9557 9.46918C16.1295 9.47765 14.3457 10.021 12.8249 11.032C11.3041 12.043 10.1128 13.4774 9.39817 15.1581C8.44097 15.1762 7.52912 15.5693 6.85862 16.2526C6.18812 16.936 5.8125 17.8552 5.8125 18.8125C5.8125 19.7699 6.18812 20.6891 6.85862 21.3724C7.52912 22.0558 8.44097 22.4488 9.39817 22.467C10.1158 24.1545 11.314 25.5937 12.8435 26.6053C14.373 27.6169 16.1662 28.1563 18 28.1563C19.8338 28.1563 21.627 27.6169 23.1565 26.6053C24.686 25.5937 25.8842 24.1545 26.6018 22.467C27.559 22.4488 28.4709 22.0558 29.1414 21.3724C29.8119 20.6891 30.1875 19.7699 30.1875 18.8125C30.1875 17.8552 29.8119 16.936 29.1414 16.2526C28.4709 15.5693 27.559 15.1762 26.6018 15.1581ZM27.9807 20.2349C27.609 20.615 27.1025 20.8333 26.571 20.8423L25.5185 20.8623L25.1065 21.8309C24.5138 23.2252 23.5239 24.4143 22.2603 25.2502C20.9967 26.086 19.5151 26.5317 18 26.5317C16.485 26.5317 15.0034 26.086 13.7398 25.2502C12.4761 24.4143 11.4863 23.2252 10.8935 21.8309L10.4815 20.8623L9.42904 20.8423C8.89729 20.8324 8.39068 20.6141 8.01814 20.2346C7.64561 19.855 7.4369 19.3444 7.4369 18.8125C7.4369 18.2807 7.64561 17.7701 8.01814 17.3905C8.39068 17.0109 8.89729 16.7927 9.42904 16.7828L10.4815 16.7627L10.8935 15.7941C11.4863 14.3999 12.4762 13.2108 13.7398 12.375C15.0034 11.5391 16.485 11.0934 18 11.0934C19.5151 11.0934 20.9967 11.5391 22.2603 12.375C23.5239 13.2108 24.5137 14.3999 25.1065 15.7941L25.5185 16.7627L26.571 16.7828C26.9676 16.7902 27.3533 16.9138 27.6805 17.1381C28.0076 17.3624 28.2619 17.6777 28.4119 18.0449C28.5618 18.4122 28.6009 18.8153 28.5243 19.2045C28.4476 19.5937 28.2586 19.9519 27.9807 20.2349Z"
        fill="black" />
    <path d="M15.5625 16.7812H13.5312V18.8125H15.5625V16.7812Z" fill="black" />
    <path d="M22.4688 16.7812H20.4375V18.8125H22.4688V16.7812Z" fill="black" />
    <path
        d="M18 24.5C18.5335 24.5 19.0618 24.3949 19.5547 24.1908C20.0475 23.9866 20.4954 23.6874 20.8726 23.3101C21.2499 22.9329 21.5491 22.485 21.7533 21.9922C21.9574 21.4993 22.0625 20.971 22.0625 20.4375H13.9375C13.9375 20.971 14.0426 21.4993 14.2467 21.9922C14.4509 22.485 14.7501 22.9329 15.1274 23.3101C15.8892 24.072 16.9226 24.5 18 24.5Z"
        fill="black" />
</svg>