<svg width="20" height="20" viewBox="0 0 20 20" xmlns="http://www.w3.org/2000/svg">
    <path
        d="M12.5816 10.5282L10.8332 9.51912V5.83341C10.8332 5.6124 10.7454 5.40044 10.5891 5.24416C10.4328 5.08788 10.2209 5.00008 9.99984 5.00008C9.77883 5.00008 9.56687 5.08788 9.41059 5.24416C9.25431 5.40044 9.16651 5.6124 9.16651 5.83341V10.0001C9.16647 10.1464 9.20496 10.2901 9.2781 10.4168C9.35124 10.5436 9.45646 10.6488 9.58317 10.7219L11.7483 11.9719C11.8431 12.0267 11.9477 12.0623 12.0563 12.0766C12.1648 12.0909 12.2752 12.0837 12.3809 12.0554C12.4867 12.0271 12.5858 11.9782 12.6727 11.9115C12.7596 11.8449 12.8324 11.7618 12.8872 11.667C12.9419 11.5721 12.9774 11.4675 12.9917 11.3589C13.006 11.2503 12.9987 11.14 12.9703 11.0343C12.9419 10.9286 12.893 10.8294 12.8263 10.7426C12.7596 10.6558 12.6765 10.5829 12.5816 10.5282V10.5282ZM9.99984 1.66675C8.35166 1.66675 6.7405 2.15549 5.37009 3.07117C3.99968 3.98685 2.93158 5.28834 2.30084 6.81105C1.67011 8.33377 1.50509 10.0093 1.82663 11.6258C2.14817 13.2423 2.94185 14.7272 4.10728 15.8926C5.27272 17.0581 6.75758 17.8518 8.37409 18.1733C9.9906 18.4948 11.6662 18.3298 13.1889 17.6991C14.7116 17.0683 16.0131 16.0002 16.9288 14.6298C17.8444 13.2594 18.3332 11.6483 18.3332 10.0001C18.3307 7.7907 17.452 5.67251 15.8897 4.11024C14.3274 2.54797 12.2092 1.66921 9.99984 1.66675V1.66675ZM9.99984 16.6667C8.6813 16.6667 7.39237 16.2758 6.29604 15.5432C5.19971 14.8107 4.34523 13.7695 3.84064 12.5513C3.33606 11.3331 3.20404 9.99269 3.46127 8.69948C3.71851 7.40627 4.35345 6.21839 5.2858 5.28604C6.21815 4.35369 7.40603 3.71875 8.69924 3.46151C9.99245 3.20428 11.3329 3.3363 12.5511 3.84088C13.7692 4.34547 14.8104 5.19995 15.543 6.29628C16.2755 7.39261 16.6665 8.68154 16.6665 10.0001C16.6645 11.7676 15.9615 13.4621 14.7117 14.7119C13.4618 15.9617 11.7673 16.6647 9.99984 16.6667V16.6667Z" />
</svg>