<svg width="40" height="40" viewBox="0 0 40 40" fill="none" xmlns="http://www.w3.org/2000/svg">
    <path
        d="M15.7687 6.46692H18.8968V9.595C18.8968 10.2074 19.3906 10.7079 20.0097 10.7079C20.6221 10.7079 21.1226 10.2141 21.1226 9.595V6.46692H24.2507C24.8631 6.46692 25.3636 5.97306 25.3636 5.35401C25.3636 4.74157 24.8697 4.24109 24.2507 4.24109H21.1226V1.11291C21.1226 0.50048 20.6287 0 20.0097 0C19.3972 0 18.8968 0.493859 18.8968 1.11291V4.24099H15.7687C15.1562 4.24099 14.6558 4.73485 14.6558 5.3539C14.6557 5.97296 15.1562 6.46692 15.7687 6.46692Z"
        fill="#0D0D5D" />
    <path d="M4.20454 8.89043H2.229V37.7808H4.20454V8.89043Z" fill="#C8EEE6" />
    <path d="M35.8013 37.7807H37.7769V31.2414H35.8013V37.7807Z" fill="#C8EEE6" />
    <path d="M37.7705 27.0333H6.42383V29.009H37.7705V27.0333Z" fill="#C8EEE6" />
    <path d="M6.42383 24.814H12.7656C12.252 22.351 10.0656 20.5005 7.45117 20.5005H6.42383V24.814Z" fill="#C8EEE6" />
    <path d="M35.6763 23.1018C35.6763 22.0086 34.7873 21.1261 33.7006 21.1261H19.0283V24.8271H35.6763V23.1018Z"
        fill="#C8EEE6" />
    <path
        d="M38.8901 24.8139H37.9089V23.0884C37.9089 20.7769 36.0255 18.887 33.7075 18.887H17.9155C17.3031 18.887 16.8026 19.3808 16.8026 19.9999V24.8073H15.0245C14.4845 21.1128 11.3037 18.2745 7.4644 18.2745H6.42392V8.89031C6.42392 7.66545 5.42296 6.67101 4.20461 6.67101H2.22907C1.01073 6.67101 0.00976562 7.66545 0.00976562 8.89031V37.7806C0.00976562 38.999 1.01073 39.9999 2.22907 39.9999H4.20471C5.42958 39.9999 6.42402 38.999 6.42402 37.7806V31.2413H33.5757V37.7806C33.5757 39.0055 34.5767 39.9999 35.7951 39.9999H37.7707C38.9956 39.9999 39.99 38.999 39.99 37.7806V25.9268C39.9965 25.3144 39.5026 24.8139 38.8901 24.8139ZM37.7772 37.7806H35.8016V31.2413H37.7772V37.7806ZM12.7724 24.8139H6.42392V20.5005H7.4644C10.0722 20.5004 12.2586 22.3575 12.7724 24.8139ZM6.42392 27.0332H37.7706V29.0088H6.42392V27.0332ZM19.0285 21.1194H33.7008C34.794 21.1194 35.6765 22.0084 35.6765 23.0951V24.8139H19.0285V21.1194ZM2.22907 8.89031H4.20471V37.7806H2.22907V8.89031Z"
        fill="#0D0D5D" />
</svg>