<svg width="37" height="37" viewBox="0 0 37 37" fill="none" xmlns="http://www.w3.org/2000/svg">
    <rect width="37" height="37" rx="8" fill="#C8EEE6" />
    <g clip-path="url(#clip0_42_3095)">
        <path
            d="M24.414 9.15224H21.6626V8.70552C21.6626 8.31592 21.3466 8 20.957 8H14.0433C13.6537 8 13.3378 8.31592 13.3378 8.70552V9.15231H10.5864C10.1968 9.15231 9.88086 9.46823 9.88086 9.85783V28.2946C9.88086 28.6842 10.1968 29.0001 10.5864 29.0001H24.4139C24.8035 29.0001 25.1194 28.6842 25.1194 28.2946V9.85776C25.1194 9.46816 24.8036 9.15224 24.414 9.15224ZM14.7488 9.41096H20.2515V10.3046H14.7488V9.41096ZM23.7085 27.5891H11.2919V10.5633H13.3378V11.0101C13.3378 11.3997 13.6537 11.7156 14.0433 11.7156H20.9571C21.3467 11.7156 21.6626 11.3997 21.6626 11.0101V10.5633H23.7085V27.5891H23.7085Z"
            fill="black" />
        <path
            d="M14.3579 18.8039H15.7475V20.1935C15.7475 20.5831 16.0634 20.899 16.453 20.899H18.5481C18.9377 20.899 19.2536 20.5831 19.2536 20.1935V18.8039H20.6432C21.0328 18.8039 21.3487 18.488 21.3487 18.0984V16.0033C21.3487 15.6137 21.0328 15.2978 20.6432 15.2978H19.2536V13.9083C19.2536 13.5187 18.9377 13.2028 18.5481 13.2028H16.453C16.0634 13.2028 15.7475 13.5187 15.7475 13.9083V15.2979H14.3579C13.9683 15.2979 13.6523 15.6138 13.6523 16.0034V18.0984C13.6523 18.488 13.9683 18.8039 14.3579 18.8039ZM15.0633 16.7088H16.4529C16.8425 16.7088 17.1584 16.3929 17.1584 16.0033V14.6137H17.8426V16.0033C17.8426 16.3929 18.1585 16.7088 18.5481 16.7088H19.9377V17.3929H18.5481C18.1585 17.3929 17.8426 17.7088 17.8426 18.0984V19.488H17.1584V18.0984C17.1584 17.7088 16.8425 17.3929 16.4529 17.3929H15.0633V16.7088Z"
            fill="black" />
        <path
            d="M14.0434 24.3908H20.9572C21.3468 24.3908 21.6627 24.0749 21.6627 23.6853C21.6627 23.2957 21.3468 22.9798 20.9572 22.9798H14.0434C13.6538 22.9798 13.3379 23.2957 13.3379 23.6853C13.3379 24.075 13.6538 24.3908 14.0434 24.3908Z"
            fill="black" />
        <path
            d="M21.5334 25.2844H13.4672C13.0776 25.2844 12.7617 25.6003 12.7617 25.9899C12.7617 26.3795 13.0776 26.6955 13.4672 26.6955H21.5334C21.923 26.6955 22.2389 26.3795 22.2389 25.9899C22.2389 25.6003 21.923 25.2844 21.5334 25.2844Z"
            fill="black" />
    </g>
    <defs>
        <clipPath id="clip0_42_3095">
            <rect width="21" height="21" fill="white" transform="translate(7 8)" />
        </clipPath>
    </defs>
</svg>