<svg width="40" height="40" viewBox="0 0 40 40" fill="none" xmlns="http://www.w3.org/2000/svg">
    <path
        d="M19.566 23.5535L27.3052 15.9856V3.33944C27.3052 2.7269 26.8112 2.22634 26.1921 2.22634H3.33673C2.7242 2.22634 2.22363 2.72028 2.22363 3.33944V36.6673C2.22363 37.2798 2.71757 37.7804 3.33673 37.7804H26.1986C26.8111 37.7804 27.3117 37.2864 27.3117 36.6673V26.3396L24.743 28.849C24.5388 29.0532 24.2555 29.1651 23.9658 29.1651C23.9592 29.1651 23.9592 29.1651 23.9526 29.1651L20.2906 29.1256C19.678 29.119 19.1906 28.6119 19.1972 27.9993L19.2434 24.3306C19.2367 24.0409 19.3553 23.7577 19.566 23.5535Z"
        fill="white" />
    <path
        d="M19.5657 23.5534L25.0853 18.1591V4.43933H4.44971V35.5475H25.0853V28.5065L24.7362 28.8424C24.532 29.0466 24.2488 29.1586 23.959 29.1586C23.9524 29.1586 23.9524 29.1586 23.9459 29.1586L20.2838 29.119C19.6713 29.1124 19.1839 28.6053 19.1905 27.9927L19.2366 24.324C19.2364 24.0409 19.355 23.7576 19.5657 23.5534Z"
        fill="#C8EEE6" />
    <path
        d="M12.2218 8.97737H10.8979V7.59418C10.8979 6.98164 10.4039 6.48108 9.78479 6.48108C9.17225 6.48108 8.67169 6.97502 8.67169 7.59418V8.97737H7.35431C6.74177 8.97737 6.24121 9.47131 6.24121 10.0905C6.24121 10.7096 6.73515 11.2036 7.35431 11.2036H8.67821V12.5999C8.67821 13.2124 9.17215 13.713 9.79131 13.713C10.4038 13.713 10.9044 13.2191 10.9044 12.5999V11.2036H12.2283C12.8408 11.2036 13.3414 10.7096 13.3414 10.0905C13.3414 9.47142 12.8343 8.97737 12.2218 8.97737Z"
        fill="#0D0D5D" />
    <path
        d="M21.0613 19.18H7.23614C6.62361 19.18 6.12305 18.6861 6.12305 18.0669C6.12305 17.4477 6.61699 16.9537 7.23614 16.9537H21.0679C21.6804 16.9537 22.181 17.4476 22.181 18.0668C22.181 18.686 21.6804 19.18 21.0613 19.18Z"
        fill="#0D0D5D" />
    <path
        d="M15.8579 25.8389H7.23615C6.62361 25.8389 6.12305 25.345 6.12305 24.7258C6.12305 24.1133 6.61699 23.6127 7.23615 23.6127H15.8579C16.4704 23.6127 16.971 24.1067 16.971 24.7258C16.971 25.345 16.4705 25.8389 15.8579 25.8389Z"
        fill="#0D0D5D" />
    <path
        d="M22.2996 32.5046H7.23615C6.62361 32.5046 6.12305 32.0106 6.12305 31.3915C6.12305 30.7789 6.61699 30.2784 7.23615 30.2784H22.3061C22.9187 30.2784 23.4192 30.7723 23.4192 31.3915C23.4127 32.0106 22.9121 32.5046 22.2996 32.5046Z"
        fill="#0D0D5D" />
    <path
        d="M22.2992 12.5078H15.3768C14.7642 12.5078 14.2637 12.0139 14.2637 11.3947C14.2637 10.7822 14.7576 10.2816 15.3768 10.2816H22.2992C22.9117 10.2816 23.4123 10.7755 23.4123 11.3947C23.4123 12.0138 22.9117 12.5078 22.2992 12.5078Z"
        fill="#0D0D5D" />
    <path
        d="M38.9435 9.79414C37.4616 8.17386 35.0904 8.34513 33.7072 9.72832L29.5247 13.812V3.3394C29.5248 1.49517 28.0362 0 26.192 0H3.33668C1.49907 0 0.00390625 1.49517 0.00390625 3.3394V36.6672C0.00390625 38.5048 1.49907 40 3.33668 40H26.1985C28.0361 40 29.5313 38.5048 29.5313 36.6606V24.1725L38.8842 15.0304C40.3464 13.6012 40.3662 11.2498 38.9435 9.79414ZM27.3051 36.6541C27.3051 37.2666 26.8112 37.7672 26.192 37.7672H3.33668C2.72414 37.7672 2.22358 37.2732 2.22358 36.6541V3.3394C2.22358 2.72686 2.71752 2.2263 3.33668 2.2263H26.1985C26.8111 2.2263 27.3116 2.72024 27.3116 3.3394V15.9921L19.5659 23.5535C19.3551 23.7576 19.2366 24.0409 19.23 24.3306L19.1838 27.9993C19.1772 28.6119 19.6712 29.119 20.2772 29.1257L23.9392 29.1652C23.9459 29.1652 23.9459 29.1652 23.9524 29.1652C24.2421 29.1652 24.5189 29.0532 24.7296 28.8491L27.2983 26.3396V36.6541H27.3051ZM23.5113 26.9389L21.4167 26.9125L21.4431 24.818L33.1079 13.4233L35.1761 15.5441L23.5113 26.9389ZM37.3298 13.4365L36.77 13.9766L34.7018 11.8558L35.2617 11.3026C35.8281 10.7493 36.7963 10.7625 37.3562 11.3289C37.9292 11.9282 37.9094 12.8635 37.3298 13.4365Z"
        fill="#0D0D5D" />
    <path
        d="M37.3297 13.4365C37.9093 12.87 37.9291 11.9282 37.3561 11.342C36.8029 10.7755 35.828 10.769 35.2615 11.3156L34.7017 11.8688L36.7698 13.9897L37.3297 13.4365Z"
        fill="#C8EEE6" />
    <path d="M33.1144 13.4167L21.4496 24.8246L21.4233 26.9191L23.5113 26.9389L35.1826 15.5376L33.1144 13.4167Z"
        fill="#C8EEE6" />
</svg>