<svg width="37" height="37" viewBox="0 0 37 37" fill="none" xmlns="http://www.w3.org/2000/svg">
    <rect width="37" height="37" rx="8" fill="#C8EEE6" />
    <path
        d="M27.7291 17.0283L23.0059 12.4809V8.86183C23.0059 8.39564 22.6215 8.01125 22.1553 8.01125C21.6891 8.01125 21.3047 8.39564 21.3047 8.86183V10.8452L18.5812 8.22389C18.2827 7.92537 17.7715 7.92537 17.4321 8.22389L8.28829 17.0283C7.94888 17.3677 7.9039 17.8789 8.2474 18.2183C8.59091 18.5577 9.09798 18.6027 9.4374 18.2592L9.56417 18.1365V27.1494C9.56417 27.6156 9.94857 28 10.4148 28H25.6435C26.1097 28 26.4532 27.6156 26.4941 27.1903V18.2224L26.5799 18.3041C27.2015 18.7335 27.6432 18.4309 27.77 18.2183C28.0685 17.8789 28.0685 17.3268 27.7291 17.0283ZM19.5176 26.3438H16.5406V21.7924H19.5176V26.3438ZM24.7929 26.3438H21.1779V20.9418C21.1779 20.4756 20.7935 20.0912 20.3273 20.0912H15.69C15.2238 20.0912 14.8394 20.4756 14.8394 20.9418V26.3438H11.2653V18.0056H24.7929V26.3438ZM11.4289 16.3494L18.0291 10.0109L24.5639 16.3494H11.4289Z"
        fill="black" />
</svg>