<svg width="37" height="37" viewBox="0 0 37 37" fill="none" xmlns="http://www.w3.org/2000/svg">
    <rect width="37" height="37" rx="8" fill="#C8EEE6" />
    <path
        d="M26.7734 8.42969C26.332 8.42969 25.9766 8.78516 25.9766 9.22656V17.418H10.0234V14.6836C10.0234 14.2422 9.66406 13.8867 9.22656 13.8867C8.78516 13.8867 8.42969 14.2422 8.42969 14.6836V26.7695C8.42969 27.2109 8.78516 27.5664 9.22656 27.5664C9.66797 27.5664 10.0234 27.2109 10.0234 26.7695V22.9414H25.9727V26.7695C25.9727 27.2109 26.332 27.5664 26.7695 27.5664C27.2109 27.5664 27.5664 27.2109 27.5664 26.7695V9.22656C27.5703 8.78516 27.2148 8.42969 26.7734 8.42969ZM25.9766 21.3477H10.0234V19.0156H25.9727V21.3477H25.9766Z"
        fill="black" />
    <path
        d="M23.6797 16.0234H20.7891C20.3477 16.0234 19.9922 15.668 19.9922 15.2266C19.9922 14.7852 20.3477 14.4297 20.7891 14.4297H23.6797C24.1211 14.4297 24.4766 14.7852 24.4766 15.2266C24.4805 15.668 24.1211 16.0234 23.6797 16.0234Z"
        fill="black" />
</svg>