<svg width="32" height="32" viewBox="0 0 32 32" fill="none" xmlns="http://www.w3.org/2000/svg">
<path d="M15.9998 14.6667C15.6462 14.6667 15.3071 14.8071 15.057 15.0572C14.807 15.3072 14.6665 15.6464 14.6665 16V20C14.6665 20.3536 14.807 20.6928 15.057 20.9428C15.3071 21.1928 15.6462 21.3333 15.9998 21.3333C16.3534 21.3333 16.6926 21.1928 16.9426 20.9428C17.1927 20.6928 17.3332 20.3536 17.3332 20V16C17.3332 15.6464 17.1927 15.3072 16.9426 15.0572C16.6926 14.8071 16.3534 14.6667 15.9998 14.6667ZM15.9998 10.6667C15.7361 10.6667 15.4783 10.7449 15.2591 10.8914C15.0398 11.0379 14.8689 11.2461 14.768 11.4897C14.6671 11.7334 14.6407 12.0015 14.6921 12.2601C14.7436 12.5188 14.8705 12.7563 15.057 12.9428C15.2435 13.1293 15.4811 13.2563 15.7397 13.3077C15.9983 13.3592 16.2664 13.3327 16.5101 13.2318C16.7537 13.1309 16.9619 12.96 17.1084 12.7408C17.255 12.5215 17.3332 12.2637 17.3332 12C17.3332 11.6464 17.1927 11.3072 16.9426 11.0572C16.6926 10.8071 16.3534 10.6667 15.9998 10.6667ZM15.9998 2.66666C14.2489 2.66666 12.515 3.01153 10.8974 3.6816C9.2797 4.35166 7.80985 5.33379 6.57173 6.5719C4.07125 9.07238 2.66649 12.4638 2.66649 16C2.65483 19.0788 3.72088 22.0647 5.67982 24.44L3.01315 27.1067C2.82814 27.2942 2.70282 27.5323 2.65298 27.7909C2.60315 28.0496 2.63105 28.3172 2.73315 28.56C2.8439 28.7999 3.02343 29.0015 3.24895 29.1392C3.47447 29.2769 3.73582 29.3444 3.99982 29.3333H15.9998C19.536 29.3333 22.9274 27.9286 25.4279 25.4281C27.9284 22.9276 29.3332 19.5362 29.3332 16C29.3332 12.4638 27.9284 9.07238 25.4279 6.5719C22.9274 4.07141 19.536 2.66666 15.9998 2.66666V2.66666ZM15.9998 26.6667H7.21315L8.45315 25.4267C8.57914 25.3032 8.67937 25.1559 8.74803 24.9934C8.81669 24.8309 8.85242 24.6564 8.85315 24.48C8.84814 24.1283 8.70437 23.7928 8.45315 23.5467C6.70727 21.8027 5.62005 19.5074 5.37674 17.0517C5.13343 14.5961 5.74908 12.132 7.11879 10.0794C8.4885 8.02671 10.5275 6.51247 12.8885 5.79462C15.2495 5.07677 17.7863 5.19973 20.0668 6.14254C22.3473 7.08535 24.2303 8.78969 25.3951 10.9652C26.5599 13.1407 26.9343 15.6527 26.4547 18.0733C25.975 20.494 24.6709 22.6734 22.7645 24.2403C20.8582 25.8072 18.4675 26.6647 15.9998 26.6667V26.6667Z" fill="#0D0D5D"/>
</svg>
