<svg width="40" height="40" viewBox="0 0 40 40" fill="none" xmlns="http://www.w3.org/2000/svg">
    <g clip-path="url(#clip0_42_3246)">
        <path
            d="M32.207 4.9934H37.7801V3.33331C37.7801 2.72068 37.2861 2.22003 36.6669 2.22003H3.33349C2.72086 2.22003 2.22021 2.71405 2.22021 3.33331V15.5995H6.9501L8.91976 10.3294C9.24258 9.39394 10.6589 9.31486 11.0212 10.4019L13.9725 20.3755L16.2056 14.2161C16.5614 13.2082 17.9843 13.2214 18.3268 14.3084L19.2228 17.7274L23.1358 6.76558C23.4982 5.82359 24.8617 5.70498 25.257 6.85118L28.5508 19.2029L29.1503 16.4691C29.2622 15.9553 29.7168 15.5929 30.2372 15.5929H37.78V11.6535H34.2359C33.6232 11.6535 33.1226 11.1595 33.1226 10.5402C33.1226 9.92098 33.6167 9.42695 34.2359 9.42695H37.78V7.19367H32.2069C31.5943 7.19367 31.0936 6.69965 31.0936 6.08039C31.0936 5.46113 31.5944 4.9934 32.207 4.9934Z"
            fill="white" />
        <path
            d="M36.6667 28.8537C37.2793 28.8537 37.7799 28.3597 37.7799 27.7405V17.8195H31.1331L29.7497 24.1634C29.5454 25.2108 27.9907 25.4413 27.5889 24.2096L24.0383 10.8763L20.1318 21.8644C19.73 22.8591 18.3598 22.8459 18.0106 21.7788L17.1016 18.3203L14.9277 24.3019C14.572 25.2834 13.1425 25.2834 12.8197 24.236L9.84208 14.2097L8.76171 17.1017C8.59704 17.5365 8.18862 17.8263 7.72089 17.8263H2.22021V27.7473C2.22021 28.3599 2.71424 28.8606 3.33349 28.8606H36.6668V28.8537H36.6667Z"
            fill="white" />
        <path
            d="M36.6667 0H3.33331C1.49541 0 0 1.49541 0 3.33332V27.7404C0 29.5783 1.49541 31.0737 3.33331 31.0737H13.8933C14.3808 31.5941 15.3755 32.7733 15.9091 34.2226C13.0172 35.0263 10.9882 36.6797 10.6786 38.7219C10.5732 39.4532 11.1463 40.0065 11.7787 39.9999H28.2214C28.9725 39.9999 29.4006 39.3609 29.3216 38.7219C29.0054 36.6732 26.983 35.0263 24.091 34.2226C24.6246 32.7733 25.6194 31.6007 26.1069 31.0737H36.6668C38.5047 31.0737 40.0001 29.5783 40.0001 27.7404V3.33332C40 1.49541 38.5046 0 36.6667 0ZM26.3175 37.7799H13.6825C14.8484 36.7456 17.1475 35.9156 20 35.9156C22.8524 35.9156 25.1514 36.7457 26.3175 37.7799ZM16.7391 31.0737H23.2608C22.7471 31.8247 22.2265 32.7535 21.8907 33.801C21.2847 33.7285 20.6522 33.689 20 33.689C19.3544 33.689 18.722 33.7285 18.1093 33.801C17.7733 32.747 17.2529 31.8181 16.7391 31.0737ZM37.7799 27.7404C37.7799 28.353 37.2859 28.8537 36.6667 28.8537H3.33331C2.72068 28.8537 2.22004 28.3596 2.22004 27.7404V17.8194H7.72722C8.19495 17.8194 8.60338 17.5296 8.76805 17.0948L9.84841 14.2159L12.8195 24.2423C13.1423 25.2897 14.5784 25.2897 14.9275 24.3081L17.1014 18.3266L18.0171 21.785C18.3662 22.8588 19.743 22.8654 20.1383 21.8706L24.0447 10.889L27.5954 24.2223C28.0038 25.4411 29.5452 25.2236 29.7561 24.1761L31.1395 17.8322H37.7864V27.7597H37.7797V27.7404H37.7799ZM37.7799 4.9934H32.2068C31.5942 4.9934 31.0935 5.48742 31.0935 6.10668C31.0935 6.72594 31.5876 7.21996 32.2068 7.21996H37.7799V9.44H34.2358C33.6232 9.44 33.1225 9.93402 33.1225 10.5533C33.1225 11.1725 33.6166 11.6666 34.2358 11.6666H37.7799V15.606H30.2372C29.7167 15.606 29.2622 15.9683 29.1502 16.4821L28.5507 19.216L25.2569 6.87747C24.8616 5.72465 23.498 5.84327 23.1357 6.79187L19.2358 17.7602L18.3399 14.3412C18.0039 13.2542 16.5745 13.241 16.2187 14.249L13.9855 20.4083L11.0409 10.4084C10.6785 9.32138 9.26217 9.40046 8.93945 10.3359L6.96979 15.606H2.22014V3.33332C2.22014 2.72068 2.71416 2.22004 3.33342 2.22004H36.6667C37.2793 2.22004 37.7799 2.71406 37.7799 3.33332V4.9934Z"
            fill="#0D0D5D" />
        <path
            d="M26.3177 37.7798C25.1517 36.7455 22.8526 35.9155 20.0001 35.9155C17.1477 35.9155 14.8486 36.7522 13.6826 37.7798H26.3177Z"
            fill="#C8EEE6" />
        <path
            d="M18.1094 33.7943C18.7154 33.7219 19.3479 33.6823 20.0001 33.6823C20.6457 33.6823 21.2781 33.7219 21.8908 33.7943C22.2268 32.7469 22.7472 31.818 23.261 31.067H16.7393C17.253 31.818 17.7735 32.747 18.1094 33.7943Z"
            fill="#C8EEE6" />
        <path
            d="M32.2067 4.99338H35.3885C35.1909 4.66403 34.8483 4.44005 34.4332 4.44005H5.54004C4.9274 4.44005 4.42676 4.93407 4.42676 5.55333V15.5994H6.94985L8.91952 10.3294C9.24234 9.39391 10.6587 9.31484 11.0209 10.4018L13.9722 20.3755L16.2054 14.2161C16.5611 13.2082 17.9841 13.2213 18.3266 14.3083L19.2225 17.7274L23.1356 6.76555C23.4979 5.82357 24.8615 5.70496 25.2568 6.85115L28.5505 19.2029L29.15 16.4691C29.262 15.9553 29.7166 15.5929 30.237 15.5929H35.5532V11.6535H34.2489C33.6363 11.6535 33.1356 11.1595 33.1356 10.5402C33.1356 9.92095 33.6296 9.42693 34.2489 9.42693H35.5532V7.19364H32.2068C31.5941 7.19364 31.0935 6.69962 31.0935 6.08036C31.0935 5.46111 31.594 4.99338 32.2067 4.99338Z"
            fill="#C8EEE6" />
        <path
            d="M5.54004 26.6271H34.4332C35.0459 26.6271 35.5465 26.1329 35.5465 25.5138V17.8195H31.1262L29.7428 24.1634C29.5386 25.2108 27.9839 25.4413 27.5821 24.2095L24.0314 10.8763L20.125 21.8578C19.7232 22.8526 18.3529 22.8394 18.0038 21.7722L17.0881 18.3138L14.9142 24.2953C14.5585 25.2769 13.129 25.2769 12.8062 24.2295L9.83511 14.2032L8.76136 17.1014C8.59669 17.5362 8.18827 17.826 7.72054 17.826H4.42676V25.5269C4.43328 26.133 4.9274 26.6271 5.54004 26.6271Z"
            fill="#C8EEE6" />
    </g>
    <defs>
        <clipPath id="clip0_42_3246">
            <rect width="40" height="40" fill="white" />
        </clipPath>
    </defs>
</svg>