<svg width="37" height="37" viewBox="0 0 37 37" fill="none" xmlns="http://www.w3.org/2000/svg">
    <rect width="37" height="37" rx="8" fill="#C8EEE6" />
    <path
        d="M28.036 13.1083L29 12.1443L23.8558 7L22.8918 7.964L24.9819 10.0541L23.0524 11.9836L19.9983 8.92941L19.0343 9.89342L20.159 11.0181L8.47693 22.7002L10.4063 24.6297L7 28.036L7.964 29L11.3703 25.5936L13.2998 27.5231L24.9819 15.841L26.1066 16.9657L27.0706 16.0017L24.0165 12.9475L25.9459 11.0181L28.036 13.1083ZM13.2998 25.5951L10.4049 22.7002L12.3615 20.7437L13.8089 22.1911L14.7729 21.2271L13.3255 19.7797L15.282 17.8232L16.7294 19.2706L17.6934 18.3066L16.246 16.8592L18.2025 14.9027L19.6499 16.3501L20.6139 15.3861L19.1665 13.9387L21.123 11.9821L24.0179 14.877L13.2998 25.5951Z"
        fill="black" />
</svg>