<svg width="40" height="40" viewBox="0 0 40 40" fill="none" xmlns="http://www.w3.org/2000/svg">
    <path d="M10 4L19 7L29 4V15.5C29 20.7467 24.7467 25 19.5 25C14.2533 25 10 20.7467 10 15.5V4Z" fill="#C8EEE6" />
    <path
        d="M19.123 12.4262C19.5029 12.8061 19.503 13.422 19.1232 13.8021L18.7513 14.1741C18.5613 14.3641 18.3122 14.4592 18.0633 14.4592C17.8144 14.4592 17.5655 14.3643 17.3755 14.1743C16.9956 13.7944 16.9955 13.1785 17.3753 12.7985L17.7472 12.4264C18.1271 12.0465 18.7429 12.0463 19.123 12.4262ZM10.8761 21.1909C9.82902 19.5002 9.2756 17.5568 9.2756 15.5706V3.42547C9.2757 0.0961998 18.9047 0 20.0026 0C21.1005 0 30.729 0.0961998 30.729 3.42547C30.729 6.75496 21.1005 6.85105 20.0026 6.85105C19.2194 6.85105 14.0948 6.80219 11.2213 5.56532V15.5704C11.2213 17.1944 11.674 18.7837 12.5302 20.1664C12.813 20.6232 12.6721 21.2227 12.2153 21.5056C12.0558 21.6044 11.8789 21.6516 11.7042 21.6516C11.3784 21.6517 11.0602 21.4881 10.8761 21.1909ZM11.329 3.42547C11.6114 3.63852 12.3366 4.00645 13.8404 4.33278C15.543 4.70212 17.7313 4.90554 20.0026 4.90554C22.2738 4.90554 24.4622 4.70212 26.1646 4.33278C27.6685 4.00645 28.3934 3.63852 28.6758 3.42547C28.3934 3.21253 27.6684 2.8446 26.1646 2.51827C24.4622 2.14904 22.2737 1.94561 20.0026 1.94561C17.7316 1.94561 15.5431 2.14904 13.8404 2.51838C12.3366 2.84449 11.6115 3.21264 11.329 3.42547ZM15.5683 9.2621L15.1963 8.89005C14.8164 8.51012 14.2006 8.51012 13.8204 8.88984C13.4405 9.26977 13.4404 9.88567 13.8202 10.2657L14.1922 10.6378C14.3822 10.8278 14.6312 10.9228 14.8802 10.9228C15.1291 10.9228 15.3779 10.8278 15.5679 10.638C15.948 10.258 15.9481 9.64214 15.5683 9.2621ZM29.7562 14.0787C29.2189 14.0787 28.7834 14.5142 28.7834 15.0515C28.7834 15.2442 28.781 15.8026 28.7778 15.8882C28.6107 20.555 24.6739 24.3517 20.0023 24.3517C19.7443 24.3517 19.4969 24.4542 19.3144 24.6367C19.132 24.8191 19.0295 25.0667 19.0295 25.3246L19.0297 35.7548C19.0297 36.2921 19.4652 36.7276 20.0025 36.7276C20.5398 36.7276 20.9753 36.2921 20.9753 35.7548L20.9751 26.2535C23.3951 26.0341 25.6619 24.9986 27.4412 23.2827C29.4573 21.3384 30.6226 18.737 30.7221 15.9592C30.7278 15.805 30.7289 15.0587 30.7289 15.0516C30.729 14.5142 30.2935 14.0787 29.7562 14.0787ZM39.3043 0.284924C38.9243 -0.0949028 38.3085 -0.0949028 37.9284 0.284924L0.696084 37.5175C0.316149 37.8974 0.316149 38.5134 0.696084 38.8934C0.886106 39.0833 1.13504 39.1783 1.38397 39.1783C1.6329 39.1783 1.88183 39.0833 2.07185 38.8934L39.3043 1.6608C39.6843 1.28086 39.6843 0.664752 39.3043 0.284924ZM24.4597 34.0958C23.928 34.0173 23.4333 34.3835 23.3542 34.9148C23.2752 35.4462 23.6418 35.9411 24.1732 36.0204C25.9716 36.2881 26.9137 36.6622 27.32 36.8998C26.522 37.3749 24.0028 38.0544 20.0025 38.0544C16.0019 38.0544 13.4828 37.3749 12.685 36.8998C13.0913 36.6622 14.0333 36.2881 15.8319 36.0204C16.3633 35.9412 16.73 35.4463 16.6509 34.9148C16.5719 34.3835 16.0769 34.0168 15.5453 34.0958C12.2298 34.5892 10.5487 35.5308 10.5487 36.8945C10.5487 39.8503 18.4237 39.9999 20.0024 39.9999C21.581 39.9999 29.4561 39.8502 29.4561 36.8945C29.4563 35.531 27.7752 34.5895 24.4597 34.0958ZM13.8204 15.9628C13.4405 16.3427 13.4404 16.9586 13.8202 17.3387L14.1922 17.7107C14.3822 17.9007 14.6312 17.9957 14.8802 17.9957C15.1291 17.9957 15.3779 17.9007 15.5679 17.7109C15.9479 17.331 15.948 16.7151 15.5681 16.3351L15.1962 15.963C14.8164 15.5831 14.2006 15.5831 13.8204 15.9628Z"
        fill="#0D0D5D" />
</svg>