<svg width="40" height="40" viewBox="0 0 40 40" fill="none" xmlns="http://www.w3.org/2000/svg">
<path d="M0 6.25C0 2.79823 2.79823 0 6.25 0H33.75C37.2017 0 40 2.79823 40 6.25V33.75C40 37.2017 37.2017 40 33.75 40H6.25C2.79823 40 0 37.2017 0 33.75V6.25Z" fill="white"/>
<path fill-rule="evenodd" clip-rule="evenodd" d="M26.0953 14.3379C26.0953 17.6744 23.3753 20.3943 20.0387 20.3943C16.6659 20.3943 13.9459 17.6744 13.9459 14.3379C13.9459 11.0013 16.6659 8.28125 20.0387 8.28125C23.3753 8.28125 26.0953 11.0013 26.0953 14.3379ZM22.5412 14.3379C22.5412 12.9597 21.4168 11.8354 20.0387 11.8354C18.6244 11.8354 17.5 12.9597 17.5364 14.3379C17.5364 15.716 18.6607 16.8401 20.0387 16.8401C21.4168 16.8401 22.5412 15.716 22.5412 14.3379Z" fill="#0D0D5D"/>
<path d="M25.9865 23.9122C24.8985 24.6013 23.7017 25.0728 22.4687 25.3629L25.914 28.6994C26.6031 29.3886 26.6031 30.5128 25.914 31.202C25.2251 31.891 24.1007 31.891 23.4117 31.202L20.0751 27.8653L16.7385 31.202C16.3759 31.5284 15.9407 31.7096 15.4692 31.7096C14.9977 31.7096 14.5625 31.5646 14.1999 31.202C13.5108 30.5128 13.5108 29.3886 14.1999 28.6994L17.5727 25.3266C16.3396 25.0365 15.1428 24.5652 14.0548 23.876C13.2206 23.3682 12.9667 22.2802 13.4383 21.4461C13.9823 20.612 15.0703 20.3945 15.9044 20.9021C18.3705 22.4617 21.5981 22.4617 24.0644 20.9021C24.8985 20.3581 26.0228 20.612 26.5305 21.4461C27.0745 22.2802 26.8207 23.4045 25.9865 23.9122Z" fill="#0D0D5D"/>
</svg>
