<svg width="30" height="30" viewBox="0 0 30 30" fill="none" xmlns="http://www.w3.org/2000/svg">
    <path
        d="M0 4.6875C0 2.09867 2.09867 0 4.6875 0H25.3125C27.9013 0 30 2.09867 30 4.6875V25.3125C30 27.9013 27.9013 30 25.3125 30H4.6875C2.09867 30 0 27.9013 0 25.3125V4.6875Z"
        fill="#FFBC70" />
    <path fill-rule="evenodd" clip-rule="evenodd"
        d="M19.5715 10.7534C19.5715 13.2558 17.5315 15.2957 15.029 15.2957C12.4994 15.2957 10.4594 13.2558 10.4594 10.7534C10.4594 8.25095 12.4994 6.21094 15.029 6.21094C17.5315 6.21094 19.5715 8.25095 19.5715 10.7534ZM16.9059 10.7534C16.9059 9.71976 16.0626 8.87655 15.029 8.87655C13.9683 8.87655 13.125 9.71976 13.1523 10.7534C13.1523 11.787 13.9955 12.6301 15.029 12.6301C16.0626 12.6301 16.9059 11.787 16.9059 10.7534Z"
        fill="white" />
    <path
        d="M19.4899 17.9342C18.6739 18.451 17.7763 18.8046 16.8515 19.0222L19.4355 21.5246C19.9523 22.0415 19.9523 22.8846 19.4355 23.4015C18.9188 23.9183 18.0755 23.9183 17.5588 23.4015L15.0563 20.899L12.5539 23.4015C12.2819 23.6463 11.9555 23.7822 11.6019 23.7822C11.2483 23.7822 10.9219 23.6735 10.6499 23.4015C10.1331 22.8846 10.1331 22.0415 10.6499 21.5246L13.1795 18.995C12.2547 18.7774 11.3571 18.4239 10.5411 17.907C9.91545 17.5262 9.72505 16.7102 10.0787 16.0846C10.4867 15.459 11.3027 15.2959 11.9283 15.6766C13.7779 16.8463 16.1986 16.8463 18.0483 15.6766C18.6739 15.2686 19.5171 15.459 19.8979 16.0846C20.3059 16.7102 20.1155 17.5534 19.4899 17.9342Z"
        fill="white" />
</svg>