<svg width="37" height="37" viewBox="0 0 37 37" fill="none" xmlns="http://www.w3.org/2000/svg">
    <rect width="37" height="37" rx="8" fill="#C8EEE6" />
    <path
        d="M28.9624 14.2331C28.9624 12.2681 27.5395 10.629 25.6699 10.2924C25.3332 8.4229 23.6943 7 21.7293 7C20.4051 7 19.2296 7.64656 18.5002 8.64012C17.7709 7.64656 16.5953 7 15.2712 7C13.3062 7 11.6672 8.4229 11.3305 10.2923C9.46099 10.629 8.03809 12.2681 8.03809 14.233C8.03809 14.8627 8.26623 15.9729 8.88297 16.619C8.35374 17.2979 8.03809 18.1511 8.03809 19.0765C8.03809 20.4756 8.76882 21.7526 9.92223 22.4733C9.7445 22.9314 9.65258 23.4205 9.65258 23.9201C9.65258 25.3047 10.3807 26.5939 11.5404 27.3189C11.7894 28.8344 13.1167 30 14.6945 30C15.8936 30 17.6031 28.7055 18.5002 27.9484C19.3974 28.7055 21.1068 30 22.3059 30C23.8837 30 25.211 28.8344 25.4601 27.319C26.6198 26.594 27.3479 25.3047 27.3479 23.9202C27.3479 23.4205 27.2559 22.9315 27.0782 22.4734C28.2317 21.7527 28.9624 20.4757 28.9624 19.0766C28.9624 18.1511 28.6467 17.298 28.1175 16.6191C28.7341 15.973 28.9624 14.8627 28.9624 14.2331ZM17.7252 26.5713C16.6498 27.5133 15.2632 28.45 14.6945 28.45C13.7997 28.45 13.0613 27.7221 13.0484 26.8272C13.0484 26.8238 13.0477 26.8203 13.0476 26.8169C13.0804 25.9502 13.7933 25.245 14.6672 25.2324C15.0951 25.2263 15.4371 24.8744 15.431 24.4464C15.425 24.0222 15.0792 23.6825 14.6564 23.6825C14.6526 23.6825 14.6488 23.6825 14.645 23.6826C13.3917 23.7006 12.3073 24.4519 11.8002 25.5214C11.423 25.0826 11.2024 24.5159 11.2024 23.9201C11.2024 23.4314 11.3457 22.9595 11.6168 22.5554C11.7504 22.3562 11.7843 22.1064 11.7085 21.8789C11.6327 21.6514 11.4559 21.4717 11.2297 21.3923C10.2477 21.0479 9.58791 20.1173 9.58791 19.0765C9.58791 17.7233 10.6888 16.6224 12.042 16.6224C13.3952 16.6224 14.4961 17.7233 14.4961 19.0765C14.4961 19.5045 14.8431 19.8515 15.271 19.8515C15.6989 19.8515 16.046 19.5045 16.046 19.0765C16.046 16.8687 14.2497 15.0725 12.042 15.0725C11.321 15.0725 10.6437 15.2643 10.0587 15.5992C9.8406 15.4137 9.58799 14.7107 9.58799 14.233C9.58799 12.8798 10.6889 11.7789 12.0421 11.7789C12.47 11.7789 12.8171 11.4319 12.8171 11.0039C12.8171 9.65073 13.9179 8.54991 15.2711 8.54991C16.6243 8.54991 17.7252 9.65073 17.7252 11.0039V26.5713ZM21.7294 19.8515C22.1573 19.8515 22.5043 19.5045 22.5043 19.0765C22.5043 17.7233 23.6051 16.6224 24.9583 16.6224C26.3115 16.6224 27.4125 17.7233 27.4125 19.0765C27.4125 20.1173 26.7527 21.048 25.7707 21.3923C25.5444 21.4717 25.3676 21.6514 25.2919 21.8789C25.2161 22.1064 25.2501 22.3562 25.3836 22.5554C25.6547 22.9596 25.798 23.4314 25.798 23.9201C25.798 24.516 25.5774 25.0826 25.2002 25.5215C24.6932 24.452 23.6087 23.7006 22.3554 23.6827C22.3516 23.6826 22.3478 23.6826 22.344 23.6826C21.9212 23.6826 21.5754 24.0223 21.5694 24.4465C21.5632 24.8744 21.9052 25.2264 22.3332 25.2325C23.2074 25.245 23.9204 25.9505 23.9528 26.8174C23.9528 26.8207 23.9521 26.824 23.952 26.8273C23.9392 27.7221 23.2008 28.4501 22.306 28.4501C21.7373 28.4501 20.3506 27.5132 19.2753 26.5714V11.0039C19.2753 9.65073 20.3762 8.54991 21.7294 8.54991C23.0826 8.54991 24.1834 9.65073 24.1834 11.0039C24.1834 11.4319 24.5304 11.7789 24.9583 11.7789C26.3115 11.7789 27.4125 12.8798 27.4125 14.233C27.4124 14.7107 27.1598 15.4137 26.9418 15.5992C26.3568 15.2643 25.6794 15.0725 24.9583 15.0725C22.7506 15.0725 20.9544 16.8688 20.9544 19.0765C20.9544 19.5045 21.3014 19.8515 21.7294 19.8515Z"
        fill="black" />
</svg>