<svg width="36" height="36" viewBox="0 0 36 36" fill="none" xmlns="http://www.w3.org/2000/svg">
    <rect width="36" height="36" rx="8" fill="#C8EEE6" />
    <path
        d="M19.1076 6C17.5686 6 16.089 6.33155 14.7084 6.98474C12.9567 7.80124 11.4721 9.08783 10.4132 10.7109C9.32944 12.3786 8.75542 14.3134 8.75542 16.3126V17.7476L6.87006 21.3501C6.52367 22.0132 6.50882 22.6961 6.82552 23.2206C7.14222 23.7452 7.75583 24.047 8.50305 24.047H8.75542V26.9419C8.75542 28.4264 9.96284 29.6338 11.4474 29.6338C11.482 29.6338 11.5216 29.6289 11.5562 29.6239L19.9934 28.2186C21.3294 28.0355 22.329 26.8825 22.3241 25.5365V20.6029C24.3084 20.2812 25.8325 18.5542 25.8325 16.4759C25.8325 14.1699 23.9571 12.2944 21.6511 12.2944C19.3451 12.2944 17.4696 14.1699 17.4696 16.4759C17.4696 18.5592 18.9987 20.2862 20.9929 20.6078V25.5464C20.9979 26.2293 20.4882 26.8132 19.8152 26.9023C19.8053 26.9023 19.8004 26.9023 19.7905 26.9072L11.3979 28.2928C10.6754 28.268 10.0915 27.6693 10.0915 26.9369V23.374C10.0915 23.0029 9.7946 22.706 9.42346 22.706H8.4981C8.23583 22.706 8.03295 22.6367 7.96367 22.5229C7.89439 22.4091 7.92903 22.1963 8.04779 21.9637L10.0123 18.2177C10.0618 18.1237 10.0866 18.0148 10.0866 17.906V16.3076C10.0866 12.8388 12.1204 9.65196 15.2676 8.19216H15.2725C16.475 7.62309 17.7616 7.33608 19.1026 7.33608C24.0461 7.33608 28.0643 11.3592 28.0643 16.2977C28.0643 18.8017 27.0053 21.2066 25.1595 22.9039C25.021 23.0326 24.9418 23.2107 24.9418 23.3938V26.4718V29.332C24.9418 29.7031 25.2387 30 25.6098 30C25.981 30 26.2779 29.7031 26.2779 29.332V26.4718V23.6858C27.2181 22.7753 27.9653 21.7113 28.4997 20.5138C29.0985 19.1827 29.4004 17.7674 29.4004 16.2977C29.4053 10.6219 24.7835 6 19.1076 6ZM18.8008 16.4709C18.8008 14.9023 20.0775 13.6256 21.6462 13.6256C23.2148 13.6256 24.4916 14.9023 24.4916 16.4709C24.4916 18.0396 23.2148 19.3163 21.6462 19.3163C20.0775 19.3163 18.8008 18.0396 18.8008 16.4709Z"
        fill="black" />
</svg>