<svg width="17" height="17" viewBox="0 0 17 17" fill="none" xmlns="http://www.w3.org/2000/svg">
<path d="M15.5458 6.5018C15.5013 6.37066 15.4193 6.25544 15.3101 6.17034C15.2008 6.08525 15.069 6.03402 14.931 6.02297L10.8928 5.70209L9.1453 1.83389C9.08965 1.7093 8.99913 1.60348 8.88467 1.5292C8.7702 1.45492 8.63669 1.41536 8.50024 1.41528C8.36379 1.41521 8.23023 1.45463 8.11568 1.52878C8.00114 1.60293 7.9105 1.70865 7.85472 1.83318L6.10726 5.70209L2.06905 6.02297C1.93337 6.03372 1.80366 6.08333 1.69544 6.16586C1.58722 6.2484 1.50507 6.36036 1.45882 6.48836C1.41256 6.61637 1.40416 6.75498 1.43463 6.88763C1.46509 7.02028 1.53313 7.14135 1.63059 7.23634L4.6148 10.1455L3.55938 14.7156C3.52734 14.854 3.53761 14.9987 3.58886 15.1312C3.64012 15.2636 3.73 15.3776 3.84683 15.4583C3.96366 15.539 4.10205 15.5827 4.24405 15.5838C4.38604 15.5849 4.52509 15.5433 4.64313 15.4643L8.50001 12.8931L12.3569 15.4643C12.4775 15.5445 12.6198 15.5857 12.7646 15.5825C12.9094 15.5793 13.0498 15.5319 13.1668 15.4466C13.2838 15.3613 13.3719 15.2422 13.4192 15.1053C13.4665 14.9684 13.4708 14.8203 13.4314 14.6809L12.1359 10.1476L15.3489 7.25618C15.5593 7.06634 15.6365 6.77026 15.5458 6.5018V6.5018Z" fill="#FFAE59"/>
</svg>
