<svg width="30" height="30" viewBox="0 0 30 30" fill="none" xmlns="http://www.w3.org/2000/svg">
    <path
        d="M0 4.6875C0 2.09867 2.09867 0 4.6875 0H25.3125C27.9013 0 30 2.09867 30 4.6875V25.3125C30 27.9013 27.9013 30 25.3125 30H4.6875C2.09867 30 0 27.9013 0 25.3125V4.6875Z"
        fill="#83BCFD" />
    <path
        d="M15.7199 19.9576C10.5899 19.9576 7.66492 16.4476 7.54492 10.5976H10.1249C10.2074 14.8876 12.0974 16.7026 13.5974 17.0776V10.5976H16.0199V14.2951C17.4974 14.1376 19.0574 12.4501 19.5824 10.5901H21.9974C21.8005 11.5529 21.4072 12.4648 20.8419 13.2687C20.2767 14.0727 19.5518 14.7514 18.7124 15.2626C19.6491 15.7288 20.4763 16.3883 21.1395 17.1976C21.8027 18.0069 22.2868 18.9475 22.5599 19.9576H19.8974C19.3274 18.1801 17.9024 16.8001 16.0199 16.6126V19.9576H15.7274H15.7199Z"
        fill="white" />
</svg>