<svg width="24" height="24" viewBox="0 0 24 24" fill="none" xmlns="http://www.w3.org/2000/svg">
<path d="M22.2647 2.42778C21.9799 2.19091 21.6363 2.03567 21.2704 1.97858C20.9044 1.92149 20.5299 1.96469 20.1865 2.10357L2.26562 9.33892C1.88237 9.4966 1.55614 9.76711 1.33022 10.1145C1.10431 10.462 0.989389 10.8699 1.00073 11.2841C1.01206 11.6984 1.14912 12.0994 1.3937 12.434C1.63828 12.7685 1.97882 13.0208 2.37012 13.1573L5.99512 14.418L8.01562 21.0997C8.04308 21.1889 8.08293 21.2739 8.134 21.352C8.14175 21.364 8.15268 21.373 8.16092 21.3846C8.21993 21.467 8.29124 21.5397 8.37235 21.6004C8.39542 21.618 8.41751 21.6345 8.44217 21.6501C8.53711 21.7131 8.64224 21.7591 8.7529 21.7862L8.76474 21.7872L8.77145 21.7901C8.83799 21.8036 8.9057 21.8105 8.9736 21.8106C8.98013 21.8106 8.98593 21.8074 8.9924 21.8073C9.09486 21.8055 9.19643 21.7879 9.29349 21.755C9.31607 21.7473 9.33542 21.7345 9.35733 21.7252C9.42971 21.6952 9.49828 21.6567 9.56162 21.6106C9.61234 21.5679 9.66308 21.5251 9.71384 21.4824L12.416 18.4991L16.4463 21.6211C16.8011 21.8974 17.2378 22.0475 17.6875 22.0479C18.1587 22.0473 18.6153 21.8847 18.9809 21.5874C19.3464 21.2901 19.5987 20.8762 19.6953 20.4151L22.958 4.39849C23.0319 4.03801 23.0065 3.66421 22.8843 3.31708C22.7622 2.96995 22.548 2.66255 22.2647 2.42778ZM9.37012 14.7364C9.23146 14.8745 9.13668 15.0505 9.09766 15.2422L8.78815 16.7462L8.00409 14.1532L12.0693 12.0362L9.37012 14.7364ZM17.6719 20.0401L12.9092 16.3506C12.7099 16.1966 12.46 16.1234 12.2091 16.1455C11.9583 16.1675 11.725 16.2833 11.5557 16.4697L10.6903 17.4249L10.9961 15.9385L18.0791 8.85549C18.2482 8.68665 18.3512 8.46285 18.3695 8.22461C18.3877 7.98638 18.3201 7.74947 18.1788 7.55681C18.0375 7.36414 17.8318 7.22845 17.5991 7.17433C17.3664 7.1202 17.122 7.15121 16.9102 7.26174L6.74487 12.5544L3.02051 11.1915L20.999 3.99905L17.6719 20.0401Z" fill="black"/>
</svg>
