<svg width="40" height="40" viewBox="0 0 40 40" fill="none" xmlns="http://www.w3.org/2000/svg">
<rect width="40" height="40" rx="10" fill="white"/>
<path d="M20.35 12.4167C22.9167 12.4167 23.2667 12.4167 24.3167 12.4167C24.7733 12.4167 25.1183 12.4726 25.3925 12.5433C25.8507 12.6615 26.2892 12.8532 26.705 13.0791C26.8903 13.1797 27.0618 13.2952 27.2333 13.4667C27.5833 13.8167 27.8167 14.1667 27.9333 14.6334C28.05 14.9834 28.1667 15.4501 28.2833 16.3834C28.2833 17.4334 28.2833 17.6667 28.2833 20.3501C28.2833 23.0334 28.2833 23.2667 28.2833 24.3167C28.2833 24.7734 28.2275 25.1184 28.1567 25.3926C28.0386 25.8508 27.8469 26.2893 27.621 26.705C27.5204 26.8903 27.4049 27.0619 27.2333 27.2334C26.8833 27.5834 26.5333 27.8167 26.0667 27.9334C25.7167 28.0501 25.25 28.1667 24.3167 28.2834C23.2667 28.2834 23.0333 28.2834 20.35 28.2834C17.6667 28.2834 17.4333 28.2834 16.3833 28.2834C15.9266 28.2834 15.5817 28.2275 15.3075 28.1568C14.8493 28.0386 14.4108 27.847 13.995 27.6211C13.8098 27.5204 13.6382 27.405 13.4667 27.2334C13.1167 26.8834 12.8833 26.5334 12.7667 26.0667C12.65 25.7167 12.5333 25.2501 12.4167 24.3167C12.4167 23.2667 12.4167 23.0334 12.4167 20.3501C12.4167 17.6667 12.4167 17.4334 12.4167 16.3834C12.4167 15.9267 12.4725 15.5818 12.5433 15.3076C12.6614 14.8494 12.8531 14.4109 13.079 13.9951C13.1796 13.8098 13.2951 13.6383 13.4667 13.4667C13.8167 13.1167 14.1667 12.8834 14.6333 12.7667C14.9833 12.6501 15.45 12.5334 16.3833 12.4167C17.4333 12.4167 17.7833 12.4167 20.35 12.4167ZM20.35 10.6667C17.6667 10.6667 17.4333 10.6667 16.3833 10.6667C15.3333 10.6667 14.6333 10.9001 14.05 11.1334C13.4667 11.3667 12.8833 11.7167 12.3 12.3001C11.7167 12.8834 11.4833 13.3501 11.1333 14.0501C10.9 14.6334 10.7833 15.3334 10.6667 16.3834C10.6667 17.4334 10.6667 17.7834 10.6667 20.3501C10.6667 23.0334 10.6667 23.2667 10.6667 24.3167C10.6667 25.3667 10.9 26.0667 11.1333 26.6501C11.3667 27.2334 11.7167 27.8167 12.3 28.4001C12.8833 28.9834 13.35 29.2167 14.05 29.5667C14.6333 29.8001 15.3333 29.9167 16.3833 30.0334C17.4333 30.0334 17.7833 30.0334 20.35 30.0334C22.9167 30.0334 23.2667 30.0334 24.3167 30.0334C25.3667 30.0334 26.0667 29.8001 26.65 29.5667C27.2333 29.3334 27.8167 28.9834 28.4 28.4001C28.9833 27.8167 29.2167 27.3501 29.5667 26.6501C29.8 26.0667 29.9167 25.3667 30.0333 24.3167C30.0333 23.2667 30.0333 22.9167 30.0333 20.3501C30.0333 17.7834 30.0333 17.4334 30.0333 16.3834C30.0333 15.3334 29.8 14.6334 29.5667 14.0501C29.3333 13.4667 28.9833 12.8834 28.4 12.3001C27.8167 11.7167 27.35 11.4834 26.65 11.1334C26.0667 10.9001 25.3667 10.7834 24.3167 10.6667C23.2667 10.6667 23.0333 10.6667 20.35 10.6667Z" fill="#0D0D5D"/>
<path d="M20.35 15.3334C17.55 15.3334 15.3333 17.5501 15.3333 20.3501C15.3333 23.1501 17.55 25.3667 20.35 25.3667C23.15 25.3667 25.3667 23.1501 25.3667 20.3501C25.3667 17.5501 23.15 15.3334 20.35 15.3334ZM20.35 23.6167C18.6 23.6167 17.0833 22.2167 17.0833 20.3501C17.0833 18.6001 18.4833 17.0834 20.35 17.0834C22.1 17.0834 23.6167 18.4834 23.6167 20.3501C23.6167 22.1001 22.1 23.6167 20.35 23.6167Z" fill="#0D0D5D"/>
<path d="M25.4833 16.3834C26.1277 16.3834 26.65 15.8611 26.65 15.2167C26.65 14.5724 26.1277 14.0501 25.4833 14.0501C24.839 14.0501 24.3167 14.5724 24.3167 15.2167C24.3167 15.8611 24.839 16.3834 25.4833 16.3834Z" fill="#0D0D5D"/>
</svg>
