<svg version="1.1" id="Layer_1" xmlns="http://www.w3.org/2000/svg" xmlns:xlink="http://www.w3.org/1999/xlink" x="0px" y="0px"
	viewBox="0 0 512 512" style="enable-background:new 0 0 512 512;" xml:space="preserve">
<g>
	<path d="M357.1,324.5c-24.1,15.3-57.2,21.4-79.1,23.6l18.4,18.1l67,67c24.5,25.1-15.4,64.4-40.2,40.2c-16.8-17-41.4-41.6-67-67.3
		l-67,67.2c-24.8,24.2-64.7-15.5-39.9-40.2c17-17,41.4-41.6,67-67l18.1-18.1c-21.6-2.3-55.3-8-79.6-23.6
		c-28.6-18.5-41.2-29.3-30.1-51.8c6.5-12.8,24.3-23.6,48-5c0,0,31.9,25.4,83.4,25.4s83.4-25.4,83.4-25.4c23.6-18.5,41.4-7.8,48,5
		C398.3,295.1,385.7,305.9,357.1,324.5L357.1,324.5z M142,145c0-63,51.2-114,114-114s114,51,114,114c0,62.7-51.2,113.7-114,113.7
		S142,207.7,142,145L142,145z M200,145c0,30.8,25.1,56,56,56s56-25.1,56-56c0-31.1-25.1-56.2-56-56.2S200,113.9,200,145z"/>
</g>
</svg>
