<svg width="40" height="40" viewBox="0 0 40 40" fill="none" xmlns="http://www.w3.org/2000/svg">
<rect width="40" height="40" rx="10" fill="white"/>
<path d="M20.84 26.3241C14.456 26.3241 10.816 21.9561 10.6667 14.6761H13.8773C13.98 20.0147 16.332 22.2734 18.1987 22.7401V14.6761H21.2133V19.2774C23.052 19.0814 24.9933 16.9814 25.6467 14.6667H28.652C28.407 15.8649 27.9174 16.9997 27.2141 18.0002C26.5107 19.0006 25.6085 19.8453 24.564 20.4814C25.7297 21.0616 26.7591 21.8823 27.5844 22.8894C28.4097 23.8965 29.0122 25.0671 29.352 26.3241H26.0387C25.3293 24.1121 23.556 22.3947 21.2133 22.1614V26.3241H20.8493H20.84Z" fill="#0D0D5D"/>
</svg>
