<svg style="display: none;" aria-hidden="true" xmlns="http://www.w3.org/2000/svg" xmlns:xlink="http://www.w3.org/1999/xlink"><symbol viewBox="0 0 40 40" fill="none" id="svg-24h-doctor"><g clip-path="url(#aaclip0_42_3292)"><path d="M29.9555 27.6765C28.3879 27.0969 26.7742 26.6556 25.1275 26.3526L20.9451 33.1104C20.5039 33.802 19.4961 33.8613 19.0548 33.1104L14.8657 26.3526C13.2257 26.649 11.6054 27.0903 10.0378 27.6765C9.32643 27.9334 8.73366 28.3748 8.25287 28.9148H11.9084C12.5209 28.9148 13.0215 29.4088 13.0215 30.0279C13.0215 30.6471 12.5276 31.141 11.9084 31.141H7.22535C7.19244 31.3386 7.1792 31.5428 7.1792 31.7404V33.3607H9.66887C10.2814 33.3607 10.782 33.8548 10.782 34.4738C10.782 35.0864 10.288 35.5869 9.66887 35.5869H7.1793V37.7737H32.8272V31.7536C32.8272 29.9424 31.668 28.3088 29.9555 27.6765Z" fill="#fff"/><path d="M22.0516 35.5409L26.201 28.849C27.2088 29.0927 28.2099 29.4022 29.1848 29.7514C30.0476 30.0741 30.6075 30.8447 30.6075 31.7339V35.5344H22.0516V35.5409ZM9.39893 35.5409V31.7405C9.39893 30.8578 9.95879 30.0806 10.815 29.7645C11.7899 29.4022 12.791 29.1058 13.7987 28.849L17.9482 35.5409H9.39893Z" fill="#C8EEE6"/><path d="M30.7261 25.5887C28.7963 24.8708 26.7808 24.3504 24.7522 24.0277C24.3043 23.9553 23.8696 24.1595 23.6325 24.5415L20.0033 30.4167L16.3675 24.5481C16.1305 24.1726 15.6957 23.9685 15.2478 24.0344C13.2192 24.3505 11.2103 24.8775 9.27388 25.5954C6.692 26.5504 4.95312 29.0203 4.95312 31.7472V38.887C4.95312 39.4995 5.44707 40.0001 6.06622 40.0001H33.9338C34.5463 40.0001 35.0469 39.5061 35.0469 38.887V31.7538C35.0469 29.0202 33.3146 26.5503 30.7261 25.5887ZM32.8272 37.7672H7.17932V35.5804H9.66899C10.2815 35.5804 10.7821 35.0865 10.7821 34.4673C10.7821 33.8548 10.2881 33.3542 9.66899 33.3542H7.17932V31.7339C7.17932 31.5298 7.19246 31.3322 7.22547 31.1345H11.9085C12.5211 31.1345 13.0216 30.6406 13.0216 30.0214C13.0216 29.4089 12.5277 28.9084 11.9085 28.9084H8.25289C8.72716 28.3683 9.33307 27.9335 10.0378 27.67C11.6054 27.0904 13.2257 26.6492 14.8658 26.3461L19.0548 33.1039C19.496 33.8548 20.5038 33.7955 20.9451 33.1039L25.1276 26.3461C26.7677 26.6425 28.388 27.0838 29.9556 27.67C31.6747 28.309 32.8273 29.9358 32.8273 31.7406V37.7672H32.8272Z" fill="#0D0D5D"/><path d="M26.0364 15.0041C26.0364 14.3454 25.931 13.7066 25.7269 13.1006H14.2729C14.0687 13.7065 13.9634 14.3454 13.9634 15.0041C13.9634 18.3369 16.6705 21.044 20.0032 21.044C23.3228 21.0439 26.0364 18.3369 26.0364 15.0041Z" fill="#fff"/><path d="M11.6519 2.2131C11.6519 2.2131 13.5158 10.8744 13.5225 10.8744C13.5225 10.8744 26.4914 10.8744 26.498 10.8744H26.7351L28.5859 2.2131C28.5858 2.2131 11.6519 2.2131 11.6519 2.2131Z" fill="#C8EEE6"/><path d="M30.7261 25.5887C28.7963 24.8708 26.7808 24.3504 24.7522 24.0277 24.3043 23.9553 23.8696 24.1595 23.6325 24.5415L20.0033 30.4167 16.3675 24.5481C16.1305 24.1726 15.6957 23.9685 15.2478 24.0344 13.2192 24.3505 11.2103 24.8775 9.27388 25.5954 6.692 26.5504 4.95312 29.0203 4.95312 31.7472V38.887C4.95312 39.4995 5.44707 40.0001 6.06622 40.0001H33.9338C34.5463 40.0001 35.0469 39.5061 35.0469 38.887V31.7538C35.0469 29.0202 33.3146 26.5503 30.7261 25.5887zM32.8272 37.7672H7.17932V35.5804H9.66899C10.2815 35.5804 10.7821 35.0865 10.7821 34.4673 10.7821 33.8548 10.2881 33.3542 9.66899 33.3542H7.17932C7.17932 33.3542 7.19246 31.3322 7.22547 31.1345H11.9085C12.5211 31.1345 13.0216 30.6406 13.0216 30.0214 13.0216 29.4089 12.5277 28.9084 11.9085 28.9084H8.25289C8.72716 28.3683 9.33307 27.9335 10.0378 27.67 11.6054 27.0904 13.2257 26.6492 14.8658 26.3461L19.0548 33.1039C19.496 33.8548 20.5038 33.7955 20.9451 33.1039L25.1276 26.3461C26.7677 26.6425 28.388 27.0838 29.9556 27.67 31.6747 28.309 32.8273 29.9358 32.8273 31.7406V37.7672H32.8272zM11.5265 12.2246C11.5923 12.521 11.7768 12.7778 12.0204 12.936 11.8492 13.6078 11.7438 14.2994 11.7438 15.0173 11.7438 19.5686 15.452 23.2768 20.0034 23.2768 24.5547 23.2768 28.2629 19.5686 28.2629 15.0173 28.2629 14.3388 28.1773 13.6868 28.0192 13.0413 28.3683 12.9162 28.6384 12.6132 28.7174 12.2311L31.0491 1.34356C31.2005.691598 30.6736 0 29.9556 0H10.2817C9.60332 0 9.04346.638923 9.19486 1.34366L11.5265 12.2246zM20.0034 21.0439C16.6706 21.0439 13.9635 18.3368 13.9635 15.004 13.9635 14.3454 14.0689 13.7065 14.273 13.1005H25.7336C25.9378 13.7064 26.0431 14.3454 26.0431 15.004 26.0366 18.3369 23.323 21.0439 20.0034 21.0439zM28.5659 2.21967L26.7217 10.8809H26.4846C26.478 10.8809 13.5091 10.8809 13.5091 10.8809 13.5025 10.8809 11.6385 2.21967 11.6385 2.21967H28.5659z" fill="#0D0D5D"/><path d="M18.3831 7.66015H19.0154V8.29245C19.0154 8.90499 19.5094 9.40555 20.1285 9.40555C20.7477 9.40555 21.2416 8.91161 21.2416 8.29245V7.66015H21.8739C22.4865 7.66015 22.987 7.16621 22.987 6.54705C22.987 5.92789 22.4931 5.43395 21.8739 5.43395H21.2416V4.80165C21.2416 4.18912 20.7477 3.68855 20.1285 3.68855C19.516 3.68855 19.0154 4.18249 19.0154 4.80165V5.43395H18.3831C17.7706 5.43395 17.27 5.92789 17.27 6.54705C17.27 7.16611 17.7706 7.66015 18.3831 7.66015Z" fill="#0D0D5D"/></g><defs><clipPath id="aaclip0_42_3292"><path fill="#fff" d="M0 0H40V40H0z"/></clipPath></defs></symbol><symbol viewBox="0 0 40 40" fill="none" id="svg-anonymous"><path d="M20 18.3333C23.6819 18.3333 26.6667 15.3486 26.6667 11.6667C26.6667 7.98477 23.6819 5 20 5C16.3181 5 13.3334 7.98477 13.3334 11.6667C13.3334 15.3486 16.3181 18.3333 20 18.3333Z" fill="#C8EEE6"/><path d="M32.0833 35C32.0833 35.6903 32.643 36.25 33.3333 36.25C34.0237 36.25 34.5833 35.6903 34.5833 35H32.0833ZM5.41669 35C5.41669 35.6903 5.97634 36.25 6.66669 36.25C7.35704 36.25 7.91669 35.6903 7.91669 35H5.41669ZM36.25 21.6667C36.25 20.9763 35.6903 20.4167 35 20.4167C34.3097 20.4167 33.75 20.9763 33.75 21.6667H36.25ZM33.75 21.6833C33.75 22.3737 34.3097 22.9333 35 22.9333C35.6903 22.9333 36.25 22.3737 36.25 21.6833H33.75ZM33.75 18.3333C33.75 19.0237 34.3097 19.5833 35 19.5833C35.6903 19.5833 36.25 19.0237 36.25 18.3333H33.75ZM30.4545 12.2923C30.286 12.9618 30.6922 13.6411 31.3615 13.8096C32.031 13.9781 32.7104 13.572 32.8789 12.9025L30.4545 12.2923ZM13.3334 26.25H26.6667V23.75H13.3334V26.25ZM32.0833 31.6667V35H34.5833V31.6667H32.0833ZM7.91669 35V31.6667H5.41669V35H7.91669ZM26.6667 26.25C29.6582 26.25 32.0833 28.6752 32.0833 31.6667H34.5833C34.5833 27.2943 31.039 23.75 26.6667 23.75V26.25ZM13.3334 23.75C8.9611 23.75 5.41669 27.2943 5.41669 31.6667H7.91669C7.91669 28.6752 10.3418 26.25 13.3334 26.25V23.75ZM25.4167 11.6667C25.4167 14.6582 22.9915 17.0833 20 17.0833V19.5833C24.3724 19.5833 27.9167 16.0389 27.9167 11.6667H25.4167ZM20 17.0833C17.0085 17.0833 14.5834 14.6582 14.5834 11.6667H12.0834C12.0834 16.0389 15.6278 19.5833 20 19.5833V17.0833ZM14.5834 11.6667C14.5834 8.67512 17.0085 6.25 20 6.25V3.75C15.6278 3.75 12.0834 7.29442 12.0834 11.6667H14.5834ZM20 6.25C22.9915 6.25 25.4167 8.67512 25.4167 11.6667H27.9167C27.9167 7.29442 24.3724 3.75 20 3.75V6.25ZM33.75 21.6667V21.6833H36.25V21.6667H33.75ZM37.0833 13.4632C37.0833 14.001 36.8185 14.28 35.9293 14.9295C35.1887 15.4705 33.75 16.4181 33.75 18.3333H36.25C36.25 17.8677 36.478 17.6247 37.404 16.9482C38.1815 16.3802 39.5833 15.4146 39.5833 13.4632H37.0833ZM35 11.25C36.1283 11.25 37.0833 12.1881 37.0833 13.4632H39.5833C39.5833 10.913 37.6125 8.75 35 8.75V11.25ZM32.8789 12.9025C33.1168 11.9569 34.0025 11.25 35 11.25V8.75C32.8415 8.75 30.9683 10.2505 30.4545 12.2923L32.8789 12.9025Z" fill="#0D0D5D"/></symbol><symbol viewBox="0 0 24 24" fill="none" id="svg-burger"><path d="M3 10.8333H16.5V13.1667H3V10.8333ZM3 5H21V7.33333H3V5ZM3 19H11.1394V16.6667H3V19Z" fill="#000"/></symbol><symbol viewBox="0 0 24 24" fill="none" id="svg-c-down"><path d="M7.70703 9.29297L12 13.586L16.293 9.29297L17.707 10.707L12 16.414L6.29303 10.707L7.70703 9.29297Z" fill="#0D0D5D"/></symbol><symbol viewBox="0 0 24 24" fill="none" id="svg-c-left"><path d="M14.707 16.293L10.414 12L14.707 7.70697L13.293 6.29297L7.58603 12L13.293 17.707L14.707 16.293Z" fill="#0D0D5D"/></symbol><symbol viewBox="0 0 23 23" fill="none" id="svg-c-left-quote"><path d="M0 2.875V11.5H5.75C5.75 14.6697 3.17256 17.25 0 17.25V20.125C4.75597 20.125 8.625 16.256 8.625 11.5V2.875H0zM14.375 2.875V11.5H20.125C20.125 14.6697 17.5476 17.25 14.375 17.25V20.125C19.131 20.125 23 16.256 23 11.5V2.875H14.375z" fill="#C3CFDD"/></symbol><symbol viewBox="0 0 24 24" fill="none" id="svg-c-right"><path d="M9.29297 16.293L13.586 12L9.29297 7.70697L10.707 6.29297L16.414 12L10.707 17.707L9.29297 16.293Z" fill="#0D0D5D"/></symbol><symbol viewBox="0 0 23 23" fill="none" id="svg-c-right-quote"><g clip-path="url(#ahclip0_102_2774)" fill="#C3CFDD"><path d="M23 20.125L23 11.5 17.25 11.5C17.25 8.33031 19.8274 5.75 23 5.75L23 2.875C18.244 2.875 14.375 6.74403 14.375 11.5L14.375 20.125 23 20.125zM8.625 20.125L8.625 11.5 2.875 11.5C2.875 8.33031 5.45244 5.75 8.625 5.75L8.625 2.875C3.86903 2.875.0000011698 6.74403 7.54021e-7 11.5L0 20.125 8.625 20.125z"/></g><defs><clipPath id="ahclip0_102_2774"><path fill="#fff" transform="rotate(-180 11.5 11.5)" d="M0 0H23V23H0z"/></clipPath></defs></symbol><symbol viewBox="0 0 24 24" fill="none" id="svg-c-up"><path d="M7.70703 14.707L12 10.414L16.293 14.707L17.707 13.293L12 7.58603L6.29303 13.293L7.70703 14.707Z" fill="#0D0D5D"/></symbol><symbol viewBox="0 0 14 14" fill="none" id="svg-cancel"><path d="M8.40994 7L12.7099 2.71C12.8982 2.5217 13.004 2.2663 13.004 2C13.004 1.7337 12.8982 1.47831 12.7099 1.29C12.5216 1.1017 12.2662 0.995911 11.9999 0.995911C11.7336 0.995911 11.4782 1.1017 11.2899 1.29L6.99994 5.59L2.70994 1.29C2.52164 1.1017 2.26624 0.995911 1.99994 0.995911C1.73364 0.995911 1.47824 1.1017 1.28994 1.29C1.10164 1.47831 0.995847 1.7337 0.995847 2C0.995847 2.2663 1.10164 2.5217 1.28994 2.71L5.58994 7L1.28994 11.29C1.19621 11.383 1.12182 11.4936 1.07105 11.6154C1.02028 11.7373 0.994141 11.868 0.994141 12C0.994141 12.132 1.02028 12.2627 1.07105 12.3846C1.12182 12.5064 1.19621 12.617 1.28994 12.71C1.3829 12.8037 1.4935 12.8781 1.61536 12.9289C1.73722 12.9797 1.86793 13.0058 1.99994 13.0058C2.13195 13.0058 2.26266 12.9797 2.38452 12.9289C2.50638 12.8781 2.61698 12.8037 2.70994 12.71L6.99994 8.41L11.2899 12.71C11.3829 12.8037 11.4935 12.8781 11.6154 12.9289C11.7372 12.9797 11.8679 13.0058 11.9999 13.0058C12.132 13.0058 12.2627 12.9797 12.3845 12.9289C12.5064 12.8781 12.617 12.8037 12.7099 12.71C12.8037 12.617 12.8781 12.5064 12.9288 12.3846C12.9796 12.2627 13.0057 12.132 13.0057 12C13.0057 11.868 12.9796 11.7373 12.9288 11.6154C12.8781 11.4936 12.8037 11.383 12.7099 11.29L8.40994 7Z" fill="#000"/></symbol><symbol viewBox="0 0 37 37" fill="none" id="svg-child-psychology"><rect width="37" height="37" rx="8" fill="#C8EEE6"/><path d="M26.6018 15.1581C26.0017 13.7486 25.0647 12.5079 23.8731 11.5451C22.6816 10.5823 21.2719 9.92664 19.7678 9.63579L21.1265 7.4619L19.7485 6.60065L17.9557 9.46918C16.1295 9.47765 14.3457 10.021 12.8249 11.032C11.3041 12.043 10.1128 13.4774 9.39817 15.1581C8.44097 15.1762 7.52912 15.5693 6.85862 16.2526C6.18812 16.936 5.8125 17.8552 5.8125 18.8125C5.8125 19.7699 6.18812 20.6891 6.85862 21.3724C7.52912 22.0558 8.44097 22.4488 9.39817 22.467C10.1158 24.1545 11.314 25.5937 12.8435 26.6053C14.373 27.6169 16.1662 28.1563 18 28.1563C19.8338 28.1563 21.627 27.6169 23.1565 26.6053C24.686 25.5937 25.8842 24.1545 26.6018 22.467C27.559 22.4488 28.4709 22.0558 29.1414 21.3724C29.8119 20.6891 30.1875 19.7699 30.1875 18.8125C30.1875 17.8552 29.8119 16.936 29.1414 16.2526C28.4709 15.5693 27.559 15.1762 26.6018 15.1581ZM27.9807 20.2349C27.609 20.615 27.1025 20.8333 26.571 20.8423L25.5185 20.8623L25.1065 21.8309C24.5138 23.2252 23.5239 24.4143 22.2603 25.2502C20.9967 26.086 19.5151 26.5317 18 26.5317C16.485 26.5317 15.0034 26.086 13.7398 25.2502C12.4761 24.4143 11.4863 23.2252 10.8935 21.8309L10.4815 20.8623L9.42904 20.8423C8.89729 20.8324 8.39068 20.6141 8.01814 20.2346C7.64561 19.855 7.4369 19.3444 7.4369 18.8125C7.4369 18.2807 7.64561 17.7701 8.01814 17.3905C8.39068 17.0109 8.89729 16.7927 9.42904 16.7828L10.4815 16.7627L10.8935 15.7941C11.4863 14.3999 12.4762 13.2108 13.7398 12.375C15.0034 11.5391 16.485 11.0934 18 11.0934C19.5151 11.0934 20.9967 11.5391 22.2603 12.375C23.5239 13.2108 24.5137 14.3999 25.1065 15.7941L25.5185 16.7627L26.571 16.7828C26.9676 16.7902 27.3533 16.9138 27.6805 17.1381C28.0076 17.3624 28.2619 17.6777 28.4119 18.0449C28.5618 18.4122 28.6009 18.8153 28.5243 19.2045C28.4476 19.5937 28.2586 19.9519 27.9807 20.2349Z" fill="#000"/><path d="M15.5625 16.7812H13.5312V18.8125H15.5625V16.7812zM22.4688 16.7812H20.4375V18.8125H22.4688V16.7812zM18 24.5C18.5335 24.5 19.0618 24.3949 19.5547 24.1908 20.0475 23.9866 20.4954 23.6874 20.8726 23.3101 21.2499 22.9329 21.5491 22.485 21.7533 21.9922 21.9574 21.4993 22.0625 20.971 22.0625 20.4375H13.9375C13.9375 20.971 14.0426 21.4993 14.2467 21.9922 14.4509 22.485 14.7501 22.9329 15.1274 23.3101 15.8892 24.072 16.9226 24.5 18 24.5z" fill="#000"/></symbol><symbol viewBox="0 0 20 20" id="svg-clock"><path d="M12.5816 10.5282L10.8332 9.51912V5.83341C10.8332 5.6124 10.7454 5.40044 10.5891 5.24416C10.4328 5.08788 10.2209 5.00008 9.99984 5.00008C9.77883 5.00008 9.56687 5.08788 9.41059 5.24416C9.25431 5.40044 9.16651 5.6124 9.16651 5.83341V10.0001C9.16647 10.1464 9.20496 10.2901 9.2781 10.4168C9.35124 10.5436 9.45646 10.6488 9.58317 10.7219L11.7483 11.9719C11.8431 12.0267 11.9477 12.0623 12.0563 12.0766C12.1648 12.0909 12.2752 12.0837 12.3809 12.0554C12.4867 12.0271 12.5858 11.9782 12.6727 11.9115C12.7596 11.8449 12.8324 11.7618 12.8872 11.667C12.9419 11.5721 12.9774 11.4675 12.9917 11.3589C13.006 11.2503 12.9987 11.14 12.9703 11.0343C12.9419 10.9286 12.893 10.8294 12.8263 10.7426C12.7596 10.6558 12.6765 10.5829 12.5816 10.5282V10.5282ZM9.99984 1.66675C8.35166 1.66675 6.7405 2.15549 5.37009 3.07117C3.99968 3.98685 2.93158 5.28834 2.30084 6.81105C1.67011 8.33377 1.50509 10.0093 1.82663 11.6258C2.14817 13.2423 2.94185 14.7272 4.10728 15.8926C5.27272 17.0581 6.75758 17.8518 8.37409 18.1733C9.9906 18.4948 11.6662 18.3298 13.1889 17.6991C14.7116 17.0683 16.0131 16.0002 16.9288 14.6298C17.8444 13.2594 18.3332 11.6483 18.3332 10.0001C18.3307 7.7907 17.452 5.67251 15.8897 4.11024C14.3274 2.54797 12.2092 1.66921 9.99984 1.66675V1.66675ZM9.99984 16.6667C8.6813 16.6667 7.39237 16.2758 6.29604 15.5432C5.19971 14.8107 4.34523 13.7695 3.84064 12.5513C3.33606 11.3331 3.20404 9.99269 3.46127 8.69948C3.71851 7.40627 4.35345 6.21839 5.2858 5.28604C6.21815 4.35369 7.40603 3.71875 8.69924 3.46151C9.99245 3.20428 11.3329 3.3363 12.5511 3.84088C13.7692 4.34547 14.8104 5.19995 15.543 6.29628C16.2755 7.39261 16.6665 8.68154 16.6665 10.0001C16.6645 11.7676 15.9615 13.4621 14.7117 14.7119C13.4618 15.9617 11.7673 16.6647 9.99984 16.6667V16.6667Z"/></symbol><symbol viewBox="0 0 40 40" fill="none" id="svg-comfort-ward"><path d="M15.7687 6.46692H18.8968V9.595C18.8968 10.2074 19.3906 10.7079 20.0097 10.7079C20.6221 10.7079 21.1226 10.2141 21.1226 9.595V6.46692H24.2507C24.8631 6.46692 25.3636 5.97306 25.3636 5.35401C25.3636 4.74157 24.8697 4.24109 24.2507 4.24109H21.1226V1.11291C21.1226 0.50048 20.6287 0 20.0097 0C19.3972 0 18.8968 0.493859 18.8968 1.11291V4.24099H15.7687C15.1562 4.24099 14.6558 4.73485 14.6558 5.3539C14.6557 5.97296 15.1562 6.46692 15.7687 6.46692Z" fill="#0D0D5D"/><path d="M4.20454 8.89043H2.229V37.7808H4.20454V8.89043zM35.8013 37.7807H37.7769V31.2414H35.8013V37.7807zM37.7705 27.0333H6.42383V29.009H37.7705V27.0333zM6.42383 24.814H12.7656C12.252 22.351 10.0656 20.5005 7.45117 20.5005H6.42383V24.814zM35.6763 23.1018C35.6763 22.0086 34.7873 21.1261 33.7006 21.1261H19.0283V24.8271H35.6763V23.1018z" fill="#C8EEE6"/><path d="M38.8901 24.8139H37.9089V23.0884C37.9089 20.7769 36.0255 18.887 33.7075 18.887H17.9155C17.3031 18.887 16.8026 19.3808 16.8026 19.9999V24.8073H15.0245C14.4845 21.1128 11.3037 18.2745 7.4644 18.2745H6.42392V8.89031C6.42392 7.66545 5.42296 6.67101 4.20461 6.67101H2.22907C1.01073 6.67101 0.00976562 7.66545 0.00976562 8.89031V37.7806C0.00976562 38.999 1.01073 39.9999 2.22907 39.9999H4.20471C5.42958 39.9999 6.42402 38.999 6.42402 37.7806V31.2413H33.5757V37.7806C33.5757 39.0055 34.5767 39.9999 35.7951 39.9999H37.7707C38.9956 39.9999 39.99 38.999 39.99 37.7806V25.9268C39.9965 25.3144 39.5026 24.8139 38.8901 24.8139ZM37.7772 37.7806H35.8016V31.2413H37.7772V37.7806ZM12.7724 24.8139H6.42392V20.5005H7.4644C10.0722 20.5004 12.2586 22.3575 12.7724 24.8139ZM6.42392 27.0332H37.7706V29.0088H6.42392V27.0332ZM19.0285 21.1194H33.7008C34.794 21.1194 35.6765 22.0084 35.6765 23.0951V24.8139H19.0285V21.1194ZM2.22907 8.89031H4.20471V37.7806H2.22907V8.89031Z" fill="#0D0D5D"/></symbol><symbol viewBox="0 0 37 37" fill="none" id="svg-diagnostic"><rect width="37" height="37" rx="8" fill="#C8EEE6"/><g clip-path="url(#anclip0_42_3095)" fill="#000"><path d="M24.414 9.15224H21.6626V8.70552C21.6626 8.31592 21.3466 8 20.957 8H14.0433C13.6537 8 13.3378 8.31592 13.3378 8.70552V9.15231H10.5864C10.1968 9.15231 9.88086 9.46823 9.88086 9.85783V28.2946C9.88086 28.6842 10.1968 29.0001 10.5864 29.0001H24.4139C24.8035 29.0001 25.1194 28.6842 25.1194 28.2946V9.85776C25.1194 9.46816 24.8036 9.15224 24.414 9.15224ZM14.7488 9.41096H20.2515V10.3046H14.7488V9.41096ZM23.7085 27.5891H11.2919V10.5633H13.3378V11.0101C13.3378 11.3997 13.6537 11.7156 14.0433 11.7156H20.9571C21.3467 11.7156 21.6626 11.3997 21.6626 11.0101V10.5633H23.7085V27.5891H23.7085Z"/><path d="M14.3579 18.8039H15.7475V20.1935C15.7475 20.5831 16.0634 20.899 16.453 20.899H18.5481C18.9377 20.899 19.2536 20.5831 19.2536 20.1935V18.8039H20.6432C21.0328 18.8039 21.3487 18.488 21.3487 18.0984V16.0033C21.3487 15.6137 21.0328 15.2978 20.6432 15.2978H19.2536V13.9083C19.2536 13.5187 18.9377 13.2028 18.5481 13.2028H16.453C16.0634 13.2028 15.7475 13.5187 15.7475 13.9083V15.2979H14.3579C13.9683 15.2979 13.6523 15.6138 13.6523 16.0034V18.0984C13.6523 18.488 13.9683 18.8039 14.3579 18.8039zM15.0633 16.7088H16.4529C16.8425 16.7088 17.1584 16.3929 17.1584 16.0033V14.6137H17.8426V16.0033C17.8426 16.3929 18.1585 16.7088 18.5481 16.7088H19.9377V17.3929H18.5481C18.1585 17.3929 17.8426 17.7088 17.8426 18.0984V19.488H17.1584V18.0984C17.1584 17.7088 16.8425 17.3929 16.4529 17.3929H15.0633V16.7088zM14.0434 24.3908H20.9572C21.3468 24.3908 21.6627 24.0749 21.6627 23.6853 21.6627 23.2957 21.3468 22.9798 20.9572 22.9798H14.0434C13.6538 22.9798 13.3379 23.2957 13.3379 23.6853 13.3379 24.075 13.6538 24.3908 14.0434 24.3908zM21.5334 25.2844H13.4672C13.0776 25.2844 12.7617 25.6003 12.7617 25.9899 12.7617 26.3795 13.0776 26.6955 13.4672 26.6955H21.5334C21.923 26.6955 22.2389 26.3795 22.2389 25.9899 22.2389 25.6003 21.923 25.2844 21.5334 25.2844z"/></g><defs><clipPath id="anclip0_42_3095"><path fill="#fff" transform="translate(7 8)" d="M0 0H21V21H0z"/></clipPath></defs></symbol><symbol viewBox="0 0 30 30" fill="none" id="svg-facebook"><path d="M25.3125 0H4.6875C2.09867 0 0 2.09867 0 4.6875V25.3125C0 27.9013 2.09867 30 4.6875 30H25.3125C27.9013 30 30 27.9013 30 25.3125V4.6875C30 2.09867 27.9013 0 25.3125 0Z" fill="#80B1EF"/><path d="M22.5 15C22.5 10.875 19.125 7.5 15 7.5C10.875 7.5 7.5 10.875 7.5 15C7.5 18.75 10.2187 21.8437 13.7812 22.4062V17.1562H11.9062V15H13.7812V13.3125C13.7812 11.4375 14.9063 10.4063 16.5938 10.4063C17.4375 10.4063 18.2812 10.5938 18.2812 10.5938V12.4688H17.3438C16.4062 12.4688 16.125 13.0312 16.125 13.5938V15H18.1875L17.8125 17.1562H16.0313V22.5C19.7813 21.9375 22.5 18.75 22.5 15Z" fill="#fff"/></symbol><symbol viewBox="0 0 40 40" fill="none" id="svg-full-examination"><path d="M19.566 23.5535L27.3052 15.9856V3.33944C27.3052 2.7269 26.8112 2.22634 26.1921 2.22634H3.33673C2.7242 2.22634 2.22363 2.72028 2.22363 3.33944V36.6673C2.22363 37.2798 2.71757 37.7804 3.33673 37.7804H26.1986C26.8111 37.7804 27.3117 37.2864 27.3117 36.6673V26.3396L24.743 28.849C24.5388 29.0532 24.2555 29.1651 23.9658 29.1651C23.9592 29.1651 23.9592 29.1651 23.9526 29.1651L20.2906 29.1256C19.678 29.119 19.1906 28.6119 19.1972 27.9993L19.2434 24.3306C19.2367 24.0409 19.3553 23.7577 19.566 23.5535Z" fill="#fff"/><path d="M19.5657 23.5534L25.0853 18.1591V4.43933H4.44971V35.5475H25.0853V28.5065L24.7362 28.8424C24.532 29.0466 24.2488 29.1586 23.959 29.1586C23.9524 29.1586 23.9524 29.1586 23.9459 29.1586L20.2838 29.119C19.6713 29.1124 19.1839 28.6053 19.1905 27.9927L19.2366 24.324C19.2364 24.0409 19.355 23.7576 19.5657 23.5534Z" fill="#C8EEE6"/><path d="M12.2218 8.97737H10.8979V7.59418C10.8979 6.98164 10.4039 6.48108 9.78479 6.48108 9.17225 6.48108 8.67169 6.97502 8.67169 7.59418V8.97737H7.35431C6.74177 8.97737 6.24121 9.47131 6.24121 10.0905 6.24121 10.7096 6.73515 11.2036 7.35431 11.2036H8.67821V12.5999C8.67821 13.2124 9.17215 13.713 9.79131 13.713 10.4038 13.713 10.9044 13.2191 10.9044 12.5999V11.2036H12.2283C12.8408 11.2036 13.3414 10.7096 13.3414 10.0905 13.3414 9.47142 12.8343 8.97737 12.2218 8.97737zM21.0613 19.18H7.23614C6.62361 19.18 6.12305 18.6861 6.12305 18.0669 6.12305 17.4477 6.61699 16.9537 7.23614 16.9537H21.0679C21.6804 16.9537 22.181 17.4476 22.181 18.0668 22.181 18.686 21.6804 19.18 21.0613 19.18zM15.8579 25.8389H7.23615C6.62361 25.8389 6.12305 25.345 6.12305 24.7258 6.12305 24.1133 6.61699 23.6127 7.23615 23.6127H15.8579C16.4704 23.6127 16.971 24.1067 16.971 24.7258 16.971 25.345 16.4705 25.8389 15.8579 25.8389zM22.2996 32.5046H7.23615C6.62361 32.5046 6.12305 32.0106 6.12305 31.3915 6.12305 30.7789 6.61699 30.2784 7.23615 30.2784H22.3061C22.9187 30.2784 23.4192 30.7723 23.4192 31.3915 23.4127 32.0106 22.9121 32.5046 22.2996 32.5046zM22.2992 12.5078H15.3768C14.7642 12.5078 14.2637 12.0139 14.2637 11.3947 14.2637 10.7822 14.7576 10.2816 15.3768 10.2816H22.2992C22.9117 10.2816 23.4123 10.7755 23.4123 11.3947 23.4123 12.0138 22.9117 12.5078 22.2992 12.5078z" fill="#0D0D5D"/><path d="M38.9435 9.79414C37.4616 8.17386 35.0904 8.34513 33.7072 9.72832L29.5247 13.812V3.3394C29.5248 1.49517 28.0362 0 26.192 0H3.33668C1.49907 0 0.00390625 1.49517 0.00390625 3.3394V36.6672C0.00390625 38.5048 1.49907 40 3.33668 40H26.1985C28.0361 40 29.5313 38.5048 29.5313 36.6606V24.1725L38.8842 15.0304C40.3464 13.6012 40.3662 11.2498 38.9435 9.79414ZM27.3051 36.6541C27.3051 37.2666 26.8112 37.7672 26.192 37.7672H3.33668C2.72414 37.7672 2.22358 37.2732 2.22358 36.6541V3.3394C2.22358 2.72686 2.71752 2.2263 3.33668 2.2263H26.1985C26.8111 2.2263 27.3116 2.72024 27.3116 3.3394V15.9921L19.5659 23.5535C19.3551 23.7576 19.2366 24.0409 19.23 24.3306L19.1838 27.9993C19.1772 28.6119 19.6712 29.119 20.2772 29.1257L23.9392 29.1652C23.9459 29.1652 23.9459 29.1652 23.9524 29.1652C24.2421 29.1652 24.5189 29.0532 24.7296 28.8491L27.2983 26.3396V36.6541H27.3051ZM23.5113 26.9389L21.4167 26.9125L21.4431 24.818L33.1079 13.4233L35.1761 15.5441L23.5113 26.9389ZM37.3298 13.4365L36.77 13.9766L34.7018 11.8558L35.2617 11.3026C35.8281 10.7493 36.7963 10.7625 37.3562 11.3289C37.9292 11.9282 37.9094 12.8635 37.3298 13.4365Z" fill="#0D0D5D"/><path d="M37.3297 13.4365C37.9093 12.87 37.9291 11.9282 37.3561 11.342 36.8029 10.7755 35.828 10.769 35.2615 11.3156L34.7017 11.8688 36.7698 13.9897 37.3297 13.4365zM33.1144 13.4167L21.4496 24.8246 21.4233 26.9191 23.5113 26.9389 35.1826 15.5376 33.1144 13.4167z" fill="#C8EEE6"/></symbol><symbol viewBox="0 0 37 37" fill="none" id="svg-help-at-home"><rect width="37" height="37" rx="8" fill="#C8EEE6"/><path d="M27.7291 17.0283L23.0059 12.4809V8.86183C23.0059 8.39564 22.6215 8.01125 22.1553 8.01125C21.6891 8.01125 21.3047 8.39564 21.3047 8.86183V10.8452L18.5812 8.22389C18.2827 7.92537 17.7715 7.92537 17.4321 8.22389L8.28829 17.0283C7.94888 17.3677 7.9039 17.8789 8.2474 18.2183C8.59091 18.5577 9.09798 18.6027 9.4374 18.2592L9.56417 18.1365V27.1494C9.56417 27.6156 9.94857 28 10.4148 28H25.6435C26.1097 28 26.4532 27.6156 26.4941 27.1903V18.2224L26.5799 18.3041C27.2015 18.7335 27.6432 18.4309 27.77 18.2183C28.0685 17.8789 28.0685 17.3268 27.7291 17.0283ZM19.5176 26.3438H16.5406V21.7924H19.5176V26.3438ZM24.7929 26.3438H21.1779V20.9418C21.1779 20.4756 20.7935 20.0912 20.3273 20.0912H15.69C15.2238 20.0912 14.8394 20.4756 14.8394 20.9418V26.3438H11.2653V18.0056H24.7929V26.3438ZM11.4289 16.3494L18.0291 10.0109L24.5639 16.3494H11.4289Z" fill="#000"/></symbol><symbol viewBox="0 0 37 37" fill="none" id="svg-hospital"><rect width="37" height="37" rx="8" fill="#C8EEE6"/><path d="M26.7734 8.42969C26.332 8.42969 25.9766 8.78516 25.9766 9.22656V17.418H10.0234V14.6836C10.0234 14.2422 9.66406 13.8867 9.22656 13.8867C8.78516 13.8867 8.42969 14.2422 8.42969 14.6836V26.7695C8.42969 27.2109 8.78516 27.5664 9.22656 27.5664C9.66797 27.5664 10.0234 27.2109 10.0234 26.7695V22.9414H25.9727V26.7695C25.9727 27.2109 26.332 27.5664 26.7695 27.5664C27.2109 27.5664 27.5664 27.2109 27.5664 26.7695V9.22656C27.5703 8.78516 27.2148 8.42969 26.7734 8.42969ZM25.9766 21.3477H10.0234V19.0156H25.9727V21.3477H25.9766Z" fill="#000"/><path d="M23.6797 16.0234H20.7891C20.3477 16.0234 19.9922 15.668 19.9922 15.2266C19.9922 14.7852 20.3477 14.4297 20.7891 14.4297H23.6797C24.1211 14.4297 24.4766 14.7852 24.4766 15.2266C24.4805 15.668 24.1211 16.0234 23.6797 16.0234Z" fill="#000"/></symbol><symbol viewBox="0 0 30 30" fill="none" id="svg-instagram"><path d="M25.3125 0H4.6875C2.09867 0 0 2.09867 0 4.6875V25.3125C0 27.9013 2.09867 30 4.6875 30H25.3125C27.9013 30 30 27.9013 30 25.3125V4.6875C30 2.09867 27.9013 0 25.3125 0Z" fill="#F37CB5"/><path d="M15 8.625C17.0625 8.625 17.3438 8.625 18.1875 8.625C18.9375 8.625 19.3125 8.8125 19.5937 8.90625C19.9687 9.09375 20.25 9.1875 20.5312 9.46875C20.8125 9.75 21 10.0313 21.0938 10.4063C21.1875 10.6875 21.2812 11.0625 21.375 11.8125C21.375 12.6563 21.375 12.8438 21.375 15C21.375 17.1563 21.375 17.3438 21.375 18.1875C21.375 18.9375 21.1875 19.3125 21.0938 19.5937C20.9063 19.9687 20.8125 20.25 20.5312 20.5312C20.25 20.8125 19.9687 21 19.5937 21.0938C19.3125 21.1875 18.9375 21.2812 18.1875 21.375C17.3438 21.375 17.1563 21.375 15 21.375C12.8438 21.375 12.6563 21.375 11.8125 21.375C11.0625 21.375 10.6875 21.1875 10.4063 21.0938C10.0313 20.9063 9.75 20.8125 9.46875 20.5312C9.1875 20.25 9 19.9687 8.90625 19.5937C8.8125 19.3125 8.71875 18.9375 8.625 18.1875C8.625 17.3438 8.625 17.1563 8.625 15C8.625 12.8438 8.625 12.6563 8.625 11.8125C8.625 11.0625 8.8125 10.6875 8.90625 10.4063C9.09375 10.0313 9.1875 9.75 9.46875 9.46875C9.75 9.1875 10.0313 9 10.4063 8.90625C10.6875 8.8125 11.0625 8.71875 11.8125 8.625C12.6563 8.625 12.9375 8.625 15 8.625ZM15 7.21875C12.8438 7.21875 12.6563 7.21875 11.8125 7.21875C10.9688 7.21875 10.4063 7.40625 9.9375 7.59375C9.46875 7.78125 9 8.0625 8.53125 8.53125C8.0625 9 7.875 9.375 7.59375 9.9375C7.40625 10.4063 7.3125 10.9688 7.21875 11.8125C7.21875 12.6563 7.21875 12.9375 7.21875 15C7.21875 17.1563 7.21875 17.3438 7.21875 18.1875C7.21875 19.0312 7.40625 19.5937 7.59375 20.0625C7.78125 20.5312 8.0625 21 8.53125 21.4687C9 21.9375 9.375 22.125 9.9375 22.4063C10.4063 22.5938 10.9688 22.6875 11.8125 22.7812C12.6563 22.7812 12.9375 22.7812 15 22.7812C17.0625 22.7812 17.3438 22.7812 18.1875 22.7812C19.0312 22.7812 19.5937 22.5938 20.0625 22.4063C20.5312 22.2188 21 21.9375 21.4687 21.4687C21.9375 21 22.125 20.625 22.4063 20.0625C22.5938 19.5937 22.6875 19.0312 22.7812 18.1875C22.7812 17.3438 22.7812 17.0625 22.7812 15C22.7812 12.9375 22.7812 12.6563 22.7812 11.8125C22.7812 10.9688 22.5938 10.4063 22.4063 9.9375C22.2188 9.46875 21.9375 9 21.4687 8.53125C21 8.0625 20.625 7.875 20.0625 7.59375C19.5937 7.40625 19.0312 7.3125 18.1875 7.21875C17.3438 7.21875 17.1563 7.21875 15 7.21875Z" fill="#fff"/><path d="M15 10.9688C12.75 10.9688 10.9688 12.75 10.9688 15 10.9688 17.25 12.75 19.0312 15 19.0312 17.25 19.0312 19.0312 17.25 19.0312 15 19.0312 12.75 17.25 10.9688 15 10.9688zM15 17.625C13.5938 17.625 12.375 16.5 12.375 15 12.375 13.5938 13.5 12.375 15 12.375 16.4063 12.375 17.625 13.5 17.625 15 17.625 16.4063 16.4063 17.625 15 17.625zM19.125 11.8125C19.6428 11.8125 20.0625 11.3928 20.0625 10.875 20.0625 10.3572 19.6428 9.9375 19.125 9.9375 18.6072 9.9375 18.1875 10.3572 18.1875 10.875 18.1875 11.3928 18.6072 11.8125 19.125 11.8125z" fill="#fff"/></symbol><symbol viewBox="0 0 20 20" id="svg-location"><path d="M14.9998 3.73342C13.6737 2.40734 11.8751 1.66235 9.99978 1.66235C8.12441 1.66235 6.32586 2.40734 4.99978 3.73342C3.6737 5.0595 2.92871 6.85806 2.92871 8.73342C2.92871 10.6088 3.6737 12.4073 4.99978 13.7334L9.39145 18.1334C9.46891 18.2115 9.56108 18.2735 9.66263 18.3158C9.76418 18.3581 9.8731 18.3799 9.98311 18.3799C10.0931 18.3799 10.202 18.3581 10.3036 18.3158C10.4051 18.2735 10.4973 18.2115 10.5748 18.1334L14.9998 13.6918C16.3203 12.3712 17.0622 10.5801 17.0622 8.71259C17.0622 6.84504 16.3203 5.05399 14.9998 3.73342ZM13.8081 12.5001L9.99978 16.3251L6.19145 12.5001C5.43907 11.747 4.92684 10.7878 4.71952 9.74366C4.51221 8.69953 4.6191 7.61738 5.0267 6.63399C5.4343 5.6506 6.12429 4.81013 7.00947 4.21882C7.89465 3.62751 8.93527 3.31191 9.99978 3.31191C11.0643 3.31191 12.1049 3.62751 12.9901 4.21882C13.8753 4.81013 14.5653 5.6506 14.9729 6.63399C15.3805 7.61738 15.4874 8.69953 15.28 9.74366C15.0727 10.7878 14.5605 11.747 13.8081 12.5001ZM7.49978 6.17509C6.82704 6.8499 6.44927 7.76389 6.44927 8.71675C6.44927 9.66962 6.82704 10.5836 7.49978 11.2584C7.99958 11.7591 8.6361 12.101 9.32949 12.2413C10.0229 12.3815 10.7422 12.3139 11.3973 12.0469C12.0524 11.7799 12.6141 11.3253 13.0118 10.7403C13.4096 10.1553 13.6257 9.46581 13.6331 8.75842C13.6369 8.28609 13.5459 7.8178 13.3655 7.38124C13.1852 6.94468 12.9191 6.54872 12.5831 6.21675C12.2528 5.8789 11.859 5.6097 11.4243 5.42464C10.9896 5.23958 10.5226 5.14232 10.0501 5.13845C9.57766 5.13457 9.10911 5.22417 8.67142 5.40208C8.23373 5.57999 7.83555 5.8427 7.49978 6.17509ZM11.4081 10.0751C11.0923 10.3957 10.675 10.5967 10.2274 10.6436C9.77982 10.6906 9.32983 10.5806 8.95437 10.3325C8.5789 10.0844 8.30128 9.71362 8.16895 9.28349C8.03663 8.85336 8.05782 8.39062 8.22891 7.97438C8.4 7.55815 8.71036 7.21427 9.10693 7.00153C9.5035 6.7888 9.96166 6.72043 10.4031 6.8081C10.8445 6.89578 11.2417 7.13405 11.5269 7.4822C11.812 7.83034 11.9674 8.26673 11.9664 8.71675C11.9543 9.23115 11.7385 9.71969 11.3664 10.0751H11.4081Z"/></symbol><symbol viewBox="0 0 40 40" fill="none" id="svg-modern-clinic"><g clip-path="url(#auclip0_42_3246)"><path d="M32.207 4.9934H37.7801V3.33331C37.7801 2.72068 37.2861 2.22003 36.6669 2.22003H3.33349C2.72086 2.22003 2.22021 2.71405 2.22021 3.33331V15.5995H6.9501L8.91976 10.3294C9.24258 9.39394 10.6589 9.31486 11.0212 10.4019L13.9725 20.3755L16.2056 14.2161C16.5614 13.2082 17.9843 13.2214 18.3268 14.3084L19.2228 17.7274L23.1358 6.76558C23.4982 5.82359 24.8617 5.70498 25.257 6.85118L28.5508 19.2029L29.1503 16.4691C29.2622 15.9553 29.7168 15.5929 30.2372 15.5929H37.78V11.6535H34.2359C33.6232 11.6535 33.1226 11.1595 33.1226 10.5402C33.1226 9.92098 33.6167 9.42695 34.2359 9.42695H37.78V7.19367H32.2069C31.5943 7.19367 31.0936 6.69965 31.0936 6.08039C31.0936 5.46113 31.5944 4.9934 32.207 4.9934Z" fill="#fff"/><path d="M36.6667 28.8537C37.2793 28.8537 37.7799 28.3597 37.7799 27.7405V17.8195H31.1331L29.7497 24.1634C29.5454 25.2108 27.9907 25.4413 27.5889 24.2096L24.0383 10.8763L20.1318 21.8644C19.73 22.8591 18.3598 22.8459 18.0106 21.7788L17.1016 18.3203L14.9277 24.3019C14.572 25.2834 13.1425 25.2834 12.8197 24.236L9.84208 14.2097L8.76171 17.1017C8.59704 17.5365 8.18862 17.8263 7.72089 17.8263H2.22021V27.7473C2.22021 28.3599 2.71424 28.8606 3.33349 28.8606H36.6668V28.8537H36.6667Z" fill="#fff"/><path d="M36.6667 0H3.33331C1.49541 0 0 1.49541 0 3.33332V27.7404C0 29.5783 1.49541 31.0737 3.33331 31.0737H13.8933C14.3808 31.5941 15.3755 32.7733 15.9091 34.2226C13.0172 35.0263 10.9882 36.6797 10.6786 38.7219C10.5732 39.4532 11.1463 40.0065 11.7787 39.9999H28.2214C28.9725 39.9999 29.4006 39.3609 29.3216 38.7219C29.0054 36.6732 26.983 35.0263 24.091 34.2226C24.6246 32.7733 25.6194 31.6007 26.1069 31.0737H36.6668C38.5047 31.0737 40.0001 29.5783 40.0001 27.7404V3.33332C40 1.49541 38.5046 0 36.6667 0ZM26.3175 37.7799H13.6825C14.8484 36.7456 17.1475 35.9156 20 35.9156C22.8524 35.9156 25.1514 36.7457 26.3175 37.7799ZM16.7391 31.0737H23.2608C22.7471 31.8247 22.2265 32.7535 21.8907 33.801C21.2847 33.7285 20.6522 33.689 20 33.689C19.3544 33.689 18.722 33.7285 18.1093 33.801C17.7733 32.747 17.2529 31.8181 16.7391 31.0737ZM37.7799 27.7404C37.7799 28.353 37.2859 28.8537 36.6667 28.8537H3.33331C2.72068 28.8537 2.22004 28.3596 2.22004 27.7404V17.8194H7.72722C8.19495 17.8194 8.60338 17.5296 8.76805 17.0948L9.84841 14.2159L12.8195 24.2423C13.1423 25.2897 14.5784 25.2897 14.9275 24.3081L17.1014 18.3266L18.0171 21.785C18.3662 22.8588 19.743 22.8654 20.1383 21.8706L24.0447 10.889L27.5954 24.2223C28.0038 25.4411 29.5452 25.2236 29.7561 24.1761L31.1395 17.8322H37.7864V27.7597H37.7797V27.7404H37.7799ZM37.7799 4.9934H32.2068C31.5942 4.9934 31.0935 5.48742 31.0935 6.10668C31.0935 6.72594 31.5876 7.21996 32.2068 7.21996H37.7799V9.44H34.2358C33.6232 9.44 33.1225 9.93402 33.1225 10.5533C33.1225 11.1725 33.6166 11.6666 34.2358 11.6666H37.7799V15.606H30.2372C29.7167 15.606 29.2622 15.9683 29.1502 16.4821L28.5507 19.216L25.2569 6.87747C24.8616 5.72465 23.498 5.84327 23.1357 6.79187L19.2358 17.7602L18.3399 14.3412C18.0039 13.2542 16.5745 13.241 16.2187 14.249L13.9855 20.4083L11.0409 10.4084C10.6785 9.32138 9.26217 9.40046 8.93945 10.3359L6.96979 15.606H2.22014V3.33332C2.22014 2.72068 2.71416 2.22004 3.33342 2.22004H36.6667C37.2793 2.22004 37.7799 2.71406 37.7799 3.33332V4.9934Z" fill="#0D0D5D"/><path d="M26.3177 37.7798C25.1517 36.7455 22.8526 35.9155 20.0001 35.9155 17.1477 35.9155 14.8486 36.7522 13.6826 37.7798H26.3177zM18.1094 33.7943C18.7154 33.7219 19.3479 33.6823 20.0001 33.6823 20.6457 33.6823 21.2781 33.7219 21.8908 33.7943 22.2268 32.7469 22.7472 31.818 23.261 31.067H16.7393C17.253 31.818 17.7735 32.747 18.1094 33.7943zM32.2067 4.99338H35.3885C35.1909 4.66403 34.8483 4.44005 34.4332 4.44005H5.54004C4.9274 4.44005 4.42676 4.93407 4.42676 5.55333V15.5994H6.94985L8.91952 10.3294C9.24234 9.39391 10.6587 9.31484 11.0209 10.4018L13.9722 20.3755 16.2054 14.2161C16.5611 13.2082 17.9841 13.2213 18.3266 14.3083L19.2225 17.7274 23.1356 6.76555C23.4979 5.82357 24.8615 5.70496 25.2568 6.85115L28.5505 19.2029 29.15 16.4691C29.262 15.9553 29.7166 15.5929 30.237 15.5929H35.5532V11.6535H34.2489C33.6363 11.6535 33.1356 11.1595 33.1356 10.5402 33.1356 9.92095 33.6296 9.42693 34.2489 9.42693H35.5532V7.19364H32.2068C31.5941 7.19364 31.0935 6.69962 31.0935 6.08036 31.0935 5.46111 31.594 4.99338 32.2067 4.99338z" fill="#C8EEE6"/><path d="M5.54004 26.6271H34.4332C35.0459 26.6271 35.5465 26.1329 35.5465 25.5138V17.8195H31.1262L29.7428 24.1634C29.5386 25.2108 27.9839 25.4413 27.5821 24.2095L24.0314 10.8763L20.125 21.8578C19.7232 22.8526 18.3529 22.8394 18.0038 21.7722L17.0881 18.3138L14.9142 24.2953C14.5585 25.2769 13.129 25.2769 12.8062 24.2295L9.83511 14.2032L8.76136 17.1014C8.59669 17.5362 8.18827 17.826 7.72054 17.826H4.42676V25.5269C4.43328 26.133 4.9274 26.6271 5.54004 26.6271Z" fill="#C8EEE6"/></g><defs><clipPath id="auclip0_42_3246"><path fill="#fff" d="M0 0H40V40H0z"/></clipPath></defs></symbol><symbol viewBox="0 0 37 37" fill="none" id="svg-narcology"><rect width="37" height="37" rx="8" fill="#C8EEE6"/><path d="M28.036 13.1083L29 12.1443L23.8558 7L22.8918 7.964L24.9819 10.0541L23.0524 11.9836L19.9983 8.92941L19.0343 9.89342L20.159 11.0181L8.47693 22.7002L10.4063 24.6297L7 28.036L7.964 29L11.3703 25.5936L13.2998 27.5231L24.9819 15.841L26.1066 16.9657L27.0706 16.0017L24.0165 12.9475L25.9459 11.0181L28.036 13.1083ZM13.2998 25.5951L10.4049 22.7002L12.3615 20.7437L13.8089 22.1911L14.7729 21.2271L13.3255 19.7797L15.282 17.8232L16.7294 19.2706L17.6934 18.3066L16.246 16.8592L18.2025 14.9027L19.6499 16.3501L20.6139 15.3861L19.1665 13.9387L21.123 11.9821L24.0179 14.877L13.2998 25.5951Z" fill="#000"/></symbol><symbol viewBox="0 0 40 40" fill="none" id="svg-no-alcohol"><path d="M10 4L19 7L29 4V15.5C29 20.7467 24.7467 25 19.5 25C14.2533 25 10 20.7467 10 15.5V4Z" fill="#C8EEE6"/><path d="M19.123 12.4262C19.5029 12.8061 19.503 13.422 19.1232 13.8021L18.7513 14.1741C18.5613 14.3641 18.3122 14.4592 18.0633 14.4592C17.8144 14.4592 17.5655 14.3643 17.3755 14.1743C16.9956 13.7944 16.9955 13.1785 17.3753 12.7985L17.7472 12.4264C18.1271 12.0465 18.7429 12.0463 19.123 12.4262ZM10.8761 21.1909C9.82902 19.5002 9.2756 17.5568 9.2756 15.5706V3.42547C9.2757 0.0961998 18.9047 0 20.0026 0C21.1005 0 30.729 0.0961998 30.729 3.42547C30.729 6.75496 21.1005 6.85105 20.0026 6.85105C19.2194 6.85105 14.0948 6.80219 11.2213 5.56532V15.5704C11.2213 17.1944 11.674 18.7837 12.5302 20.1664C12.813 20.6232 12.6721 21.2227 12.2153 21.5056C12.0558 21.6044 11.8789 21.6516 11.7042 21.6516C11.3784 21.6517 11.0602 21.4881 10.8761 21.1909ZM11.329 3.42547C11.6114 3.63852 12.3366 4.00645 13.8404 4.33278C15.543 4.70212 17.7313 4.90554 20.0026 4.90554C22.2738 4.90554 24.4622 4.70212 26.1646 4.33278C27.6685 4.00645 28.3934 3.63852 28.6758 3.42547C28.3934 3.21253 27.6684 2.8446 26.1646 2.51827C24.4622 2.14904 22.2737 1.94561 20.0026 1.94561C17.7316 1.94561 15.5431 2.14904 13.8404 2.51838C12.3366 2.84449 11.6115 3.21264 11.329 3.42547ZM15.5683 9.2621L15.1963 8.89005C14.8164 8.51012 14.2006 8.51012 13.8204 8.88984C13.4405 9.26977 13.4404 9.88567 13.8202 10.2657L14.1922 10.6378C14.3822 10.8278 14.6312 10.9228 14.8802 10.9228C15.1291 10.9228 15.3779 10.8278 15.5679 10.638C15.948 10.258 15.9481 9.64214 15.5683 9.2621ZM29.7562 14.0787C29.2189 14.0787 28.7834 14.5142 28.7834 15.0515C28.7834 15.2442 28.781 15.8026 28.7778 15.8882C28.6107 20.555 24.6739 24.3517 20.0023 24.3517C19.7443 24.3517 19.4969 24.4542 19.3144 24.6367C19.132 24.8191 19.0295 25.0667 19.0295 25.3246L19.0297 35.7548C19.0297 36.2921 19.4652 36.7276 20.0025 36.7276C20.5398 36.7276 20.9753 36.2921 20.9753 35.7548L20.9751 26.2535C23.3951 26.0341 25.6619 24.9986 27.4412 23.2827C29.4573 21.3384 30.6226 18.737 30.7221 15.9592C30.7278 15.805 30.7289 15.0587 30.7289 15.0516C30.729 14.5142 30.2935 14.0787 29.7562 14.0787ZM39.3043 0.284924C38.9243 -0.0949028 38.3085 -0.0949028 37.9284 0.284924L0.696084 37.5175C0.316149 37.8974 0.316149 38.5134 0.696084 38.8934C0.886106 39.0833 1.13504 39.1783 1.38397 39.1783C1.6329 39.1783 1.88183 39.0833 2.07185 38.8934L39.3043 1.6608C39.6843 1.28086 39.6843 0.664752 39.3043 0.284924ZM24.4597 34.0958C23.928 34.0173 23.4333 34.3835 23.3542 34.9148C23.2752 35.4462 23.6418 35.9411 24.1732 36.0204C25.9716 36.2881 26.9137 36.6622 27.32 36.8998C26.522 37.3749 24.0028 38.0544 20.0025 38.0544C16.0019 38.0544 13.4828 37.3749 12.685 36.8998C13.0913 36.6622 14.0333 36.2881 15.8319 36.0204C16.3633 35.9412 16.73 35.4463 16.6509 34.9148C16.5719 34.3835 16.0769 34.0168 15.5453 34.0958C12.2298 34.5892 10.5487 35.5308 10.5487 36.8945C10.5487 39.8503 18.4237 39.9999 20.0024 39.9999C21.581 39.9999 29.4561 39.8502 29.4561 36.8945C29.4563 35.531 27.7752 34.5895 24.4597 34.0958ZM13.8204 15.9628C13.4405 16.3427 13.4404 16.9586 13.8202 17.3387L14.1922 17.7107C14.3822 17.9007 14.6312 17.9957 14.8802 17.9957C15.1291 17.9957 15.3779 17.9007 15.5679 17.7109C15.9479 17.331 15.948 16.7151 15.5681 16.3351L15.1962 15.963C14.8164 15.5831 14.2006 15.5831 13.8204 15.9628Z" fill="#0D0D5D"/></symbol><symbol viewBox="0 0 30 30" fill="none" id="svg-ok"><path d="M0 4.6875C0 2.09867 2.09867 0 4.6875 0H25.3125C27.9013 0 30 2.09867 30 4.6875V25.3125C30 27.9013 27.9013 30 25.3125 30H4.6875C2.09867 30 0 27.9013 0 25.3125V4.6875Z" fill="#FFBC70"/><path fill-rule="evenodd" clip-rule="evenodd" d="M19.5715 10.7534C19.5715 13.2558 17.5315 15.2957 15.029 15.2957C12.4994 15.2957 10.4594 13.2558 10.4594 10.7534C10.4594 8.25095 12.4994 6.21094 15.029 6.21094C17.5315 6.21094 19.5715 8.25095 19.5715 10.7534ZM16.9059 10.7534C16.9059 9.71976 16.0626 8.87655 15.029 8.87655C13.9683 8.87655 13.125 9.71976 13.1523 10.7534C13.1523 11.787 13.9955 12.6301 15.029 12.6301C16.0626 12.6301 16.9059 11.787 16.9059 10.7534Z" fill="#fff"/><path d="M19.4899 17.9342C18.6739 18.451 17.7763 18.8046 16.8515 19.0222L19.4355 21.5246C19.9523 22.0415 19.9523 22.8846 19.4355 23.4015C18.9188 23.9183 18.0755 23.9183 17.5588 23.4015L15.0563 20.899L12.5539 23.4015C12.2819 23.6463 11.9555 23.7822 11.6019 23.7822C11.2483 23.7822 10.9219 23.6735 10.6499 23.4015C10.1331 22.8846 10.1331 22.0415 10.6499 21.5246L13.1795 18.995C12.2547 18.7774 11.3571 18.4239 10.5411 17.907C9.91545 17.5262 9.72505 16.7102 10.0787 16.0846C10.4867 15.459 11.3027 15.2959 11.9283 15.6766C13.7779 16.8463 16.1986 16.8463 18.0483 15.6766C18.6739 15.2686 19.5171 15.459 19.8979 16.0846C20.3059 16.7102 20.1155 17.5534 19.4899 17.9342Z" fill="#fff"/></symbol><symbol viewBox="0 0 16 16" fill="none" id="svg-personal"><path d="M10.7824 8.53247C11.5177 7.95397 12.0544 7.16066 12.3178 6.26293C12.5812 5.36519 12.5583 4.40767 12.2522 3.52357C11.9461 2.63947 11.3721 1.87277 10.6099 1.33011C9.84779 0.787461 8.93547 0.49585 7.99988 0.49585C7.06429 0.49585 6.15196 0.787461 5.38982 1.33011C4.62769 1.87277 4.05363 2.63947 3.74754 3.52357C3.44144 4.40767 3.41851 5.36519 3.68195 6.26293C3.94538 7.16066 4.48208 7.95397 5.21738 8.53247C3.95743 9.03725 2.85809 9.87448 2.03655 10.9549C1.215 12.0353 0.702048 13.3185 0.552375 14.6675C0.541541 14.766 0.550213 14.8656 0.577895 14.9608C0.605576 15.0559 0.651726 15.1447 0.713709 15.222C0.83889 15.3781 1.02096 15.4781 1.21988 15.5C1.41879 15.5219 1.61825 15.4638 1.77437 15.3386C1.93049 15.2135 2.0305 15.0314 2.05238 14.8325C2.21706 13.3664 2.91614 12.0123 4.01604 11.0291C5.11594 10.0458 6.53955 9.50224 8.01488 9.50224C9.4902 9.50224 10.9138 10.0458 12.0137 11.0291C13.1136 12.0123 13.8127 13.3664 13.9774 14.8325C13.9978 15.0168 14.0857 15.187 14.2242 15.3102C14.3627 15.4335 14.542 15.5011 14.7274 15.5H14.8099C15.0065 15.4774 15.1862 15.3779 15.3098 15.2234C15.4334 15.0689 15.491 14.8717 15.4699 14.675C15.3195 13.3221 14.8038 12.0357 13.978 10.9536C13.1522 9.87154 12.0476 9.03458 10.7824 8.53247V8.53247ZM7.99988 7.99997C7.40653 7.99997 6.82651 7.82403 6.33317 7.49438C5.83982 7.16474 5.4553 6.6962 5.22824 6.14802C5.00117 5.59984 4.94176 4.99664 5.05752 4.4147C5.17328 3.83276 5.459 3.29821 5.87856 2.87865C6.29811 2.45909 6.83266 2.17337 7.41461 2.05762C7.99655 1.94186 8.59975 2.00127 9.14793 2.22833C9.69611 2.4554 10.1646 2.83991 10.4943 3.33326C10.8239 3.82661 10.9999 4.40663 10.9999 4.99997C10.9999 5.79562 10.6838 6.55868 10.1212 7.12129C9.55859 7.6839 8.79553 7.99997 7.99988 7.99997Z" fill="#65728B"/></symbol><symbol viewBox="0 0 37 37" fill="none" id="svg-psychiatry"><rect width="37" height="37" rx="8" fill="#C8EEE6"/><path d="M28.9624 14.2331C28.9624 12.2681 27.5395 10.629 25.6699 10.2924C25.3332 8.4229 23.6943 7 21.7293 7C20.4051 7 19.2296 7.64656 18.5002 8.64012C17.7709 7.64656 16.5953 7 15.2712 7C13.3062 7 11.6672 8.4229 11.3305 10.2923C9.46099 10.629 8.03809 12.2681 8.03809 14.233C8.03809 14.8627 8.26623 15.9729 8.88297 16.619C8.35374 17.2979 8.03809 18.1511 8.03809 19.0765C8.03809 20.4756 8.76882 21.7526 9.92223 22.4733C9.7445 22.9314 9.65258 23.4205 9.65258 23.9201C9.65258 25.3047 10.3807 26.5939 11.5404 27.3189C11.7894 28.8344 13.1167 30 14.6945 30C15.8936 30 17.6031 28.7055 18.5002 27.9484C19.3974 28.7055 21.1068 30 22.3059 30C23.8837 30 25.211 28.8344 25.4601 27.319C26.6198 26.594 27.3479 25.3047 27.3479 23.9202C27.3479 23.4205 27.2559 22.9315 27.0782 22.4734C28.2317 21.7527 28.9624 20.4757 28.9624 19.0766C28.9624 18.1511 28.6467 17.298 28.1175 16.6191C28.7341 15.973 28.9624 14.8627 28.9624 14.2331ZM17.7252 26.5713C16.6498 27.5133 15.2632 28.45 14.6945 28.45C13.7997 28.45 13.0613 27.7221 13.0484 26.8272C13.0484 26.8238 13.0477 26.8203 13.0476 26.8169C13.0804 25.9502 13.7933 25.245 14.6672 25.2324C15.0951 25.2263 15.4371 24.8744 15.431 24.4464C15.425 24.0222 15.0792 23.6825 14.6564 23.6825C14.6526 23.6825 14.6488 23.6825 14.645 23.6826C13.3917 23.7006 12.3073 24.4519 11.8002 25.5214C11.423 25.0826 11.2024 24.5159 11.2024 23.9201C11.2024 23.4314 11.3457 22.9595 11.6168 22.5554C11.7504 22.3562 11.7843 22.1064 11.7085 21.8789C11.6327 21.6514 11.4559 21.4717 11.2297 21.3923C10.2477 21.0479 9.58791 20.1173 9.58791 19.0765C9.58791 17.7233 10.6888 16.6224 12.042 16.6224C13.3952 16.6224 14.4961 17.7233 14.4961 19.0765C14.4961 19.5045 14.8431 19.8515 15.271 19.8515C15.6989 19.8515 16.046 19.5045 16.046 19.0765C16.046 16.8687 14.2497 15.0725 12.042 15.0725C11.321 15.0725 10.6437 15.2643 10.0587 15.5992C9.8406 15.4137 9.58799 14.7107 9.58799 14.233C9.58799 12.8798 10.6889 11.7789 12.0421 11.7789C12.47 11.7789 12.8171 11.4319 12.8171 11.0039C12.8171 9.65073 13.9179 8.54991 15.2711 8.54991C16.6243 8.54991 17.7252 9.65073 17.7252 11.0039V26.5713ZM21.7294 19.8515C22.1573 19.8515 22.5043 19.5045 22.5043 19.0765C22.5043 17.7233 23.6051 16.6224 24.9583 16.6224C26.3115 16.6224 27.4125 17.7233 27.4125 19.0765C27.4125 20.1173 26.7527 21.048 25.7707 21.3923C25.5444 21.4717 25.3676 21.6514 25.2919 21.8789C25.2161 22.1064 25.2501 22.3562 25.3836 22.5554C25.6547 22.9596 25.798 23.4314 25.798 23.9201C25.798 24.516 25.5774 25.0826 25.2002 25.5215C24.6932 24.452 23.6087 23.7006 22.3554 23.6827C22.3516 23.6826 22.3478 23.6826 22.344 23.6826C21.9212 23.6826 21.5754 24.0223 21.5694 24.4465C21.5632 24.8744 21.9052 25.2264 22.3332 25.2325C23.2074 25.245 23.9204 25.9505 23.9528 26.8174C23.9528 26.8207 23.9521 26.824 23.952 26.8273C23.9392 27.7221 23.2008 28.4501 22.306 28.4501C21.7373 28.4501 20.3506 27.5132 19.2753 26.5714V11.0039C19.2753 9.65073 20.3762 8.54991 21.7294 8.54991C23.0826 8.54991 24.1834 9.65073 24.1834 11.0039C24.1834 11.4319 24.5304 11.7789 24.9583 11.7789C26.3115 11.7789 27.4125 12.8798 27.4125 14.233C27.4124 14.7107 27.1598 15.4137 26.9418 15.5992C26.3568 15.2643 25.6794 15.0725 24.9583 15.0725C22.7506 15.0725 20.9544 16.8688 20.9544 19.0765C20.9544 19.5045 21.3014 19.8515 21.7294 19.8515Z" fill="#000"/></symbol><symbol viewBox="0 0 36 36" fill="none" id="svg-psychotherapy"><rect width="36" height="36" rx="8" fill="#C8EEE6"/><path d="M19.1076 6C17.5686 6 16.089 6.33155 14.7084 6.98474C12.9567 7.80124 11.4721 9.08783 10.4132 10.7109C9.32944 12.3786 8.75542 14.3134 8.75542 16.3126V17.7476L6.87006 21.3501C6.52367 22.0132 6.50882 22.6961 6.82552 23.2206C7.14222 23.7452 7.75583 24.047 8.50305 24.047H8.75542V26.9419C8.75542 28.4264 9.96284 29.6338 11.4474 29.6338C11.482 29.6338 11.5216 29.6289 11.5562 29.6239L19.9934 28.2186C21.3294 28.0355 22.329 26.8825 22.3241 25.5365V20.6029C24.3084 20.2812 25.8325 18.5542 25.8325 16.4759C25.8325 14.1699 23.9571 12.2944 21.6511 12.2944C19.3451 12.2944 17.4696 14.1699 17.4696 16.4759C17.4696 18.5592 18.9987 20.2862 20.9929 20.6078V25.5464C20.9979 26.2293 20.4882 26.8132 19.8152 26.9023C19.8053 26.9023 19.8004 26.9023 19.7905 26.9072L11.3979 28.2928C10.6754 28.268 10.0915 27.6693 10.0915 26.9369V23.374C10.0915 23.0029 9.7946 22.706 9.42346 22.706H8.4981C8.23583 22.706 8.03295 22.6367 7.96367 22.5229C7.89439 22.4091 7.92903 22.1963 8.04779 21.9637L10.0123 18.2177C10.0618 18.1237 10.0866 18.0148 10.0866 17.906V16.3076C10.0866 12.8388 12.1204 9.65196 15.2676 8.19216H15.2725C16.475 7.62309 17.7616 7.33608 19.1026 7.33608C24.0461 7.33608 28.0643 11.3592 28.0643 16.2977C28.0643 18.8017 27.0053 21.2066 25.1595 22.9039C25.021 23.0326 24.9418 23.2107 24.9418 23.3938V26.4718V29.332C24.9418 29.7031 25.2387 30 25.6098 30C25.981 30 26.2779 29.7031 26.2779 29.332V26.4718V23.6858C27.2181 22.7753 27.9653 21.7113 28.4997 20.5138C29.0985 19.1827 29.4004 17.7674 29.4004 16.2977C29.4053 10.6219 24.7835 6 19.1076 6ZM18.8008 16.4709C18.8008 14.9023 20.0775 13.6256 21.6462 13.6256C23.2148 13.6256 24.4916 14.9023 24.4916 16.4709C24.4916 18.0396 23.2148 19.3163 21.6462 19.3163C20.0775 19.3163 18.8008 18.0396 18.8008 16.4709Z" fill="#000"/></symbol><symbol viewBox="0 0 37 37" fill="none" id="svg-reflex"><rect width="37" height="37" rx="8" fill="#C8EEE6"/><path d="M10.9102 12.5C12.0147 12.5 12.9102 11.6046 12.9102 10.5 12.9102 9.39543 12.0147 8.5 10.9102 8.5 9.80559 8.5 8.91016 9.39543 8.91016 10.5 8.91016 11.6046 9.80559 12.5 10.9102 12.5zM24.9102 27.5C26.0147 27.5 26.9102 26.6046 26.9102 25.5 26.9102 24.3954 26.0147 23.5 24.9102 23.5 23.8056 23.5 22.9102 24.3954 22.9102 25.5 22.9102 26.6046 23.8056 27.5 24.9102 27.5zM24.5898 14.09C25.9706 14.09 27.0898 12.9707 27.0898 11.59 27.0898 10.2093 25.9706 9.09003 24.5898 9.09003 23.2091 9.09003 22.0898 10.2093 22.0898 11.59 22.0898 12.9707 23.2091 14.09 24.5898 14.09zM15.9102 24.5C18.1193 24.5 19.9102 22.7091 19.9102 20.5 19.9102 18.2909 18.1193 16.5 15.9102 16.5 13.701 16.5 11.9102 18.2909 11.9102 20.5 11.9102 22.7091 13.701 24.5 15.9102 24.5zM14.1205 16.92L11.8105 12.29M18.7402 17.67L22.9102 13.5M18.6309 23.43L23.1509 24.56" stroke="#000" stroke-width="1.5" stroke-linecap="round" stroke-linejoin="round"/></symbol><symbol viewBox="0 0 18 18" fill="none" id="svg-search"><path d="M16.2825 15.2176L13.5 12.4576C14.5801 11.1109 15.1032 9.40152 14.9617 7.68103C14.8201 5.96053 14.0248 4.35964 12.7392 3.20753C11.4536 2.05543 9.7754 1.43968 8.04974 1.4869C6.32408 1.53412 4.68209 2.24072 3.46141 3.46141C2.24072 4.68209 1.53412 6.32408 1.4869 8.04974C1.43968 9.77541 2.05543 11.4536 3.20753 12.7392C4.35964 14.0248 5.96053 14.8201 7.68102 14.9617C9.40152 15.1032 11.1109 14.5801 12.4576 13.5001L15.2176 16.2601C15.2873 16.3303 15.3702 16.3861 15.4616 16.4242C15.553 16.4623 15.651 16.4819 15.75 16.4819C15.8491 16.4819 15.9471 16.4623 16.0385 16.4242C16.1299 16.3861 16.2128 16.3303 16.2825 16.2601C16.4177 16.1202 16.4933 15.9333 16.4933 15.7388C16.4933 15.5443 16.4177 15.3574 16.2825 15.2176ZM8.25005 13.5001C7.2117 13.5001 6.19666 13.1921 5.33331 12.6153C4.46995 12.0384 3.79704 11.2185 3.39968 10.2591C3.00232 9.29983 2.89836 8.24423 3.10093 7.22583C3.3035 6.20743 3.80351 5.27197 4.53774 4.53774C5.27197 3.80351 6.20743 3.3035 7.22583 3.10093C8.24423 2.89836 9.29983 3.00232 10.2591 3.39968C11.2185 3.79704 12.0384 4.46995 12.6153 5.33331C13.1921 6.19666 13.5 7.2117 13.5 8.25005C13.5 9.64244 12.9469 10.9778 11.9624 11.9624C10.9778 12.9469 9.64244 13.5001 8.25005 13.5001Z" fill="#65728B"/></symbol><symbol viewBox="0 0 17 17" fill="none" id="svg-star"><path d="M15.5458 6.5018C15.5013 6.37066 15.4193 6.25544 15.3101 6.17034C15.2008 6.08525 15.069 6.03402 14.931 6.02297L10.8928 5.70209L9.1453 1.83389C9.08965 1.7093 8.99913 1.60348 8.88467 1.5292C8.7702 1.45492 8.63669 1.41536 8.50024 1.41528C8.36379 1.41521 8.23023 1.45463 8.11568 1.52878C8.00114 1.60293 7.9105 1.70865 7.85472 1.83318L6.10726 5.70209L2.06905 6.02297C1.93337 6.03372 1.80366 6.08333 1.69544 6.16586C1.58722 6.2484 1.50507 6.36036 1.45882 6.48836C1.41256 6.61637 1.40416 6.75498 1.43463 6.88763C1.46509 7.02028 1.53313 7.14135 1.63059 7.23634L4.6148 10.1455L3.55938 14.7156C3.52734 14.854 3.53761 14.9987 3.58886 15.1312C3.64012 15.2636 3.73 15.3776 3.84683 15.4583C3.96366 15.539 4.10205 15.5827 4.24405 15.5838C4.38604 15.5849 4.52509 15.5433 4.64313 15.4643L8.50001 12.8931L12.3569 15.4643C12.4775 15.5445 12.6198 15.5857 12.7646 15.5825C12.9094 15.5793 13.0498 15.5319 13.1668 15.4466C13.2838 15.3613 13.3719 15.2422 13.4192 15.1053C13.4665 14.9684 13.4708 14.8203 13.4314 14.6809L12.1359 10.1476L15.3489 7.25618C15.5593 7.06634 15.6365 6.77026 15.5458 6.5018V6.5018Z" fill="#FFAE59"/></symbol><symbol viewBox="0 0 30 30" fill="none" id="svg-vk"><path d="M0 4.6875C0 2.09867 2.09867 0 4.6875 0H25.3125C27.9013 0 30 2.09867 30 4.6875V25.3125C30 27.9013 27.9013 30 25.3125 30H4.6875C2.09867 30 0 27.9013 0 25.3125V4.6875Z" fill="#83BCFD"/><path d="M15.7199 19.9576C10.5899 19.9576 7.66492 16.4476 7.54492 10.5976H10.1249C10.2074 14.8876 12.0974 16.7026 13.5974 17.0776V10.5976H16.0199V14.2951C17.4974 14.1376 19.0574 12.4501 19.5824 10.5901H21.9974C21.8005 11.5529 21.4072 12.4648 20.8419 13.2687C20.2767 14.0727 19.5518 14.7514 18.7124 15.2626C19.6491 15.7288 20.4763 16.3883 21.1395 17.1976C21.8027 18.0069 22.2868 18.9475 22.5599 19.9576H19.8974C19.3274 18.1801 17.9024 16.8001 16.0199 16.6126V19.9576H15.7274H15.7199Z" fill="#fff"/></symbol><symbol viewBox="0 0 24 24" fill="none" id="svg-whatsapp"><path d="M20.25 0H3.75C1.67893 0 0 1.67893 0 3.75V20.25C0 22.3211 1.67893 24 3.75 24H20.25C22.3211 24 24 22.3211 24 20.25V3.75C24 1.67893 22.3211 0 20.25 0Z" fill="#96EFB8"/><path fill-rule="evenodd" clip-rule="evenodd" d="M16.2 7.725C15.075 6.6 13.575 6 12 6C8.7 6 6 8.7 6 12C6 13.05 6.3 14.1 6.825 15L6 18L9.15001 17.175C10.05 17.625 11.025 17.925 12 17.925C15.3 17.925 18 15.225 18 11.925C18 10.35 17.325 8.85 16.2 7.725ZM12 16.95C11.1 16.95 10.2 16.725 9.45 16.275L9.3 16.2L7.425 16.725L7.95 14.925L7.8 14.7C7.275 13.875 7.05 12.975 7.05 12.075C7.05 9.375 9.3 7.125 12 7.125C13.35 7.125 14.55 7.65 15.525 8.55C16.5 9.525 16.95 10.725 16.95 12.075C16.95 14.7 14.775 16.95 12 16.95ZM14.7 13.2C14.55 13.125 13.8 12.75 13.65 12.75C13.5 12.675 13.425 12.675 13.35 12.825C13.275 12.975 12.975 13.275 12.9 13.425C12.825 13.5 12.75 13.5 12.6 13.5C12.45 13.425 12 13.275 11.4 12.75C10.95 12.375 10.65 11.85 10.575 11.7C10.5 11.55 10.575 11.475 10.65 11.4C10.725 11.325 10.8 11.25 10.875 11.175C10.95 11.1 10.95 11.025 11.025 10.95C11.1 10.875 11.025 10.8 11.025 10.725C11.025 10.65 10.725 9.9 10.575 9.6C10.5 9.375 10.35 9.375 10.275 9.375C10.2 9.375 10.125 9.375 9.97499 9.375C9.89999 9.375 9.74999 9.375 9.59999 9.525C9.44999 9.675 9.075 10.05 9.075 10.8C9.075 11.55 9.6 12.225 9.675 12.375C9.75 12.45 10.725 14.025 12.225 14.625C13.5 15.15 13.725 15 14.025 15C14.325 15 14.925 14.625 15 14.325C15.15 13.95 15.15 13.65 15.075 13.65C15 13.275 14.85 13.275 14.7 13.2Z" fill="#fff"/></symbol><symbol viewBox="0 0 40 40" fill="none" id="svg-white-instagram"><rect width="40" height="40" rx="10" fill="#fff"/><path d="M20.35 12.4167C22.9167 12.4167 23.2667 12.4167 24.3167 12.4167C24.7733 12.4167 25.1183 12.4726 25.3925 12.5433C25.8507 12.6615 26.2892 12.8532 26.705 13.0791C26.8903 13.1797 27.0618 13.2952 27.2333 13.4667C27.5833 13.8167 27.8167 14.1667 27.9333 14.6334C28.05 14.9834 28.1667 15.4501 28.2833 16.3834C28.2833 17.4334 28.2833 17.6667 28.2833 20.3501C28.2833 23.0334 28.2833 23.2667 28.2833 24.3167C28.2833 24.7734 28.2275 25.1184 28.1567 25.3926C28.0386 25.8508 27.8469 26.2893 27.621 26.705C27.5204 26.8903 27.4049 27.0619 27.2333 27.2334C26.8833 27.5834 26.5333 27.8167 26.0667 27.9334C25.7167 28.0501 25.25 28.1667 24.3167 28.2834C23.2667 28.2834 23.0333 28.2834 20.35 28.2834C17.6667 28.2834 17.4333 28.2834 16.3833 28.2834C15.9266 28.2834 15.5817 28.2275 15.3075 28.1568C14.8493 28.0386 14.4108 27.847 13.995 27.6211C13.8098 27.5204 13.6382 27.405 13.4667 27.2334C13.1167 26.8834 12.8833 26.5334 12.7667 26.0667C12.65 25.7167 12.5333 25.2501 12.4167 24.3167C12.4167 23.2667 12.4167 23.0334 12.4167 20.3501C12.4167 17.6667 12.4167 17.4334 12.4167 16.3834C12.4167 15.9267 12.4725 15.5818 12.5433 15.3076C12.6614 14.8494 12.8531 14.4109 13.079 13.9951C13.1796 13.8098 13.2951 13.6383 13.4667 13.4667C13.8167 13.1167 14.1667 12.8834 14.6333 12.7667C14.9833 12.6501 15.45 12.5334 16.3833 12.4167C17.4333 12.4167 17.7833 12.4167 20.35 12.4167ZM20.35 10.6667C17.6667 10.6667 17.4333 10.6667 16.3833 10.6667C15.3333 10.6667 14.6333 10.9001 14.05 11.1334C13.4667 11.3667 12.8833 11.7167 12.3 12.3001C11.7167 12.8834 11.4833 13.3501 11.1333 14.0501C10.9 14.6334 10.7833 15.3334 10.6667 16.3834C10.6667 17.4334 10.6667 17.7834 10.6667 20.3501C10.6667 23.0334 10.6667 23.2667 10.6667 24.3167C10.6667 25.3667 10.9 26.0667 11.1333 26.6501C11.3667 27.2334 11.7167 27.8167 12.3 28.4001C12.8833 28.9834 13.35 29.2167 14.05 29.5667C14.6333 29.8001 15.3333 29.9167 16.3833 30.0334C17.4333 30.0334 17.7833 30.0334 20.35 30.0334C22.9167 30.0334 23.2667 30.0334 24.3167 30.0334C25.3667 30.0334 26.0667 29.8001 26.65 29.5667C27.2333 29.3334 27.8167 28.9834 28.4 28.4001C28.9833 27.8167 29.2167 27.3501 29.5667 26.6501C29.8 26.0667 29.9167 25.3667 30.0333 24.3167C30.0333 23.2667 30.0333 22.9167 30.0333 20.3501C30.0333 17.7834 30.0333 17.4334 30.0333 16.3834C30.0333 15.3334 29.8 14.6334 29.5667 14.0501C29.3333 13.4667 28.9833 12.8834 28.4 12.3001C27.8167 11.7167 27.35 11.4834 26.65 11.1334C26.0667 10.9001 25.3667 10.7834 24.3167 10.6667C23.2667 10.6667 23.0333 10.6667 20.35 10.6667Z" fill="#0D0D5D"/><path d="M20.35 15.3334C17.55 15.3334 15.3333 17.5501 15.3333 20.3501 15.3333 23.1501 17.55 25.3667 20.35 25.3667 23.15 25.3667 25.3667 23.1501 25.3667 20.3501 25.3667 17.5501 23.15 15.3334 20.35 15.3334zM20.35 23.6167C18.6 23.6167 17.0833 22.2167 17.0833 20.3501 17.0833 18.6001 18.4833 17.0834 20.35 17.0834 22.1 17.0834 23.6167 18.4834 23.6167 20.3501 23.6167 22.1001 22.1 23.6167 20.35 23.6167zM25.4833 16.3834C26.1277 16.3834 26.65 15.8611 26.65 15.2167 26.65 14.5724 26.1277 14.0501 25.4833 14.0501 24.839 14.0501 24.3167 14.5724 24.3167 15.2167 24.3167 15.8611 24.839 16.3834 25.4833 16.3834z" fill="#0D0D5D"/></symbol><symbol viewBox="0 0 40 40" fill="none" id="svg-white-vk"><rect width="40" height="40" rx="10" fill="#fff"/><path d="M20.84 26.3241C14.456 26.3241 10.816 21.9561 10.6667 14.6761H13.8773C13.98 20.0147 16.332 22.2734 18.1987 22.7401V14.6761H21.2133V19.2774C23.052 19.0814 24.9933 16.9814 25.6467 14.6667H28.652C28.407 15.8649 27.9174 16.9997 27.2141 18.0002C26.5107 19.0006 25.6085 19.8453 24.564 20.4814C25.7297 21.0616 26.7591 21.8823 27.5844 22.8894C28.4097 23.8965 29.0122 25.0671 29.352 26.3241H26.0387C25.3293 24.1121 23.556 22.3947 21.2133 22.1614V26.3241H20.8493H20.84Z" fill="#0D0D5D"/></symbol></svg>