<svg width="38" height="50" viewBox="0 0 38 50" fill="none" xmlns="http://www.w3.org/2000/svg">
<path d="M19 0C9.01515 0 0.891907 8.12324 0.891907 18.108C0.891907 30.4994 17.0969 48.6907 17.7868 49.4591C18.4349 50.1809 19.5663 50.1796 20.2132 49.4591C20.9031 48.6907 37.1081 30.4994 37.1081 18.108C37.1079 8.12324 28.9848 0 19 0ZM19 27.2187C13.9764 27.2187 9.88946 23.1316 9.88946 18.108C9.88946 13.0844 13.9765 8.99746 19 8.99746C24.0235 8.99746 28.1105 13.0845 28.1105 18.1081C28.1105 23.1317 24.0235 27.2187 19 27.2187Z" fill="white"/>
</svg>
