<svg xmlns="http://www.w3.org/2000/svg" version="1.1" xmlns:xlink="http://www.w3.org/1999/xlink" xmlns:svgjs="http://svgjs.com/svgjs" width="68" height="68"><svg width="68" height="68" viewBox="0 0 68 68" fill="none" xmlns="http://www.w3.org/2000/svg">
<path fill-rule="evenodd" clip-rule="evenodd" d="M34 0C52.7777 0 68 15.2223 68 34C68 52.7777 52.7777 68 34 68C15.2223 68 0 52.7777 0 34C0 15.2223 15.2223 0 34 0Z" fill="#99E1D2"></path>
<path fill-rule="evenodd" clip-rule="evenodd" d="M65.8677 21.2676C67.2453 25.0334 68 29.11 68 33.3672C68 49.7092 56.9041 63.3984 41.9987 66.9851L27.6069 56.6799L28.1825 55.2077L16.2388 47.4064L17.39 39.1634L16.3828 31.8034L21.2754 22.8245C25.6063 8.70162 38.0512 9.91648 46.3136 13.551L65.8677 21.2676Z" fill="#00839A"></path>
<path fill-rule="evenodd" clip-rule="evenodd" d="M38.7859 30.8417C39.7449 28.4949 40.7446 22.8946 46.6162 24.1085C45.612 25.9325 44.1464 27.4875 43.66 29.6245L43.2384 31.4058C42.8056 32.2221 42.5301 36.8323 42.7071 37.9656C43.3951 42.3739 49.3213 37.004 50.1442 34.7242C51.1769 31.863 51.5075 28.7472 50.77 25.8014C49.8623 22.1762 47.0662 19.0186 48.1407 17.8458C48.5152 17.4371 49.2012 17.4636 49.8047 17.6444C50.5193 17.8582 50.8093 18.1303 51.2152 18.5759C52.2827 19.748 53.6374 22.7973 54.1483 24.5866C55.9137 30.7691 54.3721 37.2251 50.7594 42.2269C50.4447 42.6625 50.1362 43.0636 49.8075 43.4745C47.7479 46.0483 45.3241 47.1729 45.4843 50.5258C45.6047 53.0464 46.942 55.4159 47.6174 57.5307L35.0799 57.5401C34.7814 54.2234 31.3869 49.6099 31.124 47.2173C30.9521 45.6522 31.1359 44.2692 31.6711 42.9597C32.6793 40.4924 34.4222 39.1795 35.6893 37.3407C36.8605 35.6416 37.924 32.96 38.7859 30.8417Z" fill="white"></path>
<path fill-rule="evenodd" clip-rule="evenodd" d="M35.5146 13.3073C30.5353 13.3073 26.0468 16.0004 23.8038 19.9508C21.9912 23.1433 22.2399 26.8334 18.3773 31.1842C15.6812 34.2216 18.3008 34.6493 18.8867 35.9105C19.5812 37.4049 16.7975 38.0884 18.5274 40.1261C18.6782 40.3039 18.5994 40.1804 18.7388 40.391C17.1409 41.3039 18.6694 42.0844 18.9827 42.6891C19.5316 43.7485 15.6163 47.0071 20.5909 47.1709C25.9724 47.3484 25.52 47.1498 28.2591 51.7183C28.6745 52.4107 31.0275 56.6571 30.5177 57.3404C30.2706 57.5886 30.6617 57.3772 30.2444 57.4943L27.4022 57.5252C27.0592 56.8796 26.7453 55.6335 26.4356 54.7853C25.4031 51.9574 24.3263 48.8026 20.3688 48.9325C18.8227 48.9834 14.7566 49.422 15.5135 46.5053C15.719 45.7137 16.2802 45.0529 16.26 44.1879C16.2343 43.1023 15.4316 42.8373 15.0347 42.2589C15.1088 41.5006 15.6149 41.3308 15.9614 40.609C15.5444 39.748 14.6782 39.7084 15.2731 38.4137C15.6142 37.6713 16.1928 36.8349 15.7106 35.9084C15.4814 35.4676 15.2466 35.355 14.8853 35.0781C13.2513 33.8261 12.7406 33.1082 13.9699 31.8689C15.3895 30.4382 15.841 30.4151 17.3667 28.246C20.7576 23.4256 19.3867 18.7673 24.6835 14.4917C25.9625 13.4591 27.1264 12.525 28.9637 11.7465C34.6472 9.33837 40.3627 10.4145 45.5746 13.4714C46.4032 13.9576 47.8068 14.4526 47.727 15.6681C47.6406 16.9829 46.2685 17.4425 45.1575 16.7834C44.7071 16.5165 44.3333 16.2067 43.8334 15.9039C41.3762 14.4171 38.7171 13.3073 35.5146 13.3073Z" fill="white"></path>
<path fill-rule="evenodd" clip-rule="evenodd" d="M40.202 27.3769L38.786 30.8418C38.0923 29.9567 37.0388 29.6042 37.1908 27.9571C37.2582 27.2248 37.6327 26.8195 38.4001 26.7809C39.3599 26.7333 39.7097 27.089 40.202 27.3769ZM51.1811 28.7798C51.1434 30.9159 50.823 32.8442 50.1444 34.7243C49.3214 37.0041 43.3953 42.374 42.7072 37.9657C42.5303 36.8324 42.8057 32.2222 43.2385 31.4059C44.2631 32.3322 45.6715 36.7252 46.0562 38.5343C46.2496 36.3854 44.6348 31.0822 43.6601 29.6246C43.832 28.8691 44.8835 26.4582 45.5855 25.859C46.3133 26.7501 47.2796 29.3536 47.7033 30.6252C48.5866 33.2743 48.5218 34.4281 48.9735 36.0395C49.292 33.094 47.9677 29.7502 46.8799 27.0064C46.065 24.9511 46.6469 25.6096 44.8395 22.9774C44.169 22.001 43.2751 21.3199 43.5297 19.5663C43.6736 18.574 44.2826 18.229 45.3851 18.4767C46.8421 18.8039 48.8365 22.5261 50.0123 25.4021C50.4824 26.5518 50.7522 27.6559 51.1811 28.7798ZM44.4082 23.9984C43.8641 24.2105 43.3929 24.3086 42.7809 24.6035C42.0817 24.9401 41.7755 25.2786 41.2611 25.5842C40.9457 25.189 40.0054 24.0782 39.9 23.6846C39.6676 22.8173 39.689 21.4338 40.525 21.0989C40.991 20.9125 41.5562 21.0016 42.0189 21.1652C42.7599 21.4272 44.0956 23.34 44.4082 23.9984Z" fill="#99E1D2"></path>
</svg><style>@media (prefers-color-scheme: light) { :root { filter: none; } }
@media (prefers-color-scheme: dark) { :root { filter: contrast(0.8333333333333334) brightness(1.7); } }
</style></svg>