<svg width="194" height="58" viewBox="0 0 194 58" fill="none" xmlns="http://www.w3.org/2000/svg">
<path fill-rule="evenodd" clip-rule="evenodd" d="M28.6163 0C44.4207 0 57.2326 12.8119 57.2326 28.6163C57.2326 44.4207 44.4207 57.2326 28.6163 57.2326C12.8119 57.2326 0 44.4207 0 28.6163C0 12.8119 12.8119 0 28.6163 0Z" fill="#99E1D2"/>
<path fill-rule="evenodd" clip-rule="evenodd" d="M55.5586 18.0777C56.718 21.2472 57.3533 24.6783 57.3533 28.2614C57.3533 42.0158 48.0143 53.5373 35.4691 56.5561L23.3561 47.8827L23.8406 46.6436L13.7881 40.0776L14.757 33.1398L13.9092 26.9452L18.0271 19.388C21.6723 7.50146 32.1466 8.52395 39.1007 11.583L55.5586 18.0777Z" fill="#65728B"/>
<path fill-rule="evenodd" clip-rule="evenodd" d="M32.6445 25.9558C33.4516 23.9806 34.293 19.2671 39.2349 20.2887C38.3897 21.8239 37.1561 23.1327 36.7468 24.9313L36.3919 26.4306C36.0277 27.1176 35.7958 30.9978 35.9448 31.9516C36.5239 35.6619 41.5117 31.1423 42.2043 29.2235C43.0734 26.8153 43.3517 24.193 42.731 21.7136C41.967 18.6624 39.6137 16.0048 40.518 15.0177C40.8332 14.6737 41.4105 14.696 41.9185 14.8481C42.5199 15.0281 42.764 15.2571 43.1057 15.6322C44.0042 16.6187 45.1444 19.1851 45.5743 20.6911C47.0602 25.8946 45.7627 31.3284 42.722 35.5382C42.4572 35.9048 42.1975 36.2424 41.9209 36.5883C40.1874 38.7545 38.1474 39.701 38.2822 42.523C38.3835 44.6445 39.5091 46.6388 40.0776 48.4187L29.5253 48.4267C29.274 45.6351 26.4171 41.7521 26.1958 39.7384C26.0511 38.4211 26.2058 37.2571 26.6562 36.1549C27.5048 34.0784 28.9718 32.9733 30.0382 31.4257C31.024 29.9957 31.919 27.7386 32.6445 25.9558Z" fill="white"/>
<path fill-rule="evenodd" clip-rule="evenodd" d="M29.891 11.2012C25.7001 11.2012 21.9223 13.4679 20.0345 16.7928C18.5089 19.4797 18.7182 22.5855 15.4673 26.2474C13.1981 28.8039 15.4029 29.1639 15.896 30.2253C16.4806 31.4831 14.1376 32.0584 15.5936 33.7735C15.7205 33.923 15.6542 33.8191 15.7715 33.9964C14.4266 34.7647 15.7131 35.4216 15.9768 35.9306C16.4388 36.8223 13.1435 39.5649 17.3303 39.7028C21.8598 39.8521 21.479 39.685 23.7844 43.53C24.134 44.1129 26.1144 47.6868 25.6853 48.2619C25.4773 48.4709 25.8065 48.2929 25.4553 48.3915L23.0632 48.4175C22.7745 47.8741 22.5102 46.8253 22.2496 46.1114C21.3806 43.7313 20.4743 41.0761 17.1434 41.1854C15.8421 41.2282 12.4199 41.5974 13.057 39.1425C13.2299 38.4762 13.7022 37.9201 13.6852 37.1921C13.6636 36.2784 12.988 36.0553 12.6539 35.5685C12.7163 34.9303 13.1423 34.7874 13.4339 34.1799C13.0829 33.4552 12.3539 33.4219 12.8546 32.3322C13.1417 31.7073 13.6287 31.0033 13.2228 30.2235C13.0299 29.8526 12.8323 29.7578 12.5282 29.5247C11.1529 28.471 10.7231 27.8667 11.7578 26.8237C12.9526 25.6195 13.3326 25.6001 14.6167 23.7745C17.4707 19.7174 16.3168 15.7967 20.7749 12.1981C21.8514 11.329 22.831 10.5428 24.3774 9.88754C29.1609 7.86076 33.9714 8.76651 38.358 11.3394C39.0554 11.7485 40.2368 12.1652 40.1696 13.1882C40.0969 14.2948 38.942 14.6816 38.007 14.1269C37.6279 13.9023 37.3133 13.6415 36.8925 13.3867C34.8244 12.1353 32.5864 11.2012 29.891 11.2012Z" fill="white"/>
<path fill-rule="evenodd" clip-rule="evenodd" d="M33.8363 23.0437L32.6446 25.9599C32.0607 25.2149 31.174 24.9183 31.3019 23.532C31.3586 22.9157 31.6739 22.5745 32.3197 22.5421C33.1275 22.5019 33.422 22.8014 33.8363 23.0437ZM43.0769 24.2244C43.0452 26.0223 42.7755 27.6452 42.2044 29.2276C41.5117 31.1464 36.5239 35.666 35.9448 31.9557C35.7959 31.0019 36.0278 27.1217 36.392 26.4347C37.2544 27.2143 38.4397 30.9117 38.7635 32.4344C38.9263 30.6257 37.5672 26.1622 36.7468 24.9355C36.8916 24.2996 37.7765 22.2704 38.3674 21.7661C38.9799 22.5161 39.7933 24.7073 40.1499 25.7776C40.8933 28.0073 40.8387 28.9783 41.2189 30.3346C41.487 27.8555 40.3724 25.0412 39.4568 22.7318C38.7709 21.0019 39.2607 21.5562 37.7395 19.3408C37.1752 18.5189 36.4228 17.9457 36.6371 16.4698C36.7582 15.6347 37.2707 15.3443 38.1987 15.5527C39.425 15.8282 41.1036 18.961 42.0932 21.3815C42.4889 22.3492 42.7159 23.2785 43.0769 24.2244ZM37.3765 20.2001C36.9186 20.3786 36.522 20.4612 36.0068 20.7094C35.4183 20.9927 35.1607 21.2776 34.7277 21.5348C34.4622 21.2022 33.6708 20.2673 33.5821 19.936C33.3866 19.206 33.4045 18.0416 34.1082 17.7597C34.5004 17.6028 34.9761 17.6778 35.3655 17.8155C35.9892 18.036 37.1134 19.646 37.3765 20.2001Z" fill="#99E1D2"/>
<path fill-rule="evenodd" clip-rule="evenodd" d="M91.5697 44.5958L91.605 50.1319C91.605 54.2722 89.4875 56.3423 85.2528 56.3423C84.9212 56.3423 84.5252 56.289 84.0639 56.1825C83.6024 56.076 83.3717 55.9403 83.3717 55.7745V49.7415H71.909C71.909 49.7888 71.9152 50.0018 71.9267 50.3801C71.9391 50.7589 71.9447 50.9836 71.9447 51.0544C71.9447 52.6869 71.3946 53.9823 70.2945 54.9404C69.1942 55.8986 67.6743 56.3779 65.7343 56.3779C65.4268 56.3779 65.0716 56.3246 64.6696 56.2181C64.2673 56.1116 64.0662 55.9755 64.0662 55.8102V45.2344C64.0662 45.1871 64.1018 45.1279 64.1727 45.057C64.1964 45.0334 64.2436 44.9978 64.3148 44.9505C64.646 44.7139 64.9535 44.4657 65.2374 44.2054C65.5214 43.9451 65.9589 43.3064 66.5504 42.2889C67.1418 41.2715 67.6387 40.0947 68.041 38.7578C68.4431 37.4212 68.7978 35.5108 69.1054 33.0266C69.4133 30.5425 69.555 27.7387 69.5314 24.616V24.5803C69.555 24.5095 69.6023 24.4622 69.6736 24.4386C72.3703 23.705 75.4283 23.3323 78.847 23.3206C82.2658 23.3082 85.3237 23.6814 88.0209 24.4386C88.0209 24.4386 88.0681 24.4738 88.1627 24.5447C88.1627 24.5683 88.1627 24.5924 88.1627 24.616L88.1274 44.3828H91.4276C91.522 44.3828 91.5697 44.4536 91.5697 44.5958ZM72.9737 44.3119L73.0094 44.3828H80.4618V28.626H76.5226C76.5226 37.3799 75.3398 42.6084 72.9737 44.3119ZM118.655 37.072C118.655 40.8338 117.532 44.0099 115.284 46.6007C113.036 49.1913 110.055 50.4867 106.341 50.4867C102.698 50.4867 99.7402 49.1854 97.4691 46.583C95.1976 43.9807 94.0621 40.8103 94.0621 37.072C94.0621 33.3342 95.2035 30.1521 97.4867 27.5257C99.7698 24.8999 102.721 23.5865 106.341 23.5865C109.984 23.5865 112.948 24.8999 115.231 27.5257C117.514 30.1521 118.655 33.3342 118.655 37.072ZM102.082 37.072C102.082 39.3199 102.485 41.4549 103.289 43.4778C104.093 45.5006 105.111 46.5121 106.341 46.5121C107.216 46.5121 107.991 46.0092 108.665 45.0037C109.34 43.9984 109.837 42.7916 110.156 41.3841C110.475 39.9763 110.635 38.5391 110.635 37.072C110.635 34.7536 110.233 32.5889 109.429 30.5777C108.624 28.5668 107.595 27.5614 106.341 27.5614C105.087 27.5614 104.064 28.5668 103.271 30.5777C102.479 32.5889 102.082 34.7536 102.082 37.072ZM129.878 33.417C132.007 33.1095 133.9 33.0975 135.556 33.3814C137.212 33.6653 138.614 34.1798 139.762 34.925C140.909 35.6705 141.778 36.581 142.37 37.6578C142.961 38.7341 143.257 39.9113 143.257 41.1887C143.257 44.028 142.317 46.2932 140.436 47.9849C138.555 49.6765 135.816 50.5223 132.22 50.5223C130.422 50.5223 128.837 50.2147 127.465 49.5994C126.093 48.9843 125.022 48.1743 124.253 47.1684C123.484 46.163 122.916 45.0983 122.55 43.9747C122.183 42.8508 122 41.6855 122 40.4791L122.035 24.4738C122.059 24.3794 122.118 24.32 122.213 24.2964C128.293 23.6814 134.563 23.6814 141.021 24.2964C141.163 24.2964 141.258 24.3557 141.305 24.4738C141.352 24.5924 141.4 24.74 141.447 24.9175C141.495 25.0949 141.524 25.4439 141.536 25.9645C141.548 26.4846 141.489 26.97 141.358 27.4192C141.228 27.8689 140.927 28.3538 140.453 28.8743C139.98 29.3949 139.365 29.8209 138.608 30.1521C137.827 30.4833 136.71 30.6546 135.255 30.6666C133.799 30.6778 132.54 30.6013 131.475 30.436L129.878 30.223V33.417ZM132.752 46.2282C133.652 46.2282 134.356 45.7845 134.864 44.8972C135.373 44.0099 135.627 43.0105 135.627 41.8985C135.627 40.1243 135.107 38.8939 134.066 38.208C133.025 37.5216 131.629 37.3443 129.878 37.6754V42.6084C129.902 43.5784 130.144 44.424 130.605 45.146C131.067 45.8674 131.782 46.2282 132.752 46.2282ZM146.601 44.3471L146.637 24.9351C146.661 24.8406 146.72 24.7813 146.814 24.7577C147.122 24.6631 147.542 24.5507 148.074 24.4205C148.606 24.2904 149.689 24.1251 151.321 23.9237C152.954 23.7226 154.563 23.6458 156.148 23.693C159.034 23.7879 161.442 24.5447 163.37 25.9645C165.298 27.384 166.262 29.3357 166.262 31.8198C166.262 32.6479 166.161 33.4522 165.96 34.233C165.759 35.0139 165.386 35.8183 164.842 36.6464C164.298 37.4745 163.6 38.184 162.748 38.7757C161.897 39.3672 160.755 39.8344 159.324 40.1772C157.893 40.5203 156.254 40.6565 154.409 40.5856V42.2889C154.432 43.33 154.545 44.1993 154.746 44.8972C154.947 45.5952 155.166 46.0802 155.403 46.3524C155.639 46.6243 155.876 46.8256 156.112 46.9558C156.349 47.0859 156.526 47.198 156.645 47.2929C156.763 47.3875 156.786 47.5176 156.715 47.6833C156.479 48.3692 155.881 49.0199 154.923 49.635C153.965 50.2501 152.978 50.5575 151.96 50.5575C150.399 50.5575 149.115 50.043 148.11 49.0139C147.104 47.9849 146.601 46.4292 146.601 44.3471ZM157.656 35.3687C158.472 34.3276 158.881 33.1212 158.881 31.7489C158.881 30.3768 158.461 29.2767 157.62 28.4487C156.781 27.6206 155.71 27.3127 154.409 27.5257V36.9303C155.757 36.9303 156.84 36.4097 157.656 35.3687ZM193.312 37.072C193.312 40.8338 192.189 44.0099 189.941 46.6007C187.693 49.1913 184.712 50.4867 180.998 50.4867C177.354 50.4867 174.397 49.1854 172.126 46.583C169.854 43.9807 168.719 40.8103 168.719 37.072C168.719 33.3342 169.86 30.1521 172.143 27.5257C174.427 24.8999 177.378 23.5865 180.998 23.5865C184.641 23.5865 187.605 24.8999 189.887 27.5257C192.17 30.1521 193.312 33.3342 193.312 37.072ZM176.739 37.072C176.739 39.3199 177.141 41.4549 177.946 43.4778C178.75 45.5006 179.767 46.5121 180.998 46.5121C181.873 46.5121 182.648 46.0092 183.322 45.0037C183.997 43.9984 184.493 42.7916 184.813 41.3841C185.132 39.9763 185.292 38.5391 185.292 37.072C185.292 34.7536 184.89 32.5889 184.085 30.5777C183.281 28.5668 182.252 27.5614 180.998 27.5614C179.744 27.5614 178.721 28.5668 177.928 30.5777C177.135 32.5889 176.739 34.7536 176.739 37.072Z" fill="white"/>
<path fill-rule="evenodd" clip-rule="evenodd" d="M72.2439 13.0771H67.9742V3.41553H69.1786V12.0233H71.3821V3.41553H72.5864V12.0233H73.4483V14.9932H72.2439V13.0771ZM77.9919 10.9559V11.2296C77.9919 11.4393 77.9716 11.64 77.9303 11.8319C77.8893 12.0233 77.8097 12.2311 77.6908 12.4543C77.5723 12.678 77.3762 12.8581 77.1025 12.995C76.8289 13.1319 76.4911 13.2003 76.0897 13.2003C75.2595 13.2003 74.6893 12.8949 74.3789 12.2834C74.2788 12.0643 74.2125 11.8365 74.1807 11.5991C74.1486 11.3619 74.1328 10.8419 74.1328 10.039V8.90297C74.1328 8.53832 74.1415 8.23477 74.1603 7.99316C74.1782 7.7513 74.2263 7.50046 74.3039 7.24057C74.3814 6.9803 74.4861 6.7775 74.6188 6.63157C74.751 6.48551 74.9379 6.3646 75.1799 6.26905C75.4215 6.17301 75.711 6.12512 76.0488 6.12512C77.3441 6.12512 77.9919 6.82306 77.9919 8.21884V9.8612H75.2274V10.6276C75.2274 10.9196 75.2349 11.1431 75.2483 11.298C75.2616 11.4532 75.2958 11.6221 75.3509 11.8044C75.4055 11.987 75.4969 12.1169 75.6245 12.1944C75.7522 12.2721 75.9211 12.3109 76.131 12.3109C76.4134 12.3109 76.6233 12.2194 76.7605 12.0372C76.8974 11.8545 76.9657 11.5399 76.9657 11.0928V10.9559H77.9919ZM76.9657 8.98521V8.36949C76.9657 8.06829 76.952 7.83131 76.9245 7.65775C76.8974 7.4847 76.8172 7.3248 76.685 7.17887C76.5527 7.03281 76.3588 6.95991 76.1035 6.95991C75.7477 6.95991 75.5149 7.08295 75.4056 7.32941C75.2958 7.57562 75.2412 7.97736 75.2412 8.53385V8.98521H76.9657ZM80.1817 13.0771H79.0867V6.23446H80.1817V9.09494H81.9196V6.23446H83.0142V13.0771H81.9196V9.91595H80.1817V13.0771ZM87.4211 7.05582H86.1346V13.0771H85.0125V7.05582H83.7126V6.23446H87.4211V7.05582ZM88.1187 6.23446H89.2138V6.89149C89.5875 6.37157 90.0485 6.1113 90.5959 6.1113C91.6358 6.1113 92.156 6.85974 92.156 8.35567V10.2993C92.156 10.6368 92.1485 10.915 92.1356 11.1339C92.1218 11.353 92.0851 11.6083 92.0259 11.9003C91.9667 12.1923 91.8823 12.4201 91.7727 12.5845C91.6633 12.7488 91.5036 12.8924 91.2937 13.0154C91.084 13.1388 90.8287 13.2003 90.5275 13.2003C89.9618 13.2003 89.5329 12.9679 89.2409 12.5023V15.2531H88.1187V6.23446ZM91.0063 10.8737V8.32856C91.0063 7.43417 90.7418 6.9874 90.2128 6.9874C89.5742 6.9874 89.2547 7.55299 89.2547 8.6844V10.9697C89.2547 11.3709 89.3276 11.7064 89.4737 11.9755C89.6196 12.2446 89.8524 12.3793 90.1716 12.3793C90.3631 12.3793 90.5207 12.3313 90.6438 12.2353C90.7668 12.1398 90.8512 12.0005 90.897 11.8182C90.9425 11.6358 90.9721 11.4807 90.9859 11.353C90.9996 11.225 91.0063 11.0656 91.0063 10.8737ZM97.1921 13.0771H96.097V6.23446H99.9838V13.0771H98.889V7.05582H97.1921V13.0771ZM104.965 10.5317V10.7097C104.965 11.6129 104.817 12.2537 104.52 12.6325C104.224 13.0108 103.706 13.2003 102.967 13.2003C102.128 13.2003 101.58 12.9128 101.325 12.3384C101.161 11.9912 101.078 11.1979 101.078 9.95676V9.14957C101.078 8.08199 101.209 7.30901 101.468 6.83002C101.728 6.35079 102.26 6.1113 103.063 6.1113C103.82 6.1113 104.326 6.29616 104.582 6.66566C104.837 7.03529 104.965 7.58931 104.965 8.32856V8.7115H103.925V8.35567C103.925 8.11867 103.919 7.93144 103.904 7.79459C103.891 7.65773 103.856 7.51428 103.802 7.36362C103.747 7.21308 103.66 7.10586 103.542 7.04203C103.423 6.97821 103.264 6.94609 103.063 6.94609C102.707 6.94609 102.472 7.07623 102.358 7.33613C102.244 7.5964 102.187 8.11406 102.187 8.88965V10.7097C102.187 10.9467 102.189 11.1224 102.194 11.2366C102.199 11.3505 102.215 11.492 102.242 11.6608C102.269 11.8294 102.313 11.9528 102.372 12.0301C102.431 12.1077 102.518 12.1786 102.632 12.2424C102.746 12.3063 102.885 12.3384 103.05 12.3384C103.405 12.3384 103.64 12.2036 103.754 11.9345C103.868 11.6654 103.925 11.1979 103.925 10.5317H104.965ZM107.127 13.0771H106.032V6.23446H107.127V10.5317L108.934 6.90516V6.23446H110.028V13.0771H108.934V8.73899L107.127 12.3655V13.0771ZM115.188 13.0771H113.943L112.861 10.3677L111.835 13.0771H110.631L112.273 9.40946L110.85 6.23446H112.122L112.861 8.4791L113.683 6.23446H114.914L113.477 9.40946L115.188 13.0771ZM116.885 13.0771H115.79V6.23446H116.885V10.5317L118.691 6.90516V6.23446H119.786V13.0771H118.691V8.73899L116.885 12.3655V13.0771ZM124.261 13.0771H123.166V10.0252C122.838 10.1804 122.482 10.258 122.099 10.258C121.195 10.258 120.744 9.86578 120.744 9.08112V6.23446H121.839V8.6844C121.839 9.10404 122.039 9.3139 122.441 9.3139C122.687 9.3139 122.929 9.25432 123.166 9.13575V6.23446H124.261V13.0771ZM129.215 10.9559V11.2296C129.215 11.4393 129.195 11.64 129.153 11.8319C129.112 12.0233 129.033 12.2311 128.914 12.4543C128.795 12.678 128.599 12.8581 128.326 12.995C128.052 13.1319 127.714 13.2003 127.313 13.2003C126.482 13.2003 125.912 12.8949 125.602 12.2834C125.502 12.0643 125.435 11.8365 125.404 11.5991C125.372 11.3619 125.356 10.8419 125.356 10.039V8.90297C125.356 8.53832 125.365 8.23477 125.383 7.99316C125.401 7.7513 125.449 7.50046 125.527 7.24057C125.604 6.9803 125.709 6.7775 125.842 6.63157C125.974 6.48551 126.161 6.3646 126.403 6.26905C126.644 6.17301 126.934 6.12512 127.272 6.12512C128.567 6.12512 129.215 6.82306 129.215 8.21884V9.8612H126.45V10.6276C126.45 10.9196 126.458 11.1431 126.471 11.298C126.485 11.4532 126.519 11.6221 126.574 11.8044C126.629 11.987 126.72 12.1169 126.848 12.1944C126.975 12.2721 127.144 12.3109 127.354 12.3109C127.636 12.3109 127.846 12.2194 127.984 12.0372C128.12 11.8545 128.189 11.5399 128.189 11.0928V10.9559H129.215ZM128.189 8.98521V8.36949C128.189 8.06829 128.175 7.83131 128.148 7.65775C128.12 7.4847 128.04 7.3248 127.908 7.17887C127.776 7.03281 127.582 6.95991 127.327 6.95991C126.971 6.95991 126.738 7.08295 126.629 7.32941C126.519 7.57562 126.464 7.97736 126.464 8.53385V8.98521H128.189ZM134.087 10.5317V10.7097C134.087 11.6129 133.939 12.2537 133.642 12.6325C133.346 13.0108 132.828 13.2003 132.089 13.2003C131.249 13.2003 130.702 12.9128 130.447 12.3384C130.283 11.9912 130.2 11.1979 130.2 9.95676V9.14957C130.2 8.08199 130.33 7.30901 130.59 6.83002C130.85 6.35079 131.382 6.1113 132.185 6.1113C132.942 6.1113 133.448 6.29616 133.704 6.66566C133.959 7.03529 134.087 7.58931 134.087 8.32856V8.7115H133.047V8.35567C133.047 8.11867 133.041 7.93144 133.026 7.79459C133.013 7.65773 132.978 7.51428 132.924 7.36362C132.869 7.21308 132.782 7.10586 132.664 7.04203C132.545 6.97821 132.385 6.94609 132.185 6.94609C131.829 6.94609 131.594 7.07623 131.48 7.33613C131.366 7.5964 131.309 8.11406 131.309 8.88965V10.7097C131.309 10.9467 131.311 11.1224 131.316 11.2366C131.321 11.3505 131.337 11.492 131.364 11.6608C131.391 11.8294 131.435 11.9528 131.494 12.0301C131.553 12.1077 131.64 12.1786 131.754 12.2424C131.868 12.3063 132.007 12.3384 132.171 12.3384C132.527 12.3384 132.762 12.2036 132.876 11.9345C132.99 11.6654 133.047 11.1979 133.047 10.5317H134.087ZM135.154 6.23446H136.249V9.06734H136.742C137.052 9.06734 137.269 8.99677 137.392 8.85544C137.515 8.71398 137.577 8.4562 137.577 8.08196V7.37034C137.577 6.61317 137.969 6.23446 138.754 6.23446H139.123V7.05582C138.94 7.05582 138.82 7.10375 138.761 7.1993C138.701 7.29522 138.671 7.47088 138.671 7.72617V8.26015C138.671 8.60676 138.628 8.87124 138.542 9.05363C138.455 9.23627 138.288 9.37773 138.042 9.47788C138.315 9.55091 138.5 9.68105 138.596 9.86792C138.692 10.0552 138.74 10.3264 138.74 10.6822V11.5854C138.74 11.8319 138.774 12.005 138.842 12.1056C138.911 12.2057 139.041 12.2561 139.232 12.2561V13.0771H138.822C138.037 13.0771 137.645 12.7259 137.645 12.0233V10.9972C137.645 10.6047 137.588 10.3218 137.474 10.1486C137.36 9.97514 137.162 9.88831 136.879 9.88831H136.249V13.0771H135.154V6.23446ZM143.858 8.3832V10.4494C143.858 10.7414 143.853 10.9651 143.844 11.1202C143.835 11.2754 143.815 11.4807 143.783 11.736C143.751 11.9913 143.694 12.1898 143.612 12.3313C143.53 12.4727 143.42 12.6187 143.283 12.7693C143.146 12.9199 142.962 13.0292 142.729 13.0977C142.496 13.1661 142.22 13.2003 141.901 13.2003C140.633 13.2003 139.999 12.4797 139.999 11.038V8.77992C139.999 7.86761 140.133 7.19467 140.403 6.76134C140.672 6.32826 141.198 6.1113 141.983 6.1113C142.33 6.1113 142.626 6.16605 142.873 6.27566C143.119 6.38502 143.304 6.51303 143.427 6.65871C143.55 6.80465 143.646 6.99413 143.714 7.22678C143.783 7.45956 143.824 7.65314 143.837 7.80841C143.851 7.96355 143.858 8.15503 143.858 8.3832ZM142.722 10.1895V8.24633C142.722 8.01815 142.713 7.8313 142.695 7.68524C142.676 7.53931 142.606 7.3911 142.482 7.24057C142.359 7.09003 142.184 7.01451 141.956 7.01451C141.627 7.01451 141.41 7.13546 141.306 7.37744C141.201 7.61905 141.148 8.01367 141.148 8.56096V10.477C141.148 11.207 141.189 11.7017 141.271 11.9616C141.354 12.2219 141.563 12.3517 141.901 12.3517C142.029 12.3517 142.141 12.3313 142.236 12.2903C142.332 12.2491 142.41 12.1786 142.469 12.0781C142.528 11.9779 142.576 11.8774 142.613 11.7773C142.649 11.6767 142.674 11.5286 142.688 11.3323C142.702 11.1361 142.711 10.9651 142.715 10.819C142.72 10.6731 142.722 10.4632 142.722 10.1895H142.722ZM146.048 13.0771H144.953V6.23446H148.018V7.05582H146.048V13.0771ZM152.329 8.3832V10.4494C152.329 10.7414 152.324 10.9651 152.315 11.1202C152.306 11.2754 152.286 11.4807 152.254 11.736C152.222 11.9913 152.165 12.1898 152.083 12.3313C152.001 12.4727 151.891 12.6187 151.754 12.7693C151.617 12.9199 151.432 13.0292 151.2 13.0977C150.967 13.1661 150.691 13.2003 150.372 13.2003C149.104 13.2003 148.47 12.4797 148.47 11.038V8.77992C148.47 7.86761 148.604 7.19467 148.874 6.76134C149.143 6.32826 149.67 6.1113 150.454 6.1113C150.801 6.1113 151.097 6.16605 151.344 6.27566C151.59 6.38502 151.775 6.51303 151.898 6.65871C152.021 6.80465 152.117 6.99413 152.185 7.22678C152.254 7.45956 152.295 7.65314 152.308 7.80841C152.322 7.96355 152.329 8.15503 152.329 8.3832ZM151.193 10.1895V8.24633C151.193 8.01815 151.184 7.8313 151.166 7.68524C151.148 7.53931 151.077 7.3911 150.954 7.24057C150.83 7.09003 150.655 7.01451 150.427 7.01451C150.098 7.01451 149.881 7.13546 149.777 7.37744C149.672 7.61905 149.619 8.01367 149.619 8.56096V10.477C149.619 11.207 149.66 11.7017 149.742 11.9616C149.825 12.2219 150.035 12.3517 150.372 12.3517C150.5 12.3517 150.611 12.3313 150.707 12.2903C150.803 12.2491 150.881 12.1786 150.94 12.0781C150.999 11.9779 151.047 11.8774 151.084 11.7773C151.12 11.6767 151.145 11.5286 151.159 11.3323C151.173 11.1361 151.182 10.9651 151.186 10.819C151.191 10.6731 151.192 10.4632 151.192 10.1895H151.193ZM157.912 6.1113C158.277 6.1113 158.585 6.17063 158.836 6.28944C159.087 6.40788 159.269 6.56527 159.384 6.76134C159.498 6.95779 159.575 7.14468 159.616 7.32246C159.657 7.5005 159.678 7.68982 159.678 7.89049C159.678 8.77531 159.4 9.3047 158.843 9.47788C159.5 9.66052 159.828 10.1895 159.828 11.0656C159.828 11.8319 159.666 12.3793 159.342 12.7076C159.019 13.0363 158.523 13.2003 157.858 13.2003C157.146 13.2003 156.633 13.0154 156.318 12.6462C156.003 12.2767 155.846 11.6767 155.846 10.8465V10.6685H156.886C156.886 11.2433 156.957 11.6654 157.098 11.9345C157.239 12.2036 157.488 12.3384 157.844 12.3384C158.154 12.3384 158.38 12.2399 158.521 12.0439C158.663 11.8478 158.733 11.5399 158.733 11.1202C158.733 10.7097 158.658 10.4107 158.508 10.2238C158.357 10.0369 158.09 9.94344 157.707 9.94344H156.804V9.12205H157.611C157.958 9.12205 158.206 9.04903 158.357 8.90297C158.508 8.75741 158.583 8.45622 158.583 7.99988C158.583 7.29732 158.332 6.94609 157.83 6.94609C157.483 6.94609 157.258 7.06029 157.153 7.28822C157.048 7.51639 156.995 7.87221 156.995 8.35567V8.57467H155.955V8.32856C155.955 7.58931 156.085 7.03529 156.345 6.66566C156.605 6.29616 157.128 6.1113 157.912 6.1113ZM161.252 6.23446H164.864V12.2561H165.562V14.9657H164.481V13.0771H161.402V14.9657H160.321V12.2561C160.366 12.2561 160.421 12.24 160.485 12.2082C160.549 12.1761 160.627 12.1056 160.718 11.9958C160.809 11.8866 160.893 11.7406 160.971 11.5583C161.048 11.3755 161.115 11.1131 161.17 10.7711C161.224 10.429 161.252 10.0344 161.252 9.5876V6.23446ZM162.346 9.56C162.346 10.3539 162.31 10.9421 162.237 11.3255C162.164 11.7085 162.027 12.0189 161.827 12.2561H163.77V7.05582H162.346V9.56ZM169.914 8.3832V10.4494C169.914 10.7414 169.909 10.9651 169.9 11.1202C169.892 11.2754 169.871 11.4807 169.839 11.736C169.807 11.9913 169.75 12.1898 169.668 12.3313C169.586 12.4727 169.476 12.6187 169.339 12.7693C169.202 12.9199 169.018 13.0292 168.785 13.0977C168.553 13.1661 168.276 13.2003 167.957 13.2003C166.689 13.2003 166.055 12.4797 166.055 11.038V8.77992C166.055 7.86761 166.19 7.19467 166.459 6.76134C166.728 6.32826 167.255 6.1113 168.039 6.1113C168.386 6.1113 168.683 6.16605 168.929 6.27566C169.175 6.38502 169.36 6.51303 169.483 6.65871C169.606 6.80465 169.702 6.99413 169.771 7.22678C169.839 7.45956 169.88 7.65314 169.894 7.80841C169.907 7.96355 169.914 8.15503 169.914 8.3832ZM168.778 10.1895V8.24633C168.778 8.01815 168.769 7.8313 168.751 7.68524C168.733 7.53931 168.662 7.3911 168.539 7.24057C168.416 7.09003 168.24 7.01451 168.012 7.01451C167.683 7.01451 167.467 7.13546 167.362 7.37744C167.257 7.61905 167.205 8.01367 167.205 8.56096V10.477C167.205 11.207 167.246 11.7017 167.328 11.9616C167.41 12.2219 167.62 12.3517 167.957 12.3517C168.085 12.3517 168.197 12.3313 168.293 12.2903C168.388 12.2491 168.466 12.1786 168.525 12.0781C168.584 11.9779 168.632 11.8774 168.669 11.7773C168.705 11.6767 168.73 11.5286 168.744 11.3323C168.758 11.1361 168.767 10.9651 168.772 10.819C168.776 10.6731 168.778 10.4632 168.778 10.1895H168.778ZM171.009 6.23446H172.104V6.89149C172.478 6.37157 172.939 6.1113 173.486 6.1113C174.526 6.1113 175.046 6.85974 175.046 8.35567V10.2993C175.046 10.6368 175.039 10.915 175.026 11.1339C175.012 11.353 174.975 11.6083 174.916 11.9003C174.857 12.1923 174.773 12.4201 174.663 12.5845C174.553 12.7488 174.394 12.8924 174.184 13.0154C173.974 13.1388 173.719 13.2003 173.418 13.2003C172.852 13.2003 172.423 12.9679 172.131 12.5023V15.2531H171.009V6.23446ZM173.896 10.8737V8.32856C173.896 7.43417 173.632 6.9874 173.103 6.9874C172.464 6.9874 172.145 7.55299 172.145 8.6844V10.9697C172.145 11.3709 172.218 11.7064 172.364 11.9755C172.51 12.2446 172.742 12.3793 173.062 12.3793C173.253 12.3793 173.411 12.3313 173.534 12.2353C173.657 12.1398 173.741 12.0005 173.787 11.8182C173.833 11.6358 173.862 11.4807 173.876 11.353C173.89 11.225 173.896 11.0656 173.896 10.8737ZM179.891 8.3832V10.4494C179.891 10.7414 179.886 10.9651 179.877 11.1202C179.868 11.2754 179.847 11.4807 179.816 11.736C179.783 11.9913 179.726 12.1898 179.644 12.3313C179.562 12.4727 179.453 12.6187 179.316 12.7693C179.179 12.9199 178.994 13.0292 178.762 13.0977C178.529 13.1661 178.253 13.2003 177.934 13.2003C176.666 13.2003 176.031 12.4797 176.031 11.038V8.77992C176.031 7.86761 176.166 7.19467 176.435 6.76134C176.704 6.32826 177.231 6.1113 178.016 6.1113C178.363 6.1113 178.659 6.16605 178.905 6.27566C179.152 6.38502 179.336 6.51303 179.46 6.65871C179.583 6.80465 179.679 6.99413 179.747 7.22678C179.816 7.45956 179.856 7.65314 179.87 7.80841C179.884 7.96355 179.891 8.15503 179.891 8.3832ZM178.755 10.1895V8.24633C178.755 8.01815 178.746 7.8313 178.728 7.68524C178.709 7.53931 178.638 7.3911 178.515 7.24057C178.392 7.09003 178.217 7.01451 177.988 7.01451C177.66 7.01451 177.443 7.13546 177.338 7.37744C177.233 7.61905 177.181 8.01367 177.181 8.56096V10.477C177.181 11.207 177.222 11.7017 177.304 11.9616C177.386 12.2219 177.596 12.3517 177.934 12.3517C178.061 12.3517 178.173 12.3313 178.269 12.2903C178.365 12.2491 178.442 12.1786 178.502 12.0781C178.561 11.9779 178.609 11.8774 178.645 11.7773C178.682 11.6767 178.707 11.5286 178.72 11.3323C178.734 11.1361 178.743 10.9651 178.748 10.819C178.753 10.6731 178.754 10.4632 178.754 10.1895H178.755ZM180.985 6.23446H182.819C183.166 6.23446 183.46 6.28236 183.702 6.37829C183.944 6.47421 184.124 6.60184 184.242 6.76134C184.361 6.92108 184.443 7.07836 184.489 7.2335C184.534 7.38877 184.557 7.55757 184.557 7.73995C184.557 8.05024 184.53 8.31227 184.475 8.52675C184.42 8.74112 184.343 8.90546 184.242 9.01942C184.142 9.13363 184.049 9.21585 183.962 9.26587C183.875 9.31601 183.768 9.35486 183.641 9.38235C183.777 9.40947 183.891 9.44616 183.983 9.4917C184.074 9.53711 184.179 9.61262 184.297 9.71738C184.416 9.82238 184.507 9.97975 184.571 10.1895C184.635 10.3994 184.667 10.6593 184.667 10.9697C184.667 11.7727 184.516 12.32 184.215 12.6119C184.024 12.7943 183.805 12.9174 183.558 12.9812C183.312 13.045 182.911 13.0771 182.354 13.0771H180.985V6.23446ZM182.08 7.05582V9.06734H182.45C182.687 9.06734 182.874 9.05152 183.011 9.01942C183.148 8.9877 183.271 8.89426 183.38 8.73899C183.49 8.58385 183.545 8.35568 183.545 8.05486C183.545 7.82668 183.517 7.64195 183.462 7.50049C183.408 7.35904 183.323 7.25864 183.209 7.1993C183.095 7.14008 182.99 7.10125 182.895 7.08296C182.799 7.06492 182.669 7.05582 182.505 7.05582H182.08ZM182.08 9.88831V12.2561H182.532C182.906 12.2561 183.17 12.1807 183.326 12.0301C183.481 11.8799 183.558 11.59 183.558 11.1612C183.558 10.6868 183.485 10.356 183.339 10.1691C183.193 9.98212 182.897 9.88831 182.45 9.88831H182.08ZM185.625 6.23446H186.72V8.86216H187.609C188.75 8.86216 189.32 9.55091 189.32 10.9288C189.32 11.64 189.183 12.1761 188.909 12.5365C188.636 12.897 188.202 13.0771 187.609 13.0771H185.625V6.23446ZM186.72 9.68317V12.2561H187.308C187.655 12.2561 187.887 12.1511 188.006 11.9412C188.125 11.7314 188.184 11.3939 188.184 10.9288C188.184 10.4907 188.122 10.1737 187.999 9.97765C187.876 9.7812 187.646 9.68317 187.308 9.68317H186.72ZM194 13.0771H192.905V10.0527H192.29C192.007 10.0527 191.811 10.1395 191.701 10.3127C191.592 10.4861 191.537 10.769 191.537 11.1612V12.0233C191.537 12.7259 191.145 13.0771 190.36 13.0771H189.949V12.2561C190.141 12.2561 190.271 12.2057 190.339 12.1056C190.408 12.005 190.442 11.8319 190.442 11.5854V10.8465C190.442 10.4999 190.487 10.2351 190.579 10.0527C190.67 9.87041 190.853 9.73356 191.126 9.64224C190.67 9.51459 190.442 9.14955 190.442 8.54752V7.73995C190.442 6.7362 190.926 6.23446 191.892 6.23446H194V13.0771ZM192.905 9.23166V7.05582H192.29C192.016 7.05582 191.822 7.12176 191.708 7.25401C191.594 7.38663 191.537 7.60311 191.537 7.90431V8.36949C191.537 8.67978 191.594 8.90088 191.708 9.03313C191.822 9.16538 192.016 9.23166 192.29 9.23166H192.905Z" fill="white"/>
</svg>
