<svg width="231" height="68" viewBox="0 0 231 68" fill="none" xmlns="http://www.w3.org/2000/svg">
    <path fill-rule="evenodd" clip-rule="evenodd"
        d="M34 0C52.7777 0 68 15.2223 68 34C68 52.7777 52.7777 68 34 68C15.2223 68 0 52.7777 0 34C0 15.2223 15.2223 0 34 0Z"
        fill="#99E1D2" />
    <path fill-rule="evenodd" clip-rule="evenodd"
        d="M65.8677 21.2676C67.2453 25.0334 68 29.11 68 33.3672C68 49.7092 56.9041 63.3984 41.9987 66.9851L27.6069 56.6799L28.1825 55.2077L16.2388 47.4064L17.39 39.1634L16.3828 31.8034L21.2754 22.8245C25.6063 8.70162 38.0512 9.91648 46.3136 13.551L65.8677 21.2676Z"
        fill="#00839A" />
    <path fill-rule="evenodd" clip-rule="evenodd"
        d="M38.7859 30.8417C39.7449 28.4949 40.7446 22.8946 46.6162 24.1085C45.612 25.9325 44.1464 27.4875 43.66 29.6245L43.2384 31.4058C42.8056 32.222 42.5301 36.8323 42.7071 37.9656C43.3951 42.3739 49.3213 37.004 50.1442 34.7242C51.1769 31.863 51.5075 28.7472 50.77 25.8014C49.8623 22.1761 47.0662 19.0186 48.1407 17.8457C48.5152 17.437 49.2012 17.4636 49.8047 17.6443C50.5193 17.8581 50.8093 18.1303 51.2152 18.5758C52.2827 19.7479 53.6374 22.7972 54.1483 24.5866C55.9137 30.769 54.3721 37.2251 50.7594 42.2269C50.4447 42.6624 50.1362 43.0636 49.8075 43.4745C47.7479 46.0483 45.3241 47.1729 45.4843 50.5257C45.6047 53.0464 46.942 55.4159 47.6174 57.5307L35.0799 57.5401C34.7814 54.2234 31.3869 49.6099 31.124 47.2173C30.9521 45.6522 31.1359 44.2692 31.6711 42.9596C32.6793 40.4924 34.4222 39.1795 35.6893 37.3407C36.8605 35.6416 37.924 32.9599 38.7859 30.8417Z"
        fill="white" />
    <path fill-rule="evenodd" clip-rule="evenodd"
        d="M35.5146 13.3073C30.5353 13.3073 26.0468 16.0003 23.8038 19.9508C21.9912 23.1432 22.2399 26.8333 18.3773 31.1842C15.6812 34.2216 18.3008 34.6493 18.8867 35.9104C19.5812 37.4048 16.7975 38.0884 18.5274 40.1261C18.6782 40.3038 18.5994 40.1803 18.7388 40.391C17.1409 41.3039 18.6694 42.0844 18.9827 42.689C19.5316 43.7485 15.6163 47.0071 20.5909 47.1709C25.9724 47.3484 25.52 47.1498 28.2591 51.7182C28.6745 52.4107 31.0275 56.6571 30.5177 57.3403C30.2706 57.5886 30.6617 57.3772 30.2444 57.4943L27.4022 57.5252C27.0592 56.8796 26.7453 55.6334 26.4356 54.7853C25.4031 51.9573 24.3263 48.8026 20.3688 48.9325C18.8227 48.9834 14.7566 49.422 15.5135 46.5052C15.719 45.7136 16.2802 45.0529 16.26 44.1879C16.2343 43.1023 15.4316 42.8373 15.0347 42.2589C15.1088 41.5005 15.6149 41.3308 15.9614 40.609C15.5444 39.748 14.6782 39.7084 15.2731 38.4137C15.6142 37.6713 16.1928 36.8348 15.7106 35.9083C15.4814 35.4675 15.2466 35.3549 14.8853 35.078C13.2513 33.8261 12.7406 33.1081 13.9699 31.8689C15.3895 30.4381 15.841 30.4151 17.3667 28.246C20.7576 23.4256 19.3867 18.7673 24.6835 14.4917C25.9625 13.459 27.1264 12.525 28.9637 11.7464C34.6472 9.33834 40.3627 10.4145 45.5746 13.4714C46.4032 13.9575 47.8068 14.4526 47.727 15.668C47.6406 16.9829 46.2685 17.4425 45.1575 16.7834C44.7071 16.5165 44.3333 16.2067 43.8334 15.9039C41.3762 14.4171 38.7171 13.3073 35.5146 13.3073Z"
        fill="white" />
    <path fill-rule="evenodd" clip-rule="evenodd"
        d="M40.202 27.3769L38.786 30.8417C38.0923 29.9566 37.0388 29.6041 37.1908 27.9571C37.2582 27.2248 37.6327 26.8194 38.4001 26.7809C39.3599 26.7332 39.7097 27.089 40.202 27.3769ZM51.1811 28.7797C51.1434 30.9159 50.823 32.8441 50.1444 34.7242C49.3214 37.004 43.3953 42.3739 42.7072 37.9656C42.5303 36.8323 42.8057 32.2221 43.2385 31.4058C44.2631 32.3321 45.6715 36.7252 46.0562 38.5343C46.2496 36.3853 44.6348 31.0821 43.6601 29.6246C43.832 28.8691 44.8835 26.4581 45.5855 25.8589C46.3133 26.75 47.2796 29.3535 47.7033 30.6251C48.5866 33.2743 48.5218 34.428 48.9735 36.0395C49.292 33.094 47.9677 29.7502 46.8799 27.0064C46.065 24.951 46.6469 25.6095 44.8395 22.9773C44.169 22.0009 43.2751 21.3198 43.5297 19.5662C43.6736 18.574 44.2826 18.2289 45.3851 18.4766C46.8421 18.8039 48.8365 22.5261 50.0123 25.402C50.4824 26.5517 50.7522 27.6558 51.1811 28.7797ZM44.4082 23.9983C43.8641 24.2104 43.3929 24.3085 42.7809 24.6034C42.0817 24.94 41.7755 25.2785 41.2611 25.5842C40.9457 25.1889 40.0054 24.0781 39.9 23.6846C39.6676 22.8172 39.689 21.4337 40.525 21.0988C40.991 20.9124 41.5562 21.0015 42.0189 21.1651C42.7599 21.4271 44.0956 23.34 44.4082 23.9983Z"
        fill="#99E1D2" />
    <path fill-rule="evenodd" clip-rule="evenodd"
        d="M108.797 52.9865L108.839 59.5641C108.839 64.4833 106.323 66.9428 101.292 66.9428C100.898 66.9428 100.427 66.8796 99.8793 66.753C99.3309 66.6265 99.0569 66.4653 99.0569 66.2682V59.1002H85.4377C85.4377 59.1564 85.445 59.4095 85.4586 59.859C85.4734 60.3091 85.4801 60.576 85.4801 60.6601C85.4801 62.5998 84.8264 64.1389 83.5194 65.2772C82.2121 66.4157 80.4062 66.9851 78.1013 66.9851C77.7359 66.9851 77.3139 66.9219 76.8363 66.7953C76.3582 66.6688 76.1194 66.5071 76.1194 66.3106V53.7452C76.1194 53.689 76.1617 53.6187 76.2459 53.5344C76.274 53.5064 76.3302 53.4641 76.4147 53.4079C76.8082 53.1268 77.1736 52.8318 77.511 52.5226C77.8483 52.2134 78.3681 51.4545 79.0709 50.2456C79.7736 49.0368 80.364 47.6386 80.842 46.0501C81.3197 44.4621 81.7412 42.1922 82.1066 39.2407C82.4724 36.2893 82.6408 32.958 82.6127 29.2478V29.2054C82.6408 29.1213 82.697 29.0651 82.7817 29.037C85.9858 28.1654 89.619 27.7226 93.6809 27.7087C97.7429 27.6939 101.376 28.1374 104.581 29.037C104.581 29.037 104.637 29.0788 104.749 29.1631C104.749 29.1911 104.749 29.2197 104.749 29.2478L104.707 52.7334H108.628C108.741 52.7334 108.797 52.8175 108.797 52.9865ZM86.7027 52.6491L86.7451 52.7334H95.5996V34.0123H90.9192C90.9192 44.413 89.5139 50.6252 86.7027 52.6491ZM140.978 44.0472C140.978 48.5167 139.644 52.2904 136.973 55.3685C134.302 58.4466 130.761 59.9856 126.347 59.9856C122.019 59.9856 118.505 58.4395 115.806 55.3476C113.108 52.2557 111.758 48.4888 111.758 44.0472C111.758 39.6061 113.115 35.8254 115.827 32.705C118.54 29.5851 122.047 28.0246 126.347 28.0246C130.676 28.0246 134.197 29.5851 136.91 32.705C139.622 35.8254 140.978 39.6061 140.978 44.0472ZM121.288 44.0472C121.288 46.7179 121.766 49.2546 122.721 51.6582C123.677 54.0615 124.886 55.2633 126.347 55.2633C127.388 55.2633 128.308 54.6658 129.109 53.4711C129.91 52.2766 130.501 50.8428 130.88 49.1705C131.26 47.4978 131.449 45.7902 131.449 44.0472C131.449 41.2926 130.972 38.7207 130.016 36.3311C129.06 33.9419 127.837 32.7474 126.347 32.7474C124.857 32.7474 123.642 33.9419 122.7 36.3311C121.758 38.7207 121.288 41.2926 121.288 44.0472ZM154.313 39.7046C156.842 39.3392 159.091 39.325 161.059 39.6623C163.027 39.9996 164.692 40.6108 166.055 41.4963C167.419 42.382 168.452 43.4639 169.154 44.7432C169.857 46.022 170.209 47.4207 170.209 48.9383C170.209 52.3118 169.091 55.0032 166.857 57.0132C164.622 59.0231 161.368 60.0279 157.095 60.0279C154.959 60.0279 153.076 59.6625 151.445 58.9314C149.815 58.2006 148.543 57.2381 147.63 56.043C146.716 54.8485 146.041 53.5835 145.606 52.2486C145.17 50.9132 144.952 49.5287 144.952 48.0953L144.994 29.0788C145.022 28.9666 145.092 28.8961 145.205 28.868C152.429 28.1374 159.878 28.1374 167.552 28.868C167.721 28.868 167.833 28.9386 167.89 29.0788C167.946 29.2197 168.002 29.3952 168.058 29.606C168.115 29.8167 168.15 30.2315 168.164 30.85C168.178 31.468 168.108 32.0447 167.953 32.5784C167.798 33.1126 167.44 33.6888 166.878 34.3073C166.315 34.9257 165.585 35.4319 164.685 35.8254C163.757 36.2189 162.429 36.4224 160.701 36.4368C158.972 36.4501 157.475 36.3592 156.21 36.1627L154.313 35.9096V39.7046ZM157.728 54.926C158.796 54.926 159.633 54.3989 160.237 53.3446C160.841 52.2904 161.143 51.1029 161.143 49.7817C161.143 47.6737 160.525 46.2118 159.288 45.3969C158.051 44.5814 156.393 44.3708 154.313 44.7641V50.6252C154.341 51.7776 154.629 52.7823 155.177 53.6401C155.725 54.4973 156.575 54.926 157.728 54.926ZM174.182 52.691L174.224 29.6269C174.253 29.5146 174.323 29.4442 174.435 29.4161C174.801 29.3038 175.3 29.1702 175.932 29.0156C176.564 28.8609 177.851 28.6645 179.79 28.4252C181.729 28.1863 183.641 28.0951 185.524 28.1511C188.954 28.2639 191.814 29.1631 194.105 30.85C196.396 32.5366 197.541 34.8554 197.541 37.8069C197.541 38.7908 197.422 39.7464 197.183 40.6741C196.944 41.6018 196.501 42.5576 195.855 43.5415C195.208 44.5254 194.379 45.3684 193.367 46.0714C192.355 46.7741 190.999 47.3293 189.298 47.7366C187.598 48.1443 185.651 48.3061 183.458 48.2218V50.2456C183.486 51.4826 183.62 52.5154 183.859 53.3446C184.098 54.1739 184.358 54.7501 184.639 55.0735C184.92 55.3966 185.201 55.6358 185.482 55.7904C185.763 55.945 185.974 56.0782 186.115 56.191C186.255 56.3033 186.283 56.458 186.199 56.6549C185.918 57.4698 185.208 58.2429 184.07 58.9737C182.931 59.7045 181.758 60.0697 180.549 60.0697C178.694 60.0697 177.169 59.4585 175.974 58.2358C174.779 57.0132 174.182 55.1648 174.182 52.691ZM187.317 42.0234C188.286 40.7864 188.771 39.3531 188.771 37.7226C188.771 36.0924 188.272 34.7853 187.274 33.8016C186.277 32.8177 185.004 32.4519 183.458 32.705V43.8788C185.061 43.8788 186.347 43.2603 187.317 42.0234ZM229.681 44.0472C229.681 48.5167 228.346 52.2904 225.675 55.3685C223.005 58.4466 219.463 59.9856 215.05 59.9856C210.721 59.9856 207.207 58.4395 204.509 55.3476C201.81 52.2557 200.461 48.4888 200.461 44.0472C200.461 39.6061 201.817 35.8254 204.53 32.705C207.242 29.5851 210.749 28.0246 215.05 28.0246C219.378 28.0246 222.899 29.5851 225.612 32.705C228.324 35.8254 229.681 39.6061 229.681 44.0472ZM209.99 44.0472C209.99 46.7179 210.468 49.2546 211.424 51.6582C212.379 54.0615 213.588 55.2633 215.05 55.2633C216.09 55.2633 217.01 54.6658 217.811 53.4711C218.613 52.2766 219.203 50.8428 219.583 49.1705C219.962 47.4978 220.152 45.7902 220.152 44.0472C220.152 41.2926 219.674 38.7207 218.718 36.3311C217.762 33.9419 216.539 32.7474 215.05 32.7474C213.56 32.7474 212.344 33.9419 211.403 36.3311C210.461 38.7207 209.99 41.2926 209.99 44.0472Z"
        fill="#0D0D5D" />
    <path fill-rule="evenodd" clip-rule="evenodd"
        d="M85.8358 15.539H80.7628V4.05969H82.1939V14.2869H84.8118V4.05969H86.2427V14.2869H87.2668V17.8155H85.8358V15.539ZM92.6653 13.0187V13.3438C92.6653 13.5931 92.641 13.8315 92.592 14.0594C92.5433 14.2869 92.4487 14.5338 92.3074 14.799C92.1667 15.0647 91.9337 15.2788 91.6085 15.4414C91.2835 15.604 90.882 15.6853 90.4051 15.6853C89.4187 15.6853 88.7413 15.3224 88.3725 14.5959C88.2535 14.3356 88.1747 14.0649 88.137 13.7829C88.0989 13.501 88.0801 12.8832 88.0801 11.9292V10.5795C88.0801 10.1463 88.0904 9.78559 88.1128 9.49853C88.134 9.21117 88.1911 8.91314 88.2834 8.60435C88.3755 8.29511 88.4999 8.05417 88.6575 7.88078C88.8146 7.70724 89.0366 7.56359 89.3242 7.45006C89.6112 7.33595 89.9552 7.27905 90.3565 7.27905C91.8956 7.27905 92.6653 8.10829 92.6653 9.76666V11.718H89.3806V12.6286C89.3806 12.9755 89.3895 13.2411 89.4054 13.4252C89.4213 13.6095 89.4619 13.8102 89.5274 14.0268C89.5923 14.2438 89.7008 14.3981 89.8524 14.4902C90.0041 14.5824 90.2048 14.6285 90.4542 14.6285C90.7898 14.6285 91.0391 14.5199 91.2022 14.3033C91.3647 14.0863 91.4459 13.7125 91.4459 13.1813V13.0187H92.6653ZM91.4459 10.6772V9.94566C91.4459 9.5878 91.4297 9.30623 91.397 9.10002C91.3648 8.89441 91.2696 8.70443 91.1124 8.53104C90.9553 8.35751 90.7249 8.27089 90.4216 8.27089C89.9988 8.27089 89.7222 8.41708 89.5923 8.70991C89.4619 9.00244 89.397 9.47976 89.397 10.1409V10.6772H91.4459ZM95.267 15.539H93.9659V7.40897H95.267V10.8076H97.3319V7.40897H98.6324V15.539H97.3319V11.7831H95.267V15.539ZM103.868 8.38484H102.34V15.539H101.007V8.38484H99.4621V7.40897H103.868V8.38484ZM104.697 7.40897H105.998V8.1896C106.442 7.57187 106.99 7.26263 107.64 7.26263C108.876 7.26263 109.494 8.15188 109.494 9.92924V12.2385C109.494 12.6395 109.485 12.97 109.47 13.2302C109.453 13.4905 109.41 13.7938 109.339 14.1408C109.269 14.4877 109.169 14.7583 109.039 14.9536C108.909 15.1489 108.719 15.3195 108.47 15.4657C108.22 15.6123 107.917 15.6853 107.559 15.6853C106.887 15.6853 106.377 15.4092 106.031 14.856V18.1243H104.697V7.40897ZM108.128 12.921V9.89703C108.128 8.83437 107.814 8.30355 107.185 8.30355C106.427 8.30355 106.047 8.97555 106.047 10.3198V13.0351C106.047 13.5118 106.134 13.9103 106.307 14.23C106.48 14.5498 106.757 14.7098 107.136 14.7098C107.364 14.7098 107.551 14.6528 107.697 14.5388C107.844 14.4253 107.944 14.2597 107.998 14.0432C108.052 13.8265 108.087 13.6422 108.104 13.4905C108.12 13.3384 108.128 13.1491 108.128 12.921ZM115.478 15.539H114.176V7.40897H118.794V15.539H117.494V8.38484H115.478V15.539ZM124.713 12.5146V12.7261C124.713 13.7993 124.537 14.5606 124.184 15.0107C123.832 15.4602 123.217 15.6853 122.339 15.6853C121.342 15.6853 120.691 15.3437 120.388 14.6612C120.193 14.2488 120.095 13.3062 120.095 11.8316V10.8725C120.095 9.60408 120.25 8.68567 120.559 8.11657C120.867 7.54717 121.499 7.26263 122.453 7.26263C123.352 7.26263 123.954 7.48227 124.258 7.92129C124.561 8.36045 124.713 9.0187 124.713 9.89703V10.352H123.477V9.92924C123.477 9.64765 123.47 9.4252 123.453 9.2626C123.436 9.1 123.396 8.92956 123.331 8.75055C123.266 8.57169 123.163 8.4443 123.022 8.36847C122.881 8.29263 122.691 8.25447 122.453 8.25447C122.03 8.25447 121.751 8.4091 121.615 8.71789C121.48 9.02713 121.412 9.64218 121.412 10.5637V12.7261C121.412 13.0077 121.415 13.2164 121.421 13.3521C121.427 13.4875 121.445 13.6556 121.477 13.8562C121.51 14.0565 121.562 14.2031 121.632 14.2949C121.702 14.3871 121.806 14.4714 121.941 14.5472C122.077 14.6231 122.242 14.6612 122.437 14.6612C122.86 14.6612 123.139 14.5011 123.274 14.1814C123.41 13.8617 123.477 13.3062 123.477 12.5146H124.713ZM127.282 15.539H125.981V7.40897H127.282V12.5146L129.428 8.20584V7.40897H130.729V15.539H129.428V10.3847L127.282 14.6935V15.539ZM136.859 15.539H135.379L134.095 12.3198L132.875 15.539H131.444L133.396 11.1813L131.705 7.40897H133.217L134.095 10.0759L135.071 7.40897H136.534L134.826 11.1813L136.859 15.539ZM138.875 15.539H137.574V7.40897H138.875V12.5146L141.021 8.20584V7.40897H142.322V15.539H141.021V10.3847L138.875 14.6935V15.539ZM147.639 15.539H146.338V11.9128C145.948 12.0973 145.525 12.1894 145.07 12.1894C143.997 12.1894 143.46 11.7235 143.46 10.7912V7.40897H144.761V10.3198C144.761 10.8184 144.999 11.0677 145.477 11.0677C145.769 11.0677 146.057 10.997 146.338 10.8561V7.40897H147.639V15.539ZM153.525 13.0187V13.3438C153.525 13.5931 153.501 13.8315 153.452 14.0594C153.403 14.2869 153.308 14.5338 153.167 14.799C153.026 15.0647 152.794 15.2788 152.468 15.4414C152.143 15.604 151.742 15.6853 151.265 15.6853C150.279 15.6853 149.601 15.3224 149.232 14.5959C149.113 14.3356 149.034 14.0649 148.997 13.7829C148.959 13.501 148.94 12.8832 148.94 11.9292V10.5795C148.94 10.1463 148.95 9.78559 148.973 9.49853C148.994 9.21117 149.051 8.91314 149.143 8.60435C149.235 8.29511 149.36 8.05417 149.517 7.88078C149.674 7.70724 149.896 7.56359 150.184 7.45006C150.471 7.33595 150.815 7.27905 151.216 7.27905C152.755 7.27905 153.525 8.10829 153.525 9.76666V11.718H150.24V12.6286C150.24 12.9755 150.249 13.2411 150.265 13.4252C150.281 13.6095 150.322 13.8102 150.387 14.0268C150.452 14.2438 150.561 14.3981 150.712 14.4902C150.864 14.5824 151.065 14.6285 151.314 14.6285C151.65 14.6285 151.899 14.5199 152.062 14.3033C152.224 14.0863 152.306 13.7125 152.306 13.1813V13.0187H153.525ZM152.306 10.6772V9.94566C152.306 9.5878 152.289 9.30623 152.257 9.10002C152.224 8.89441 152.129 8.70443 151.972 8.53104C151.815 8.35751 151.585 8.27089 151.281 8.27089C150.859 8.27089 150.582 8.41708 150.452 8.70991C150.322 9.00244 150.257 9.47976 150.257 10.1409V10.6772H152.306ZM159.314 12.5146V12.7261C159.314 13.7993 159.137 14.5606 158.785 15.0107C158.433 15.4602 157.818 15.6853 156.94 15.6853C155.942 15.6853 155.292 15.3437 154.988 14.6612C154.794 14.2488 154.696 13.3062 154.696 11.8316V10.8725C154.696 9.60408 154.85 8.68567 155.159 8.11657C155.468 7.54717 156.099 7.26263 157.054 7.26263C157.953 7.26263 158.555 7.48227 158.858 7.92129C159.162 8.36045 159.314 9.0187 159.314 9.89703V10.352H158.078V9.92924C158.078 9.64765 158.07 9.4252 158.053 9.2626C158.037 9.1 157.996 8.92956 157.931 8.75055C157.866 8.57169 157.763 8.4443 157.623 8.36847C157.482 8.29263 157.292 8.25447 157.054 8.25447C156.631 8.25447 156.352 8.4091 156.216 8.71789C156.081 9.02713 156.013 9.64218 156.013 10.5637V12.7261C156.013 13.0077 156.016 13.2164 156.022 13.3521C156.028 13.4875 156.046 13.6556 156.078 13.8562C156.111 14.0565 156.163 14.2031 156.233 14.2949C156.303 14.3871 156.406 14.4714 156.542 14.5472C156.677 14.6231 156.843 14.6612 157.038 14.6612C157.461 14.6612 157.74 14.5011 157.875 14.1814C158.011 13.8617 158.078 13.3062 158.078 12.5146H159.314ZM160.582 7.40897H161.883V10.7748H162.468C162.836 10.7748 163.094 10.691 163.24 10.523C163.387 10.355 163.46 10.0487 163.46 9.60404V8.75854C163.46 7.85892 163.926 7.40897 164.858 7.40897H165.297V8.38484C165.08 8.38484 164.937 8.44179 164.867 8.55531C164.796 8.66928 164.76 8.87799 164.76 9.18131V9.81575C164.76 10.2276 164.709 10.5418 164.606 10.7585C164.503 10.9755 164.305 11.1436 164.013 11.2626C164.338 11.3493 164.557 11.504 164.671 11.726C164.785 11.9485 164.842 12.2707 164.842 12.6935V13.7666C164.842 14.0594 164.882 14.2652 164.964 14.3846C165.045 14.5036 165.2 14.5635 165.427 14.5635V15.539H164.939C164.007 15.539 163.541 15.1216 163.541 14.2869V13.0677C163.541 12.6013 163.473 12.2652 163.338 12.0595C163.202 11.8534 162.967 11.7502 162.631 11.7502H161.883V15.539H160.582V7.40897ZM170.923 9.96195V12.4169C170.923 12.7638 170.917 13.0296 170.907 13.2139C170.896 13.3982 170.871 13.6422 170.834 13.9455C170.796 14.2488 170.728 14.4847 170.63 14.6528C170.533 14.8209 170.402 14.9942 170.24 15.1732C170.077 15.3521 169.858 15.4821 169.582 15.5634C169.305 15.6447 168.977 15.6853 168.598 15.6853C167.091 15.6853 166.338 14.8291 166.338 13.1162V10.4333C166.338 9.34936 166.498 8.54981 166.817 8.03496C167.137 7.52041 167.763 7.26263 168.695 7.26263C169.107 7.26263 169.46 7.32768 169.752 7.45791C170.045 7.58784 170.264 7.73994 170.411 7.91303C170.557 8.08642 170.671 8.31155 170.752 8.58797C170.834 8.86454 170.882 9.09454 170.899 9.27902C170.915 9.46335 170.923 9.69085 170.923 9.96195ZM169.573 12.1081V9.79932C169.573 9.52823 169.563 9.30622 169.541 9.13268C169.519 8.95929 169.435 8.78321 169.289 8.60435C169.142 8.42549 168.934 8.33576 168.663 8.33576C168.273 8.33576 168.015 8.47947 167.89 8.76697C167.766 9.05403 167.704 9.5229 167.704 10.1732V12.4497C167.704 13.3169 167.752 13.9048 167.85 14.2136C167.948 14.5228 168.197 14.677 168.598 14.677C168.749 14.677 168.882 14.6528 168.996 14.6041C169.11 14.5552 169.202 14.4714 169.272 14.352C169.343 14.233 169.4 14.1135 169.443 13.9946C169.486 13.8751 169.516 13.6991 169.533 13.4658C169.549 13.2327 169.56 13.0296 169.565 12.8561C169.571 12.6827 169.573 12.4333 169.573 12.1081H169.573ZM173.525 15.539H172.223V7.40897H175.866V8.38484H173.525V15.539ZM180.988 9.96195V12.4169C180.988 12.7638 180.982 13.0296 180.971 13.2139C180.961 13.3982 180.936 13.6422 180.898 13.9455C180.86 14.2488 180.792 14.4847 180.695 14.6528C180.597 14.8209 180.467 14.9942 180.305 15.1732C180.142 15.3521 179.922 15.4821 179.646 15.5634C179.37 15.6447 179.042 15.6853 178.662 15.6853C177.156 15.6853 176.402 14.8291 176.402 13.1162V10.4333C176.402 9.34936 176.562 8.54981 176.882 8.03496C177.202 7.52041 177.828 7.26263 178.76 7.26263C179.172 7.26263 179.524 7.32768 179.817 7.45791C180.11 7.58784 180.329 7.73994 180.476 7.91303C180.622 8.08642 180.736 8.31155 180.817 8.58797C180.898 8.86454 180.947 9.09454 180.963 9.27902C180.98 9.46335 180.988 9.69085 180.988 9.96195ZM179.638 12.1081V9.79932C179.638 9.52823 179.627 9.30622 179.606 9.13268C179.584 8.95929 179.5 8.78321 179.353 8.60435C179.207 8.42549 178.999 8.33576 178.727 8.33576C178.337 8.33576 178.08 8.47947 177.955 8.76697C177.83 9.05403 177.768 9.5229 177.768 10.1732V12.4497C177.768 13.3169 177.817 13.9048 177.914 14.2136C178.012 14.5228 178.262 14.677 178.662 14.677C178.814 14.677 178.947 14.6528 179.061 14.6041C179.174 14.5552 179.267 14.4714 179.337 14.352C179.407 14.233 179.464 14.1135 179.508 13.9946C179.551 13.8751 179.581 13.6991 179.597 13.4658C179.614 13.2327 179.625 13.0296 179.63 12.8561C179.636 12.6827 179.637 12.4333 179.637 12.1081H179.638ZM187.621 7.26263C188.055 7.26263 188.421 7.33312 188.719 7.47429C189.017 7.61501 189.234 7.802 189.369 8.03496C189.505 8.26837 189.597 8.49042 189.646 8.70165C189.695 8.91318 189.719 9.13812 189.719 9.37655C189.719 10.4278 189.388 11.0568 188.727 11.2626C189.507 11.4796 189.898 12.1081 189.898 13.149C189.898 14.0595 189.705 14.7099 189.32 15.0999C188.936 15.4905 188.347 15.6853 187.556 15.6853C186.711 15.6853 186.101 15.4656 185.727 15.0269C185.353 14.5879 185.166 13.8751 185.166 12.8887V12.6772H186.402C186.402 13.3601 186.486 13.8617 186.654 14.1814C186.822 14.5011 187.117 14.6612 187.54 14.6612C187.909 14.6612 188.177 14.5443 188.345 14.3113C188.513 14.0784 188.597 13.7125 188.597 13.2139C188.597 12.7261 188.508 12.3709 188.329 12.1488C188.15 11.9267 187.833 11.8157 187.377 11.8157H186.304V10.8398H187.263C187.675 10.8398 187.971 10.753 188.15 10.5795C188.329 10.4066 188.418 10.0487 188.418 9.50651C188.418 8.67178 188.12 8.25447 187.524 8.25447C187.112 8.25447 186.844 8.39016 186.719 8.66096C186.594 8.93206 186.532 9.35482 186.532 9.92924V10.1894H185.296V9.89703C185.296 9.0187 185.451 8.36045 185.76 7.92129C186.069 7.48227 186.689 7.26263 187.621 7.26263ZM191.589 7.40897H195.881V14.5635H196.711V17.7828H195.426V15.539H191.768V17.7828H190.483V14.5635C190.537 14.5635 190.603 14.5443 190.678 14.5066C190.754 14.4685 190.846 14.3846 190.955 14.2543C191.063 14.1245 191.163 13.951 191.255 13.7344C191.348 13.5173 191.426 13.2055 191.491 12.7991C191.556 12.3926 191.589 11.9238 191.589 11.3929V7.40897ZM192.89 11.3601C192.89 12.3034 192.846 13.0023 192.76 13.4578C192.673 13.9128 192.51 14.2816 192.272 14.5635H194.581V8.38484H192.89V11.3601ZM201.881 9.96195V12.4169C201.881 12.7638 201.875 13.0296 201.865 13.2139C201.854 13.3982 201.83 13.6422 201.792 13.9455C201.754 14.2488 201.686 14.4847 201.589 14.6528C201.491 14.8209 201.361 14.9942 201.198 15.1732C201.036 15.3521 200.816 15.4821 200.54 15.5634C200.263 15.6447 199.935 15.6853 199.556 15.6853C198.049 15.6853 197.296 14.8291 197.296 13.1162V10.4333C197.296 9.34936 197.456 8.54981 197.776 8.03496C198.095 7.52041 198.721 7.26263 199.654 7.26263C200.066 7.26263 200.418 7.32768 200.711 7.45791C201.003 7.58784 201.222 7.73994 201.369 7.91303C201.515 8.08642 201.629 8.31155 201.711 8.58797C201.792 8.86454 201.841 9.09454 201.857 9.27902C201.873 9.46335 201.881 9.69085 201.881 9.96195ZM200.532 12.1081V9.79932C200.532 9.52823 200.521 9.30622 200.499 9.13268C200.477 8.95929 200.393 8.78321 200.247 8.60435C200.101 8.42549 199.892 8.33576 199.621 8.33576C199.231 8.33576 198.973 8.47947 198.849 8.76697C198.724 9.05403 198.662 9.5229 198.662 10.1732V12.4497C198.662 13.3169 198.711 13.9048 198.808 14.2136C198.906 14.5228 199.155 14.677 199.556 14.677C199.708 14.677 199.841 14.6528 199.955 14.6041C200.068 14.5552 200.16 14.4714 200.231 14.352C200.301 14.233 200.358 14.1135 200.402 13.9946C200.445 13.8751 200.475 13.6991 200.491 13.4658C200.507 13.2327 200.518 13.0296 200.524 12.8561C200.529 12.6827 200.531 12.4333 200.531 12.1081H200.532ZM203.182 7.40897H204.483V8.1896C204.927 7.57187 205.475 7.26263 206.125 7.26263C207.361 7.26263 207.979 8.15188 207.979 9.92924V12.2385C207.979 12.6395 207.97 12.97 207.954 13.2302C207.938 13.4905 207.894 13.7938 207.824 14.1408C207.754 14.4877 207.654 14.7583 207.523 14.9536C207.393 15.1489 207.203 15.3195 206.954 15.4657C206.705 15.6123 206.401 15.6853 206.044 15.6853C205.371 15.6853 204.862 15.4092 204.515 14.856V18.1243H203.182V7.40897ZM206.613 12.921V9.89703C206.613 8.83437 206.298 8.30355 205.67 8.30355C204.911 8.30355 204.531 8.97555 204.531 10.3198V13.0351C204.531 13.5118 204.618 13.9103 204.792 14.23C204.965 14.5498 205.242 14.7098 205.621 14.7098C205.848 14.7098 206.036 14.6528 206.182 14.5388C206.328 14.4253 206.428 14.2597 206.483 14.0432C206.537 13.8265 206.572 13.6422 206.588 13.4905C206.605 13.3384 206.613 13.1491 206.613 12.921ZM213.735 9.96195V12.4169C213.735 12.7638 213.729 13.0296 213.718 13.2139C213.708 13.3982 213.683 13.6422 213.645 13.9455C213.607 14.2488 213.539 14.4847 213.442 14.6528C213.344 14.8209 213.214 14.9942 213.052 15.1732C212.889 15.3521 212.669 15.4821 212.393 15.5634C212.117 15.6447 211.789 15.6853 211.409 15.6853C209.903 15.6853 209.149 14.8291 209.149 13.1162V10.4333C209.149 9.34936 209.309 8.54981 209.629 8.03496C209.949 7.52041 210.575 7.26263 211.507 7.26263C211.919 7.26263 212.271 7.32768 212.564 7.45791C212.857 7.58784 213.076 7.73994 213.223 7.91303C213.369 8.08642 213.483 8.31155 213.564 8.58797C213.645 8.86454 213.694 9.09454 213.71 9.27902C213.727 9.46335 213.735 9.69085 213.735 9.96195ZM212.385 12.1081V9.79932C212.385 9.52823 212.374 9.30622 212.353 9.13268C212.331 8.95929 212.247 8.78321 212.1 8.60435C211.954 8.42549 211.746 8.33576 211.474 8.33576C211.084 8.33576 210.827 8.47947 210.702 8.76697C210.577 9.05403 210.515 9.5229 210.515 10.1732V12.4497C210.515 13.3169 210.564 13.9048 210.662 14.2136C210.759 14.5228 211.009 14.677 211.409 14.677C211.561 14.677 211.694 14.6528 211.808 14.6041C211.921 14.5552 212.014 14.4714 212.084 14.352C212.154 14.233 212.211 14.1135 212.255 13.9946C212.298 13.8751 212.328 13.6991 212.344 13.4658C212.361 13.2327 212.372 13.0296 212.377 12.8561C212.383 12.6827 212.384 12.4333 212.384 12.1081H212.385ZM215.035 7.40897H217.214C217.626 7.40897 217.976 7.46588 218.263 7.57984C218.55 7.69381 218.764 7.84546 218.905 8.03496C219.046 8.22476 219.144 8.41163 219.198 8.59596C219.252 8.78043 219.279 8.98099 219.279 9.19769C219.279 9.56634 219.247 9.87767 219.182 10.1325C219.116 10.3872 219.025 10.5825 218.905 10.7179C218.786 10.8536 218.675 10.9513 218.572 11.0107C218.469 11.0702 218.342 11.1164 218.19 11.1491C218.352 11.1813 218.488 11.2249 218.596 11.279C218.705 11.3329 218.829 11.4227 218.97 11.5471C219.111 11.6719 219.219 11.8589 219.295 12.1081C219.371 12.3574 219.409 12.6662 219.409 13.0351C219.409 13.9891 219.23 14.6393 218.872 14.9863C218.645 15.203 218.385 15.3492 218.092 15.425C217.799 15.5008 217.323 15.539 216.661 15.539H215.035V7.40897ZM216.336 8.38484V10.7748H216.775C217.057 10.7748 217.279 10.756 217.442 10.7179C217.605 10.6802 217.751 10.5692 217.881 10.3847C218.011 10.2003 218.076 9.92926 218.076 9.57183C218.076 9.30073 218.043 9.08124 217.978 8.91317C217.913 8.74511 217.813 8.62582 217.678 8.55531C217.542 8.48495 217.417 8.43882 217.304 8.41709C217.19 8.39566 217.035 8.38484 216.84 8.38484H216.336ZM216.336 11.7502V14.5635H216.872C217.317 14.5635 217.631 14.4739 217.816 14.2949C218 14.1165 218.092 13.7721 218.092 13.2625C218.092 12.6989 218.005 12.3059 217.832 12.0839C217.659 11.8617 217.306 11.7502 216.775 11.7502H216.336ZM220.547 7.40897H221.848V10.531H222.905C224.26 10.531 224.938 11.3493 224.938 12.9864C224.938 13.8315 224.775 14.4684 224.45 14.8967C224.125 15.3249 223.61 15.539 222.905 15.539H220.547V7.40897ZM221.848 11.5065V14.5635H222.547C222.959 14.5635 223.236 14.4388 223.376 14.1894C223.518 13.94 223.588 13.5391 223.588 12.9864C223.588 12.466 223.515 12.0893 223.368 11.8564C223.222 11.623 222.949 11.5065 222.547 11.5065H221.848ZM230.498 15.539H229.198V11.9455H228.466C228.13 11.9455 227.897 12.0487 227.767 12.2544C227.637 12.4605 227.572 12.7966 227.572 13.2625V14.2869C227.572 15.1216 227.106 15.539 226.173 15.539H225.686V14.5635C225.913 14.5635 226.068 14.5036 226.149 14.3846C226.23 14.2652 226.271 14.0594 226.271 13.7666V12.8887C226.271 12.4769 226.325 12.1622 226.434 11.9455C226.542 11.7289 226.759 11.5664 227.084 11.4579C226.542 11.3062 226.271 10.8725 226.271 10.1572V9.19769C226.271 8.00509 226.845 7.40897 227.994 7.40897H230.498V15.539ZM229.198 10.97V8.38484H228.466C228.141 8.38484 227.911 8.46319 227.775 8.62032C227.64 8.77789 227.572 9.0351 227.572 9.39297V9.94566C227.572 10.3143 227.64 10.577 227.775 10.7341C227.911 10.8913 228.141 10.97 228.466 10.97H229.198Z"
        fill="#65728B" />
</svg>